<?xml version="1.0" encoding="UTF-8" standalone="no"?>
<svg
   width="32"
   height="32"
   viewBox="0 0 32 32"
   fill="none"
   version="1.1"
   id="svg932"
   sodipodi:docname="bibig.svg"
   inkscape:version="1.1.1 (c3084ef, 2021-09-22)"
   xmlns:inkscape="http://www.inkscape.org/namespaces/inkscape"
   xmlns:sodipodi="http://sodipodi.sourceforge.net/DTD/sodipodi-0.dtd"
   xmlns="http://www.w3.org/2000/svg"
   xmlns:svg="http://www.w3.org/2000/svg">
  <sodipodi:namedview
     id="namedview934"
     pagecolor="#ffffff"
     bordercolor="#cccccc"
     borderopacity="1"
     inkscape:pageshadow="0"
     inkscape:pageopacity="1"
     inkscape:pagecheckerboard="0"
     showgrid="false"
     inkscape:zoom="20.1875"
     inkscape:cx="16"
     inkscape:cy="16"
     inkscape:window-width="1440"
     inkscape:window-height="847"
     inkscape:window-x="1770"
     inkscape:window-y="187"
     inkscape:window-maximized="0"
     inkscape:current-layer="svg932" />
  <path
     d="M15.9989 29.9978C25.3333 29.9978 29.9978 23.7303 29.9978 15.9989C29.9978 8.26751 25.3333 2 15.9989 2C6.66443 2 2 8.26751 2 15.9989C2 23.7303 6.66443 29.9978 15.9989 29.9978Z"
     fill="url(#paint0_radial_19_42)"
     id="path824" />
  <path
     d="M15.9989 29.9978C25.3333 29.9978 29.9978 23.7303 29.9978 15.9989C29.9978 8.26751 25.3333 2 15.9989 2C6.66443 2 2 8.26751 2 15.9989C2 23.7303 6.66443 29.9978 15.9989 29.9978Z"
     fill="url(#paint1_radial_19_42)"
     id="path826" />
  <path
     d="M15.9989 29.9978C25.3333 29.9978 29.9978 23.7303 29.9978 15.9989C29.9978 8.26751 25.3333 2 15.9989 2C6.66443 2 2 8.26751 2 15.9989C2 23.7303 6.66443 29.9978 15.9989 29.9978Z"
     fill="url(#paint2_radial_19_42)"
     id="path828" />
  <path
     d="M15.9989 29.9978C25.3333 29.9978 29.9978 23.7303 29.9978 15.9989C29.9978 8.26751 25.3333 2 15.9989 2C6.66443 2 2 8.26751 2 15.9989C2 23.7303 6.66443 29.9978 15.9989 29.9978Z"
     fill="url(#paint3_radial_19_42)"
     fill-opacity="0.6"
     id="path830" />
  <path
     d="M15.9989 29.9978C25.3333 29.9978 29.9978 23.7303 29.9978 15.9989C29.9978 8.26751 25.3333 2 15.9989 2C6.66443 2 2 8.26751 2 15.9989C2 23.7303 6.66443 29.9978 15.9989 29.9978Z"
     fill="url(#paint4_radial_19_42)"
     id="path832" />
  <path
     d="M15.9989 29.9978C25.3333 29.9978 29.9978 23.7303 29.9978 15.9989C29.9978 8.26751 25.3333 2 15.9989 2C6.66443 2 2 8.26751 2 15.9989C2 23.7303 6.66443 29.9978 15.9989 29.9978Z"
     fill="url(#paint5_radial_19_42)"
     id="path834" />
  <path
     d="M15.9989 29.9978C25.3333 29.9978 29.9978 23.7303 29.9978 15.9989C29.9978 8.26751 25.3333 2 15.9989 2C6.66443 2 2 8.26751 2 15.9989C2 23.7303 6.66443 29.9978 15.9989 29.9978Z"
     fill="url(#paint6_radial_19_42)"
     id="path836" />
  <path
     d="M15.9989 29.9978C25.3333 29.9978 29.9978 23.7303 29.9978 15.9989C29.9978 8.26751 25.3333 2 15.9989 2C6.66443 2 2 8.26751 2 15.9989C2 23.7303 6.66443 29.9978 15.9989 29.9978Z"
     fill="url(#paint7_radial_19_42)"
     id="path838" />
  <ellipse
     cx="8"
     cy="12.5"
     rx="5"
     ry="4.5"
     fill="url(#paint8_radial_19_42)"
     id="ellipse840" />
  <circle
     cx="19"
     cy="12"
     r="4"
     fill="url(#paint9_radial_19_42)"
     id="circle842" />
  <path
     d="M15 10.5C15 11.9239 14.3387 13.1933 13.3064 14.0179C12.5033 13.7485 11.4768 13.5 10.5 13.5C9.5232 13.5 8.49671 13.7485 7.69357 14.0179C6.66132 13.1933 6 11.9239 6 10.5C6 8.01472 8.01472 6 10.5 6C12.9853 6 15 8.01472 15 10.5Z"
     fill="white"
     id="path844" />
  <path
     d="M26 10.5C26 11.9239 25.3387 13.1933 24.3064 14.0179C23.5033 13.7485 22.4768 13.5 21.5 13.5C20.5232 13.5 19.4967 13.7485 18.6936 14.0179C17.6613 13.1933 17 11.9239 17 10.5C17 8.01472 19.0147 6 21.5 6C23.9853 6 26 8.01472 26 10.5Z"
     fill="white"
     id="path846" />
  <path
     d="M11 13C12.6569 13 14 11.6569 14 10C14 8.34315 12.6569 7 11 7C9.34315 7 8 8.34315 8 10C8 11.6569 9.34315 13 11 13Z"
     fill="url(#paint10_linear_19_42)"
     id="path848" />
  <path
     d="M21 13C22.6569 13 24 11.6569 24 10C24 8.34315 22.6569 7 21 7C19.3431 7 18 8.34315 18 10C18 11.6569 19.3431 13 21 13Z"
     fill="url(#paint11_linear_19_42)"
     id="path850" />
  <path
     d="M16 25C7 25 7 16 7 16H25C25 16 25 25 16 25Z"
     fill="url(#paint12_radial_19_42)"
     id="path852" />
  <path
     d="M8 16.5V16H24V16.5C24 17.0523 23.5523 17.5 23 17.5H9C8.44772 17.5 8 17.0523 8 16.5Z"
     fill="url(#paint13_linear_19_42)"
     id="path854" />
  <defs
     id="defs930">
    <radialGradient
       id="paint0_radial_19_42"
       cx="0"
       cy="0"
       r="1"
       gradientUnits="userSpaceOnUse"
       gradientTransform="translate(25.5 9) rotate(132.839) scale(37.5033)">
      <stop
         stop-color="#FFF478"
         id="stop856" />
      <stop
         offset="0.474827"
         stop-color="#FFB02E"
         id="stop858" />
      <stop
         offset="1"
         stop-color="#F70A8D"
         id="stop860" />
    </radialGradient>
    <radialGradient
       id="paint1_radial_19_42"
       cx="0"
       cy="0"
       r="1"
       gradientUnits="userSpaceOnUse"
       gradientTransform="translate(25.5 9) rotate(131.878) scale(38.9487)">
      <stop
         stop-color="#FFF478"
         id="stop863" />
      <stop
         offset="0.474827"
         stop-color="#FFB02E"
         id="stop865" />
      <stop
         offset="1"
         stop-color="#F70A8D"
         id="stop867" />
    </radialGradient>
    <radialGradient
       id="paint2_radial_19_42"
       cx="0"
       cy="0"
       r="1"
       gradientUnits="userSpaceOnUse"
       gradientTransform="translate(16 12.5) rotate(101.31) scale(17.8466 22.8581)">
      <stop
         offset="0.787821"
         stop-color="#F59639"
         stop-opacity="0"
         id="stop870" />
      <stop
         offset="0.972509"
         stop-color="#FF7DCE"
         id="stop872" />
    </radialGradient>
    <radialGradient
       id="paint3_radial_19_42"
       cx="0"
       cy="0"
       r="1"
       gradientUnits="userSpaceOnUse"
       gradientTransform="translate(18 14) rotate(135) scale(41.0122)">
      <stop
         offset="0.314853"
         stop-opacity="0"
         id="stop875" />
      <stop
         offset="1"
         id="stop877" />
    </radialGradient>
    <radialGradient
       id="paint4_radial_19_42"
       cx="0"
       cy="0"
       r="1"
       gradientUnits="userSpaceOnUse"
       gradientTransform="translate(16 17) rotate(77.692) scale(28.1469)">
      <stop
         offset="0.507903"
         stop-color="#7D6133"
         stop-opacity="0"
         id="stop880" />
      <stop
         offset="1"
         stop-color="#715B32"
         id="stop882" />
    </radialGradient>
    <radialGradient
       id="paint5_radial_19_42"
       cx="0"
       cy="0"
       r="1"
       gradientUnits="userSpaceOnUse"
       gradientTransform="translate(16.5 16.5) rotate(55.7131) scale(13.3135 9.65032)">
      <stop
         stop-color="#FFB849"
         id="stop885" />
      <stop
         offset="1"
         stop-color="#FFB847"
         stop-opacity="0"
         id="stop887" />
    </radialGradient>
    <radialGradient
       id="paint6_radial_19_42"
       cx="0"
       cy="0"
       r="1"
       gradientUnits="userSpaceOnUse"
       gradientTransform="translate(20.5 18) rotate(9.86581) scale(11.6726)">
      <stop
         stop-color="#FFA64B"
         id="stop890" />
      <stop
         offset="0.900412"
         stop-color="#FFAE46"
         stop-opacity="0"
         id="stop892" />
    </radialGradient>
    <radialGradient
       id="paint7_radial_19_42"
       cx="0"
       cy="0"
       r="1"
       gradientUnits="userSpaceOnUse"
       gradientTransform="translate(17.5 15) rotate(43.9708) scale(59.0529)">
      <stop
         offset="0.185425"
         stop-opacity="0"
         id="stop895" />
      <stop
         offset="1"
         stop-opacity="0.4"
         id="stop897" />
    </radialGradient>
    <radialGradient
       id="paint8_radial_19_42"
       cx="0"
       cy="0"
       r="1"
       gradientUnits="userSpaceOnUse"
       gradientTransform="translate(11.8889 9) rotate(138.013) scale(9.26805 4.77033)">
      <stop
         stop-color="#392108"
         id="stop900" />
      <stop
         offset="1"
         stop-color="#C87928"
         stop-opacity="0"
         id="stop902" />
    </radialGradient>
    <radialGradient
       id="paint9_radial_19_42"
       cx="0"
       cy="0"
       r="1"
       gradientUnits="userSpaceOnUse"
       gradientTransform="translate(22.1111 8.88889) rotate(135) scale(7.2282 4.08044)">
      <stop
         stop-color="#392108"
         id="stop905" />
      <stop
         offset="1"
         stop-color="#C87928"
         stop-opacity="0"
         id="stop907" />
    </radialGradient>
    <linearGradient
       id="paint10_linear_19_42"
       x1="22.1538"
       y1="7"
       x2="21"
       y2="13"
       gradientUnits="userSpaceOnUse">
      <stop
         stop-color="#553B3E"
         id="stop910" />
      <stop
         offset="1"
         stop-color="#3D2432"
         id="stop912" />
    </linearGradient>
    <linearGradient
       id="paint11_linear_19_42"
       x1="22.1538"
       y1="7"
       x2="21"
       y2="13"
       gradientUnits="userSpaceOnUse">
      <stop
         stop-color="#553B3E"
         id="stop915" />
      <stop
         offset="1"
         stop-color="#3D2432"
         id="stop917" />
    </linearGradient>
    <radialGradient
       id="paint12_radial_19_42"
       cx="0"
       cy="0"
       r="1"
       gradientUnits="userSpaceOnUse"
       gradientTransform="translate(16 27) rotate(-90) scale(11 22)">
      <stop
         stop-color="#F70A8D"
         id="stop920" />
      <stop
         offset="1"
         stop-color="#89029C"
         id="stop922" />
    </radialGradient>
    <linearGradient
       id="paint13_linear_19_42"
       x1="16"
       y1="16"
       x2="16"
       y2="17.5"
       gradientUnits="userSpaceOnUse">
      <stop
         stop-color="#ECCDFF"
         id="stop925" />
      <stop
         offset="1"
         stop-color="white"
         id="stop927" />
    </linearGradient>
    <radialGradient
       id="paint0_radial_2_462"
       cx="0"
       cy="0"
       r="1"
       gradientUnits="userSpaceOnUse"
       gradientTransform="matrix(-1.2738176,1.3466005,-16.30155,-15.420461,-6.715943,8.0774927)">
      <stop
         offset="0.284996"
         stop-color="#9D92D4"
         id="stop4659" />
      <stop
         offset="0.453125"
         stop-color="#998ED2"
         id="stop4661" />
      <stop
         offset="1"
         stop-color="#8677C6"
         stop-opacity="0"
         id="stop4663" />
    </radialGradient>
    <radialGradient
       id="paint1_radial_2_462"
       cx="0"
       cy="0"
       r="1"
       gradientUnits="userSpaceOnUse"
       gradientTransform="matrix(-1.0463453,1.0918434,-17.458433,-16.730926,-6.133643,7.3132027)">
      <stop
         offset="0.538047"
         stop-color="#7062A8"
         id="stop4666" />
      <stop
         offset="1"
         stop-color="#8677C6"
         stop-opacity="0"
         id="stop4668" />
      <stop
         offset="1"
         stop-color="#7062A8"
         stop-opacity="0"
         id="stop4670" />
    </radialGradient>
    <radialGradient
       id="paint2_radial_2_462"
       cx="0"
       cy="0"
       r="1"
       gradientUnits="userSpaceOnUse"
       gradientTransform="matrix(1.1282333,1.2374196,-20.992941,19.140586,-6.279143,17.904053)">
      <stop
         offset="0.350887"
         stop-color="#5836AB"
         id="stop4673" />
      <stop
         offset="0.528402"
         stop-color="#7647CD"
         id="stop4675" />
      <stop
         offset="1"
         stop-color="#7647CD"
         stop-opacity="0"
         id="stop4677" />
    </radialGradient>
    <radialGradient
       id="paint3_radial_2_462"
       cx="0"
       cy="0"
       r="1"
       gradientUnits="userSpaceOnUse"
       gradientTransform="matrix(1.2656224,4.9915788,-2.7012916,0.68491658,-12.775643,6.1121827)">
      <stop
         offset="0.461553"
         stop-color="#46377A"
         id="stop4680" />
      <stop
         offset="0.931223"
         stop-color="#6D5DAD"
         stop-opacity="0"
         id="stop4682" />
    </radialGradient>
    <radialGradient
       id="paint4_radial_2_462"
       cx="0"
       cy="0"
       r="1"
       gradientUnits="userSpaceOnUse"
       gradientTransform="matrix(0.03124975,1.3359346,-1.0160421,0.02376693,-12.181943,8.4162527)">
      <stop
         offset="0.461553"
         stop-color="#46377A"
         id="stop4685" />
      <stop
         offset="0.931223"
         stop-color="#46377A"
         stop-opacity="0"
         id="stop4687" />
    </radialGradient>
    <radialGradient
       id="paint5_radial_2_462"
       cx="0"
       cy="0"
       r="1"
       gradientUnits="userSpaceOnUse"
       gradientTransform="matrix(-1.29201,0,0,-0.625843,-12.775643,10.588733)">
      <stop
         stop-color="#8A7EC6"
         id="stop4690" />
      <stop
         offset="1"
         stop-color="#8A7EC6"
         stop-opacity="0"
         id="stop4692" />
    </radialGradient>
    <radialGradient
       id="paint6_radial_2_462"
       cx="0"
       cy="0"
       r="1"
       gradientUnits="userSpaceOnUse"
       gradientTransform="matrix(-0.90032562,1.9970662,-1.7649171,-0.79566718,-12.275643,16.580353)">
      <stop
         offset="0.342576"
         stop-color="#5F37BA"
         id="stop4695" />
      <stop
         offset="0.554784"
         stop-color="#8645E3"
         id="stop4697" />
      <stop
         offset="0.984092"
         stop-color="#8155D1"
         stop-opacity="0"
         id="stop4699" />
    </radialGradient>
    <radialGradient
       id="paint7_radial_2_462"
       cx="0"
       cy="0"
       r="1"
       gradientUnits="userSpaceOnUse"
       gradientTransform="matrix(-0.18750333,5.3125021,-1.7217979,-0.06077039,-11.885043,19.510053)">
      <stop
         offset="0.157005"
         stop-color="#463385"
         id="stop4702" />
      <stop
         offset="1"
         stop-color="#7E6CC3"
         stop-opacity="0"
         id="stop4704" />
    </radialGradient>
    <radialGradient
       id="paint8_radial_2_462"
       cx="0"
       cy="0"
       r="1"
       gradientUnits="userSpaceOnUse"
       gradientTransform="matrix(0.03125105,2.5937517,-1.8972423,0.0228591,-12.353743,17.775653)">
      <stop
         offset="0.309713"
         stop-color="#463385"
         id="stop4707" />
      <stop
         offset="1"
         stop-color="#7E6CC3"
         stop-opacity="0"
         id="stop4709" />
    </radialGradient>
    <radialGradient
       id="paint9_radial_2_462"
       cx="0"
       cy="0"
       r="1"
       gradientUnits="userSpaceOnUse"
       gradientTransform="matrix(0.34574962,-0.76428829,0.51719857,0.23397089,-10.919543,20.378953)">
      <stop
         stop-color="#8E4FEC"
         id="stop4712" />
      <stop
         offset="1"
         stop-color="#8E4FEC"
         stop-opacity="0"
         id="stop4714" />
    </radialGradient>
    <radialGradient
       id="paint10_radial_2_462"
       cx="0"
       cy="0"
       r="1"
       gradientUnits="userSpaceOnUse"
       gradientTransform="matrix(-0.99609323,0.19921987,-0.13076768,-0.65383437,-11.705343,10.396723)">
      <stop
         stop-color="#8172C3"
         id="stop4717" />
      <stop
         offset="1"
         stop-color="#8172C3"
         stop-opacity="0"
         id="stop4719" />
    </radialGradient>
    <radialGradient
       id="paint11_radial_2_462"
       cx="0"
       cy="0"
       r="1"
       gradientUnits="userSpaceOnUse"
       gradientTransform="matrix(-0.07812594,1.0000028,-1.0000028,-0.07812594,-12.408443,16.517853)">
      <stop
         offset="0.648916"
         stop-color="#5E36BA"
         id="stop4722" />
      <stop
         offset="0.953323"
         stop-color="#5E36BA"
         stop-opacity="0"
         id="stop4724" />
    </radialGradient>
    <radialGradient
       id="paint12_radial_2_462"
       cx="0"
       cy="0"
       r="1"
       gradientUnits="userSpaceOnUse"
       gradientTransform="matrix(-1.3437412,-1.4375114,22.030357,-20.593297,-5.911643,17.666053)">
      <stop
         offset="0.297321"
         stop-color="#5836AB"
         id="stop4727" />
      <stop
         offset="0.585989"
         stop-color="#7647CD"
         id="stop4729" />
      <stop
         offset="1"
         stop-color="#7647CD"
         stop-opacity="0"
         id="stop4731" />
    </radialGradient>
    <radialGradient
       id="paint13_radial_2_462"
       cx="0"
       cy="0"
       r="1"
       gradientUnits="userSpaceOnUse"
       gradientTransform="matrix(-1.1249934,1.2500019,-12.389566,-11.150526,-5.661643,8.3535127)">
      <stop
         offset="0.194752"
         stop-color="#483F6E"
         id="stop4734" />
      <stop
         offset="1"
         stop-color="#5F5395"
         stop-opacity="0"
         id="stop4736" />
    </radialGradient>
    <linearGradient
       id="paint14_linear_2_462"
       x1="10.2852"
       y1="7.0935102"
       x2="10.2852"
       y2="8.9060097"
       gradientUnits="userSpaceOnUse"
       gradientTransform="translate(-31.540543,2.2287527)">
      <stop
         offset="0.121622"
         stop-color="#635796"
         id="stop4739" />
      <stop
         offset="0.5"
         stop-color="#8172C2"
         id="stop4741" />
      <stop
         offset="0.689189"
         stop-color="#8273C3"
         id="stop4743" />
      <stop
         offset="1"
         stop-color="#8172C2"
         stop-opacity="0"
         id="stop4745" />
    </linearGradient>
    <radialGradient
       id="paint15_radial_2_462"
       cx="0"
       cy="0"
       r="1"
       gradientUnits="userSpaceOnUse"
       gradientTransform="matrix(0,-1.97363,43.6773,0,-21.224143,16.322253)">
      <stop
         offset="0.21739"
         stop-color="#5E36B9"
         id="stop4748" />
      <stop
         offset="0.490565"
         stop-color="#8745E5"
         id="stop4750" />
      <stop
         offset="1"
         stop-color="#8745E5"
         stop-opacity="0"
         id="stop4752" />
    </radialGradient>
    <radialGradient
       id="paint16_radial_2_462"
       cx="0"
       cy="0"
       r="1"
       gradientUnits="userSpaceOnUse"
       gradientTransform="matrix(0.24999992,0.45312451,-1.0873272,0.59990511,-11.868643,9.0019427)">
      <stop
         stop-color="#46377A"
         id="stop4755" />
      <stop
         offset="0.931223"
         stop-color="#46377A"
         stop-opacity="0"
         id="stop4757" />
    </radialGradient>
    <radialGradient
       id="paint17_radial_2_462"
       cx="0"
       cy="0"
       r="1"
       gradientUnits="userSpaceOnUse"
       gradientTransform="matrix(0.25780099,14.406294,-2.56112,0.04583131,-29.759293,11.384763)">
      <stop
         offset="0.266183"
         stop-color="#46377A"
         id="stop4760" />
      <stop
         offset="0.931223"
         stop-color="#6D5DAD"
         stop-opacity="0"
         id="stop4762" />
    </radialGradient>
    <radialGradient
       id="paint0_radial_2_462-9"
       cx="0"
       cy="0"
       r="1"
       gradientUnits="userSpaceOnUse"
       gradientTransform="matrix(-1.2738176,1.3466005,-16.30155,-15.420461,-6.715943,8.0774927)">
      <stop
         offset="0.284996"
         stop-color="#9D92D4"
         id="stop4659-7" />
      <stop
         offset="0.453125"
         stop-color="#998ED2"
         id="stop4661-5" />
      <stop
         offset="1"
         stop-color="#8677C6"
         stop-opacity="0"
         id="stop4663-6" />
    </radialGradient>
    <radialGradient
       id="paint1_radial_2_462-5"
       cx="0"
       cy="0"
       r="1"
       gradientUnits="userSpaceOnUse"
       gradientTransform="matrix(-1.0463453,1.0918434,-17.458433,-16.730926,-6.133643,7.3132027)">
      <stop
         offset="0.538047"
         stop-color="#7062A8"
         id="stop4666-3" />
      <stop
         offset="1"
         stop-color="#8677C6"
         stop-opacity="0"
         id="stop4668-0" />
      <stop
         offset="1"
         stop-color="#7062A8"
         stop-opacity="0"
         id="stop4670-4" />
    </radialGradient>
    <radialGradient
       id="paint2_radial_2_462-8"
       cx="0"
       cy="0"
       r="1"
       gradientUnits="userSpaceOnUse"
       gradientTransform="matrix(1.1282333,1.2374196,-20.992941,19.140586,-6.279143,17.904053)">
      <stop
         offset="0.350887"
         stop-color="#5836AB"
         id="stop4673-5" />
      <stop
         offset="0.528402"
         stop-color="#7647CD"
         id="stop4675-5" />
      <stop
         offset="1"
         stop-color="#7647CD"
         stop-opacity="0"
         id="stop4677-5" />
    </radialGradient>
    <radialGradient
       id="paint3_radial_2_462-4"
       cx="0"
       cy="0"
       r="1"
       gradientUnits="userSpaceOnUse"
       gradientTransform="matrix(1.2656224,4.9915788,-2.7012916,0.68491658,-12.775643,6.1121827)">
      <stop
         offset="0.461553"
         stop-color="#46377A"
         id="stop4680-2" />
      <stop
         offset="0.931223"
         stop-color="#6D5DAD"
         stop-opacity="0"
         id="stop4682-1" />
    </radialGradient>
    <radialGradient
       id="paint4_radial_2_462-9"
       cx="0"
       cy="0"
       r="1"
       gradientUnits="userSpaceOnUse"
       gradientTransform="matrix(0.03124975,1.3359346,-1.0160421,0.02376693,-12.181943,8.4162527)">
      <stop
         offset="0.461553"
         stop-color="#46377A"
         id="stop4685-2" />
      <stop
         offset="0.931223"
         stop-color="#46377A"
         stop-opacity="0"
         id="stop4687-4" />
    </radialGradient>
    <radialGradient
       id="paint5_radial_2_462-5"
       cx="0"
       cy="0"
       r="1"
       gradientUnits="userSpaceOnUse"
       gradientTransform="matrix(-1.29201,0,0,-0.625843,-12.775643,10.588733)">
      <stop
         stop-color="#8A7EC6"
         id="stop4690-8" />
      <stop
         offset="1"
         stop-color="#8A7EC6"
         stop-opacity="0"
         id="stop4692-6" />
    </radialGradient>
    <radialGradient
       id="paint6_radial_2_462-2"
       cx="0"
       cy="0"
       r="1"
       gradientUnits="userSpaceOnUse"
       gradientTransform="matrix(-0.90032562,1.9970662,-1.7649171,-0.79566718,-12.275643,16.580353)">
      <stop
         offset="0.342576"
         stop-color="#5F37BA"
         id="stop4695-5" />
      <stop
         offset="0.554784"
         stop-color="#8645E3"
         id="stop4697-1" />
      <stop
         offset="0.984092"
         stop-color="#8155D1"
         stop-opacity="0"
         id="stop4699-3" />
    </radialGradient>
    <radialGradient
       id="paint7_radial_2_462-9"
       cx="0"
       cy="0"
       r="1"
       gradientUnits="userSpaceOnUse"
       gradientTransform="matrix(-0.18750333,5.3125021,-1.7217979,-0.06077039,-11.885043,19.510053)">
      <stop
         offset="0.157005"
         stop-color="#463385"
         id="stop4702-7" />
      <stop
         offset="1"
         stop-color="#7E6CC3"
         stop-opacity="0"
         id="stop4704-3" />
    </radialGradient>
    <radialGradient
       id="paint8_radial_2_462-7"
       cx="0"
       cy="0"
       r="1"
       gradientUnits="userSpaceOnUse"
       gradientTransform="matrix(0.03125105,2.5937517,-1.8972423,0.0228591,-12.353743,17.775653)">
      <stop
         offset="0.309713"
         stop-color="#463385"
         id="stop4707-5" />
      <stop
         offset="1"
         stop-color="#7E6CC3"
         stop-opacity="0"
         id="stop4709-0" />
    </radialGradient>
    <radialGradient
       id="paint9_radial_2_462-2"
       cx="0"
       cy="0"
       r="1"
       gradientUnits="userSpaceOnUse"
       gradientTransform="matrix(0.34574962,-0.76428829,0.51719857,0.23397089,-10.919543,20.378953)">
      <stop
         stop-color="#8E4FEC"
         id="stop4712-1" />
      <stop
         offset="1"
         stop-color="#8E4FEC"
         stop-opacity="0"
         id="stop4714-8" />
    </radialGradient>
    <radialGradient
       id="paint10_radial_2_462-7"
       cx="0"
       cy="0"
       r="1"
       gradientUnits="userSpaceOnUse"
       gradientTransform="matrix(-0.99609323,0.19921987,-0.13076768,-0.65383437,-11.705343,10.396723)">
      <stop
         stop-color="#8172C3"
         id="stop4717-1" />
      <stop
         offset="1"
         stop-color="#8172C3"
         stop-opacity="0"
         id="stop4719-5" />
    </radialGradient>
    <radialGradient
       id="paint11_radial_2_462-5"
       cx="0"
       cy="0"
       r="1"
       gradientUnits="userSpaceOnUse"
       gradientTransform="matrix(-0.07812594,1.0000028,-1.0000028,-0.07812594,-12.408443,16.517853)">
      <stop
         offset="0.648916"
         stop-color="#5E36BA"
         id="stop4722-8" />
      <stop
         offset="0.953323"
         stop-color="#5E36BA"
         stop-opacity="0"
         id="stop4724-5" />
    </radialGradient>
    <radialGradient
       id="paint12_radial_2_462-6"
       cx="0"
       cy="0"
       r="1"
       gradientUnits="userSpaceOnUse"
       gradientTransform="matrix(-1.3437412,-1.4375114,22.030357,-20.593297,-5.911643,17.666053)">
      <stop
         offset="0.297321"
         stop-color="#5836AB"
         id="stop4727-7" />
      <stop
         offset="0.585989"
         stop-color="#7647CD"
         id="stop4729-9" />
      <stop
         offset="1"
         stop-color="#7647CD"
         stop-opacity="0"
         id="stop4731-4" />
    </radialGradient>
    <radialGradient
       id="paint13_radial_2_462-1"
       cx="0"
       cy="0"
       r="1"
       gradientUnits="userSpaceOnUse"
       gradientTransform="matrix(-1.1249934,1.2500019,-12.389566,-11.150526,-5.661643,8.3535127)">
      <stop
         offset="0.194752"
         stop-color="#483F6E"
         id="stop4734-6" />
      <stop
         offset="1"
         stop-color="#5F5395"
         stop-opacity="0"
         id="stop4736-1" />
    </radialGradient>
    <linearGradient
       id="paint14_linear_2_462-2"
       x1="10.2852"
       y1="7.0935102"
       x2="10.2852"
       y2="8.9060097"
       gradientUnits="userSpaceOnUse"
       gradientTransform="translate(-31.540543,2.2287527)">
      <stop
         offset="0.121622"
         stop-color="#635796"
         id="stop4739-0" />
      <stop
         offset="0.5"
         stop-color="#8172C2"
         id="stop4741-4" />
      <stop
         offset="0.689189"
         stop-color="#8273C3"
         id="stop4743-4" />
      <stop
         offset="1"
         stop-color="#8172C2"
         stop-opacity="0"
         id="stop4745-5" />
    </linearGradient>
    <radialGradient
       id="paint15_radial_2_462-9"
       cx="0"
       cy="0"
       r="1"
       gradientUnits="userSpaceOnUse"
       gradientTransform="matrix(0,-1.97363,43.6773,0,-21.224143,16.322253)">
      <stop
         offset="0.21739"
         stop-color="#5E36B9"
         id="stop4748-7" />
      <stop
         offset="0.490565"
         stop-color="#8745E5"
         id="stop4750-5" />
      <stop
         offset="1"
         stop-color="#8745E5"
         stop-opacity="0"
         id="stop4752-3" />
    </radialGradient>
    <radialGradient
       id="paint16_radial_2_462-9"
       cx="0"
       cy="0"
       r="1"
       gradientUnits="userSpaceOnUse"
       gradientTransform="matrix(0.24999992,0.45312451,-1.0873272,0.59990511,-11.868643,9.0019427)">
      <stop
         stop-color="#46377A"
         id="stop4755-0" />
      <stop
         offset="0.931223"
         stop-color="#46377A"
         stop-opacity="0"
         id="stop4757-5" />
    </radialGradient>
    <radialGradient
       id="paint17_radial_2_462-5"
       cx="0"
       cy="0"
       r="1"
       gradientUnits="userSpaceOnUse"
       gradientTransform="matrix(0.25780099,14.406294,-2.56112,0.04583131,-29.759293,11.384763)">
      <stop
         offset="0.266183"
         stop-color="#46377A"
         id="stop4760-6" />
      <stop
         offset="0.931223"
         stop-color="#6D5DAD"
         stop-opacity="0"
         id="stop4762-3" />
    </radialGradient>
  </defs>
  <g
     id="g4983"
     transform="matrix(-0.37206607,-0.21481244,0.21481244,-0.37206607,17.828541,26.250944)">
    <path
       d="m -10.213443,4.4805927 8.3154,7.5701003 c 0.4193,0.37266 0.4193,1.03656 0,1.40916 l -8.3154,7.5702 c -0.6173,0.559 -1.6072,0.1164 -1.6072,-0.7105 v -3.3192 c 0,-0.5241 -0.4309,-0.955 -0.955,-0.955 V 9.4652127 c 0.5241,0 0.955,-0.43091 0.955,-0.955 v -3.31919 c 0,-0.83854 0.9899,-1.26945 1.6072,-0.71043 z"
       fill="#7969b8"
       id="path4619" />
    <path
       d="m -10.213443,4.4805927 8.3154,7.5701003 c 0.4193,0.37266 0.4193,1.03656 0,1.40916 l -8.3154,7.5702 c -0.6173,0.559 -1.6072,0.1164 -1.6072,-0.7105 v -3.3192 c 0,-0.5241 -0.4309,-0.955 -0.955,-0.955 V 9.4652127 c 0.5241,0 0.955,-0.43091 0.955,-0.955 v -3.31919 c 0,-0.83854 0.9899,-1.26945 1.6072,-0.71043 z"
       fill="url(#paint0_radial_2_462)"
       id="path4621"
       style="fill:url(#paint0_radial_2_462-9)" />
    <path
       d="m -10.213443,4.4805927 8.3154,7.5701003 c 0.4193,0.37266 0.4193,1.03656 0,1.40916 l -8.3154,7.5702 c -0.6173,0.559 -1.6072,0.1164 -1.6072,-0.7105 v -3.3192 c 0,-0.5241 -0.4309,-0.955 -0.955,-0.955 V 9.4652127 c 0.5241,0 0.955,-0.43091 0.955,-0.955 v -3.31919 c 0,-0.83854 0.9899,-1.26945 1.6072,-0.71043 z"
       fill="url(#paint1_radial_2_462)"
       id="path4623"
       style="fill:url(#paint1_radial_2_462-5)" />
    <path
       d="m -10.213443,4.4805927 8.3154,7.5701003 c 0.4193,0.37266 0.4193,1.03656 0,1.40916 l -8.3154,7.5702 c -0.6173,0.559 -1.6072,0.1164 -1.6072,-0.7105 v -3.3192 c 0,-0.5241 -0.4309,-0.955 -0.955,-0.955 V 9.4652127 c 0.5241,0 0.955,-0.43091 0.955,-0.955 v -3.31919 c 0,-0.83854 0.9899,-1.26945 1.6072,-0.71043 z"
       fill="url(#paint2_radial_2_462)"
       id="path4625"
       style="fill:url(#paint2_radial_2_462-8)" />
    <path
       d="m -10.213443,4.4805927 8.3154,7.5701003 c 0.4193,0.37266 0.4193,1.03656 0,1.40916 l -8.3154,7.5702 c -0.6173,0.559 -1.6072,0.1164 -1.6072,-0.7105 v -3.3192 c 0,-0.5241 -0.4309,-0.955 -0.955,-0.955 V 9.4652127 c 0.5241,0 0.955,-0.43091 0.955,-0.955 v -3.31919 c 0,-0.83854 0.9899,-1.26945 1.6072,-0.71043 z"
       fill="url(#paint3_radial_2_462)"
       id="path4627"
       style="fill:url(#paint3_radial_2_462-4)" />
    <path
       d="m -10.213443,4.4805927 8.3154,7.5701003 c 0.4193,0.37266 0.4193,1.03656 0,1.40916 l -8.3154,7.5702 c -0.6173,0.559 -1.6072,0.1164 -1.6072,-0.7105 v -3.3192 c 0,-0.5241 -0.4309,-0.955 -0.955,-0.955 V 9.4652127 c 0.5241,0 0.955,-0.43091 0.955,-0.955 v -3.31919 c 0,-0.83854 0.9899,-1.26945 1.6072,-0.71043 z"
       fill="url(#paint4_radial_2_462)"
       id="path4629"
       style="fill:url(#paint4_radial_2_462-9)" />
    <path
       d="m -10.213443,4.4805927 8.3154,7.5701003 c 0.4193,0.37266 0.4193,1.03656 0,1.40916 l -8.3154,7.5702 c -0.6173,0.559 -1.6072,0.1164 -1.6072,-0.7105 v -3.3192 c 0,-0.5241 -0.4309,-0.955 -0.955,-0.955 V 9.4652127 c 0.5241,0 0.955,-0.43091 0.955,-0.955 v -3.31919 c 0,-0.83854 0.9899,-1.26945 1.6072,-0.71043 z"
       fill="url(#paint5_radial_2_462)"
       id="path4631"
       style="fill:url(#paint5_radial_2_462-5)" />
    <path
       d="m -10.213443,4.4805927 8.3154,7.5701003 c 0.4193,0.37266 0.4193,1.03656 0,1.40916 l -8.3154,7.5702 c -0.6173,0.559 -1.6072,0.1164 -1.6072,-0.7105 v -3.3192 c 0,-0.5241 -0.4309,-0.955 -0.955,-0.955 V 9.4652127 c 0.5241,0 0.955,-0.43091 0.955,-0.955 v -3.31919 c 0,-0.83854 0.9899,-1.26945 1.6072,-0.71043 z"
       fill="url(#paint6_radial_2_462)"
       id="path4633"
       style="fill:url(#paint6_radial_2_462-2)" />
    <path
       d="m -10.213443,4.4805927 8.3154,7.5701003 c 0.4193,0.37266 0.4193,1.03656 0,1.40916 l -8.3154,7.5702 c -0.6173,0.559 -1.6072,0.1164 -1.6072,-0.7105 v -3.3192 c 0,-0.5241 -0.4309,-0.955 -0.955,-0.955 V 9.4652127 c 0.5241,0 0.955,-0.43091 0.955,-0.955 v -3.31919 c 0,-0.83854 0.9899,-1.26945 1.6072,-0.71043 z"
       fill="url(#paint7_radial_2_462)"
       id="path4635"
       style="fill:url(#paint7_radial_2_462-9)" />
    <path
       d="m -10.213443,4.4805927 8.3154,7.5701003 c 0.4193,0.37266 0.4193,1.03656 0,1.40916 l -8.3154,7.5702 c -0.6173,0.559 -1.6072,0.1164 -1.6072,-0.7105 v -3.3192 c 0,-0.5241 -0.4309,-0.955 -0.955,-0.955 V 9.4652127 c 0.5241,0 0.955,-0.43091 0.955,-0.955 v -3.31919 c 0,-0.83854 0.9899,-1.26945 1.6072,-0.71043 z"
       fill="url(#paint8_radial_2_462)"
       id="path4637"
       style="fill:url(#paint8_radial_2_462-7)" />
    <path
       d="m -10.213443,4.4805927 8.3154,7.5701003 c 0.4193,0.37266 0.4193,1.03656 0,1.40916 l -8.3154,7.5702 c -0.6173,0.559 -1.6072,0.1164 -1.6072,-0.7105 v -3.3192 c 0,-0.5241 -0.4309,-0.955 -0.955,-0.955 V 9.4652127 c 0.5241,0 0.955,-0.43091 0.955,-0.955 v -3.31919 c 0,-0.83854 0.9899,-1.26945 1.6072,-0.71043 z"
       fill="url(#paint9_radial_2_462)"
       id="path4639"
       style="fill:url(#paint9_radial_2_462-2)" />
    <path
       d="m -10.213443,4.4805927 8.3154,7.5701003 c 0.4193,0.37266 0.4193,1.03656 0,1.40916 l -8.3154,7.5702 c -0.6173,0.559 -1.6072,0.1164 -1.6072,-0.7105 v -3.3192 c 0,-0.5241 -0.4309,-0.955 -0.955,-0.955 V 9.4652127 c 0.5241,0 0.955,-0.43091 0.955,-0.955 v -3.31919 c 0,-0.83854 0.9899,-1.26945 1.6072,-0.71043 z"
       fill="url(#paint10_radial_2_462)"
       id="path4641"
       style="fill:url(#paint10_radial_2_462-7)" />
    <path
       d="m -10.213443,4.4805927 8.3154,7.5701003 c 0.4193,0.37266 0.4193,1.03656 0,1.40916 l -8.3154,7.5702 c -0.6173,0.559 -1.6072,0.1164 -1.6072,-0.7105 v -3.3192 c 0,-0.5241 -0.4309,-0.955 -0.955,-0.955 V 9.4652127 c 0.5241,0 0.955,-0.43091 0.955,-0.955 v -3.31919 c 0,-0.83854 0.9899,-1.26945 1.6072,-0.71043 z"
       fill="url(#paint11_radial_2_462)"
       id="path4643"
       style="fill:url(#paint11_radial_2_462-5)" />
    <path
       d="m -11.810043,16.989753 c 0,-0.35 -0.3555,-0.9412 -0.9063,-0.9412 h -15.59373 c -0.66,0 -1.19,-0.53 -1.19,-1.19 v -4.21 c 0,-0.6600003 0.53,-1.1900003 1.19,-1.1900003 h 15.60543 c 0.4219,0 0.8946,-0.4527 0.8946,-0.95639 0,-0.381 0,8.4875903 0,8.4875903 z"
       fill="#7969b8"
       id="path4645" />
    <path
       d="m -11.810043,16.989753 c 0,-0.35 -0.3555,-0.9412 -0.9063,-0.9412 h -15.59373 c -0.66,0 -1.19,-0.53 -1.19,-1.19 v -4.21 c 0,-0.6600003 0.53,-1.1900003 1.19,-1.1900003 h 15.60543 c 0.4219,0 0.8946,-0.4527 0.8946,-0.95639 0,-0.381 0,8.4875903 0,8.4875903 z"
       fill="url(#paint12_radial_2_462)"
       id="path4647"
       style="fill:url(#paint12_radial_2_462-6)" />
    <path
       d="m -11.810043,16.989753 c 0,-0.35 -0.3555,-0.9412 -0.9063,-0.9412 h -15.59373 c -0.66,0 -1.19,-0.53 -1.19,-1.19 v -4.21 c 0,-0.6600003 0.53,-1.1900003 1.19,-1.1900003 h 15.60543 c 0.4219,0 0.8946,-0.4527 0.8946,-0.95639 0,-0.381 0,8.4875903 0,8.4875903 z"
       fill="url(#paint13_radial_2_462)"
       id="path4649"
       style="fill:url(#paint13_radial_2_462-1)" />
    <path
       d="m -11.810043,16.989753 c 0,-0.35 -0.3555,-0.9412 -0.9063,-0.9412 h -15.59373 c -0.66,0 -1.19,-0.53 -1.19,-1.19 v -4.21 c 0,-0.6600003 0.53,-1.1900003 1.19,-1.1900003 h 15.60543 c 0.4219,0 0.8946,-0.4527 0.8946,-0.95639 0,-0.381 0,8.4875903 0,8.4875903 z"
       fill="url(#paint14_linear_2_462)"
       id="path4651"
       style="fill:url(#paint14_linear_2_462-2)" />
    <path
       d="m -11.810043,16.989753 c 0,-0.35 -0.3555,-0.9412 -0.9063,-0.9412 h -15.59373 c -0.66,0 -1.19,-0.53 -1.19,-1.19 v -4.21 c 0,-0.6600003 0.53,-1.1900003 1.19,-1.1900003 h 15.60543 c 0.4219,0 0.8946,-0.4527 0.8946,-0.95639 0,-0.381 0,8.4875903 0,8.4875903 z"
       fill="url(#paint15_radial_2_462)"
       id="path4653"
       style="fill:url(#paint15_radial_2_462-9)" />
    <path
       d="m -11.810043,16.989753 c 0,-0.35 -0.3555,-0.9412 -0.9063,-0.9412 h -15.59373 c -0.66,0 -1.19,-0.53 -1.19,-1.19 v -4.21 c 0,-0.6600003 0.53,-1.1900003 1.19,-1.1900003 h 15.60543 c 0.4219,0 0.8946,-0.4527 0.8946,-0.95639 0,-0.381 0,8.4875903 0,8.4875903 z"
       fill="url(#paint16_radial_2_462)"
       id="path4655"
       style="fill:url(#paint16_radial_2_462-9)" />
    <path
       d="m -11.810043,16.989753 c 0,-0.35 -0.3555,-0.9412 -0.9063,-0.9412 h -15.59373 c -0.66,0 -1.19,-0.53 -1.19,-1.19 v -4.21 c 0,-0.6600003 0.53,-1.1900003 1.19,-1.1900003 h 15.60543 c 0.4219,0 0.8946,-0.4527 0.8946,-0.95639 0,-0.381 0,8.4875903 0,8.4875903 z"
       fill="url(#paint17_radial_2_462)"
       id="path4657"
       style="fill:url(#paint17_radial_2_462-5)" />
  </g>
</svg>
