<?xml version="1.0" encoding="UTF-8" standalone="no"?>
<svg
   width="32"
   height="32"
   viewBox="0 0 32 32"
   fill="none"
   version="1.1"
   id="svg954"
   sodipodi:docname="face_with_tongue_color.svg"
   inkscape:version="1.1.1 (c3084ef, 2021-09-22)"
   xmlns:inkscape="http://www.inkscape.org/namespaces/inkscape"
   xmlns:sodipodi="http://sodipodi.sourceforge.net/DTD/sodipodi-0.dtd"
   xmlns="http://www.w3.org/2000/svg"
   xmlns:svg="http://www.w3.org/2000/svg">
  <sodipodi:namedview
     id="namedview956"
     pagecolor="#ffffff"
     bordercolor="#cccccc"
     borderopacity="1"
     inkscape:pageshadow="0"
     inkscape:pageopacity="1"
     inkscape:pagecheckerboard="0"
     showgrid="false"
     inkscape:zoom="20.1875"
     inkscape:cx="16"
     inkscape:cy="16"
     inkscape:window-width="1440"
     inkscape:window-height="847"
     inkscape:window-x="0"
     inkscape:window-y="823"
     inkscape:window-maximized="1"
     inkscape:current-layer="svg954" />
  <path
     d="M15.9989 29.9978C25.3333 29.9978 29.9978 23.7303 29.9978 15.9989C29.9978 8.26751 25.3333 2 15.9989 2C6.66443 2 2 8.26751 2 15.9989C2 23.7303 6.66443 29.9978 15.9989 29.9978Z"
     fill="url(#paint0_radial_31_20)"
     id="path824" />
  <path
     d="M15.9989 29.9978C25.3333 29.9978 29.9978 23.7303 29.9978 15.9989C29.9978 8.26751 25.3333 2 15.9989 2C6.66443 2 2 8.26751 2 15.9989C2 23.7303 6.66443 29.9978 15.9989 29.9978Z"
     fill="url(#paint1_radial_31_20)"
     id="path826" />
  <path
     d="M15.9989 29.9978C25.3333 29.9978 29.9978 23.7303 29.9978 15.9989C29.9978 8.26751 25.3333 2 15.9989 2C6.66443 2 2 8.26751 2 15.9989C2 23.7303 6.66443 29.9978 15.9989 29.9978Z"
     fill="url(#paint2_radial_31_20)"
     id="path828" />
  <path
     d="M15.9989 29.9978C25.3333 29.9978 29.9978 23.7303 29.9978 15.9989C29.9978 8.26751 25.3333 2 15.9989 2C6.66443 2 2 8.26751 2 15.9989C2 23.7303 6.66443 29.9978 15.9989 29.9978Z"
     fill="url(#paint3_radial_31_20)"
     fill-opacity="0.6"
     id="path830" />
  <path
     d="M15.9989 29.9978C25.3333 29.9978 29.9978 23.7303 29.9978 15.9989C29.9978 8.26751 25.3333 2 15.9989 2C6.66443 2 2 8.26751 2 15.9989C2 23.7303 6.66443 29.9978 15.9989 29.9978Z"
     fill="url(#paint4_radial_31_20)"
     id="path832" />
  <path
     d="M15.9989 29.9978C25.3333 29.9978 29.9978 23.7303 29.9978 15.9989C29.9978 8.26751 25.3333 2 15.9989 2C6.66443 2 2 8.26751 2 15.9989C2 23.7303 6.66443 29.9978 15.9989 29.9978Z"
     fill="url(#paint5_radial_31_20)"
     id="path834" />
  <path
     d="M15.9989 29.9978C25.3333 29.9978 29.9978 23.7303 29.9978 15.9989C29.9978 8.26751 25.3333 2 15.9989 2C6.66443 2 2 8.26751 2 15.9989C2 23.7303 6.66443 29.9978 15.9989 29.9978Z"
     fill="url(#paint6_radial_31_20)"
     id="path836" />
  <path
     d="M15.9989 29.9978C25.3333 29.9978 29.9978 23.7303 29.9978 15.9989C29.9978 8.26751 25.3333 2 15.9989 2C6.66443 2 2 8.26751 2 15.9989C2 23.7303 6.66443 29.9978 15.9989 29.9978Z"
     fill="url(#paint7_radial_31_20)"
     id="path838" />
  <circle
     cx="9.01705"
     cy="13.4205"
     r="4.6733"
     fill="url(#paint8_radial_31_20)"
     id="circle840" />
  <circle
     cx="19.2443"
     cy="13.9432"
     r="4.24431"
     fill="url(#paint9_radial_31_20)"
     id="circle842" />
  <path
     d="M10.4191 16.2244C12.742 16.2244 14.6251 14.3414 14.6251 12.0185C14.6251 9.69557 12.742 7.8125 10.4191 7.8125C8.09621 7.8125 6.21313 9.69557 6.21313 12.0185C6.21313 14.3414 8.09621 16.2244 10.4191 16.2244Z"
     fill="white"
     id="path844" />
  <path
     d="M21.5683 16.3011C23.9123 16.3011 25.8126 14.4009 25.8126 12.0568C25.8126 9.71274 23.9123 7.8125 21.5683 7.8125C19.2242 7.8125 17.324 9.71274 17.324 12.0568C17.324 14.4009 19.2242 16.3011 21.5683 16.3011Z"
     fill="white"
     id="path846" />
  <path
     d="M11 15C12.6569 15 14 13.6569 14 12C14 10.3431 12.6569 9 11 9C9.34315 9 8 10.3431 8 12C8 13.6569 9.34315 15 11 15Z"
     fill="url(#paint10_linear_31_20)"
     id="path848" />
  <path
     d="M21 15C22.6569 15 24 13.6569 24 12C24 10.3431 22.6569 9 21 9C19.3431 9 18 10.3431 18 12C18 13.6569 19.3431 15 21 15Z"
     fill="url(#paint11_linear_31_20)"
     id="path850" />
  <path
     d="M15.9988 26C8.99878 26 8.99878 19 8.99878 19H22.9988C22.9988 19 22.9988 26 15.9988 26Z"
     fill="url(#paint12_radial_31_20)"
     id="path852" />
  <path
     d="M16.0155 29C20.2155 29 20.8855 24.8 21.0155 23.75C21.1155 22.9 20.6655 22.47 20.1755 22.18C19.6855 21.89 18.2155 21.62 16.0155 21.62C13.8155 21.62 12.3555 21.89 11.8555 22.18C11.3555 22.47 10.9055 22.9 11.0155 23.75C11.1455 24.8 11.8155 29 16.0155 29Z"
     fill="url(#paint13_radial_31_20)"
     id="path854" />
  <g
     opacity="0.5"
     filter="url(#filter0_f_31_20)"
     id="g858">
    <path
       d="M18 26.5C19 26 20 25 20 23.5"
       stroke="white"
       id="path856" />
  </g>
  <path
     d="M22.8588 20.43C22.9488 19.97 22.9988 19.49 22.9988 19C18.3388 19 11.8388 19 8.99878 19C8.99878 19.49 9.04878 19.96 9.13878 20.43H22.8588Z"
     fill="url(#paint14_linear_31_20)"
     id="path860" />
  <defs
     id="defs952">
    <filter
       id="filter0_f_31_20"
       x="16.7764"
       y="22.5"
       width="4.72363"
       height="5.4472"
       filterUnits="userSpaceOnUse"
       color-interpolation-filters="sRGB">
      <feFlood
         flood-opacity="0"
         result="BackgroundImageFix"
         id="feFlood862" />
      <feBlend
         mode="normal"
         in="SourceGraphic"
         in2="BackgroundImageFix"
         result="shape"
         id="feBlend864" />
      <feGaussianBlur
         stdDeviation="0.5"
         result="effect1_foregroundBlur_31_20"
         id="feGaussianBlur866" />
    </filter>
    <radialGradient
       id="paint0_radial_31_20"
       cx="0"
       cy="0"
       r="1"
       gradientUnits="userSpaceOnUse"
       gradientTransform="translate(25.5 9) rotate(132.839) scale(37.5033)">
      <stop
         stop-color="#FFF478"
         id="stop869" />
      <stop
         offset="0.474827"
         stop-color="#FFB02E"
         id="stop871" />
      <stop
         offset="1"
         stop-color="#F70A8D"
         id="stop873" />
    </radialGradient>
    <radialGradient
       id="paint1_radial_31_20"
       cx="0"
       cy="0"
       r="1"
       gradientUnits="userSpaceOnUse"
       gradientTransform="translate(25.5 9) rotate(131.878) scale(38.9487)">
      <stop
         stop-color="#FFF478"
         id="stop876" />
      <stop
         offset="0.474827"
         stop-color="#FFB02E"
         id="stop878" />
      <stop
         offset="1"
         stop-color="#F70A8D"
         id="stop880" />
    </radialGradient>
    <radialGradient
       id="paint2_radial_31_20"
       cx="0"
       cy="0"
       r="1"
       gradientUnits="userSpaceOnUse"
       gradientTransform="translate(16 12.5) rotate(101.31) scale(17.8466 22.8581)">
      <stop
         offset="0.787821"
         stop-color="#F59639"
         stop-opacity="0"
         id="stop883" />
      <stop
         offset="0.972509"
         stop-color="#FF7DCE"
         id="stop885" />
    </radialGradient>
    <radialGradient
       id="paint3_radial_31_20"
       cx="0"
       cy="0"
       r="1"
       gradientUnits="userSpaceOnUse"
       gradientTransform="translate(18 14) rotate(135) scale(41.0122)">
      <stop
         offset="0.314853"
         stop-opacity="0"
         id="stop888" />
      <stop
         offset="1"
         id="stop890" />
    </radialGradient>
    <radialGradient
       id="paint4_radial_31_20"
       cx="0"
       cy="0"
       r="1"
       gradientUnits="userSpaceOnUse"
       gradientTransform="translate(16 17) rotate(77.692) scale(28.1469)">
      <stop
         offset="0.507903"
         stop-color="#7D6133"
         stop-opacity="0"
         id="stop893" />
      <stop
         offset="1"
         stop-color="#715B32"
         id="stop895" />
    </radialGradient>
    <radialGradient
       id="paint5_radial_31_20"
       cx="0"
       cy="0"
       r="1"
       gradientUnits="userSpaceOnUse"
       gradientTransform="translate(16.5 16.5) rotate(55.7131) scale(13.3135 9.65032)">
      <stop
         stop-color="#FFB849"
         id="stop898" />
      <stop
         offset="1"
         stop-color="#FFB847"
         stop-opacity="0"
         id="stop900" />
    </radialGradient>
    <radialGradient
       id="paint6_radial_31_20"
       cx="0"
       cy="0"
       r="1"
       gradientUnits="userSpaceOnUse"
       gradientTransform="translate(20.5 18) rotate(9.86581) scale(11.6726)">
      <stop
         stop-color="#FFA64B"
         id="stop903" />
      <stop
         offset="0.900412"
         stop-color="#FFAE46"
         stop-opacity="0"
         id="stop905" />
    </radialGradient>
    <radialGradient
       id="paint7_radial_31_20"
       cx="0"
       cy="0"
       r="1"
       gradientUnits="userSpaceOnUse"
       gradientTransform="translate(17.5 15) rotate(43.9708) scale(59.0529)">
      <stop
         offset="0.185425"
         stop-opacity="0"
         id="stop908" />
      <stop
         offset="1"
         stop-opacity="0.4"
         id="stop910" />
    </radialGradient>
    <radialGradient
       id="paint8_radial_31_20"
       cx="0"
       cy="0"
       r="1"
       gradientUnits="userSpaceOnUse"
       gradientTransform="translate(12.6518 9.7857) rotate(135) scale(9.10579 4.71285)">
      <stop
         stop-color="#392108"
         id="stop913" />
      <stop
         offset="1"
         stop-color="#C87928"
         stop-opacity="0"
         id="stop915" />
    </radialGradient>
    <radialGradient
       id="paint9_radial_31_20"
       cx="0"
       cy="0"
       r="1"
       gradientUnits="userSpaceOnUse"
       gradientTransform="translate(22.5454 10.642) rotate(135) scale(7.66968 4.32966)">
      <stop
         stop-color="#392108"
         id="stop918" />
      <stop
         offset="1"
         stop-color="#C87928"
         stop-opacity="0"
         id="stop920" />
    </radialGradient>
    <linearGradient
       id="paint10_linear_31_20"
       x1="16.5"
       y1="8"
       x2="15.5"
       y2="15"
       gradientUnits="userSpaceOnUse">
      <stop
         stop-color="#553B3E"
         id="stop923" />
      <stop
         offset="1"
         stop-color="#3D2432"
         id="stop925" />
    </linearGradient>
    <linearGradient
       id="paint11_linear_31_20"
       x1="16.5"
       y1="8"
       x2="15.5"
       y2="15"
       gradientUnits="userSpaceOnUse">
      <stop
         stop-color="#553B3E"
         id="stop928" />
      <stop
         offset="1"
         stop-color="#3D2432"
         id="stop930" />
    </linearGradient>
    <radialGradient
       id="paint12_radial_31_20"
       cx="0"
       cy="0"
       r="1"
       gradientUnits="userSpaceOnUse"
       gradientTransform="translate(15.9988 27.5556) rotate(-90) scale(8.55556 17.1111)">
      <stop
         stop-color="#F70A8D"
         id="stop933" />
      <stop
         offset="1"
         stop-color="#89029C"
         id="stop935" />
    </radialGradient>
    <radialGradient
       id="paint13_radial_31_20"
       cx="0"
       cy="0"
       r="1"
       gradientUnits="userSpaceOnUse"
       gradientTransform="translate(16.5 30) rotate(-93.0128) scale(9.51315 16.5379)">
      <stop
         stop-color="#FF1C4A"
         id="stop938" />
      <stop
         offset="0.765733"
         stop-color="#FF2B8F"
         id="stop940" />
      <stop
         offset="0.864496"
         stop-color="#BB0773"
         id="stop942" />
      <stop
         offset="0.886239"
         stop-color="#9F0762"
         id="stop944" />
    </radialGradient>
    <linearGradient
       id="paint14_linear_31_20"
       x1="15.9988"
       y1="19"
       x2="15.9988"
       y2="20.43"
       gradientUnits="userSpaceOnUse">
      <stop
         stop-color="#ECCDFF"
         id="stop947" />
      <stop
         offset="1"
         stop-color="white"
         id="stop949" />
    </linearGradient>
    <radialGradient
       id="paint0_radial_2_462-9"
       cx="0"
       cy="0"
       r="1"
       gradientUnits="userSpaceOnUse"
       gradientTransform="matrix(-1.2738176,1.3466005,-16.30155,-15.420461,-6.715943,8.0774927)">
      <stop
         offset="0.284996"
         stop-color="#9D92D4"
         id="stop4659-7" />
      <stop
         offset="0.453125"
         stop-color="#998ED2"
         id="stop4661-5" />
      <stop
         offset="1"
         stop-color="#8677C6"
         stop-opacity="0"
         id="stop4663-6" />
    </radialGradient>
    <radialGradient
       id="paint1_radial_2_462-5"
       cx="0"
       cy="0"
       r="1"
       gradientUnits="userSpaceOnUse"
       gradientTransform="matrix(-1.0463453,1.0918434,-17.458433,-16.730926,-6.133643,7.3132027)">
      <stop
         offset="0.538047"
         stop-color="#7062A8"
         id="stop4666-3" />
      <stop
         offset="1"
         stop-color="#8677C6"
         stop-opacity="0"
         id="stop4668-0" />
      <stop
         offset="1"
         stop-color="#7062A8"
         stop-opacity="0"
         id="stop4670-4" />
    </radialGradient>
    <radialGradient
       id="paint2_radial_2_462-8"
       cx="0"
       cy="0"
       r="1"
       gradientUnits="userSpaceOnUse"
       gradientTransform="matrix(1.1282333,1.2374196,-20.992941,19.140586,-6.279143,17.904053)">
      <stop
         offset="0.350887"
         stop-color="#5836AB"
         id="stop4673-5" />
      <stop
         offset="0.528402"
         stop-color="#7647CD"
         id="stop4675-5" />
      <stop
         offset="1"
         stop-color="#7647CD"
         stop-opacity="0"
         id="stop4677-5" />
    </radialGradient>
    <radialGradient
       id="paint3_radial_2_462-4"
       cx="0"
       cy="0"
       r="1"
       gradientUnits="userSpaceOnUse"
       gradientTransform="matrix(1.2656224,4.9915788,-2.7012916,0.68491658,-12.775643,6.1121827)">
      <stop
         offset="0.461553"
         stop-color="#46377A"
         id="stop4680-2" />
      <stop
         offset="0.931223"
         stop-color="#6D5DAD"
         stop-opacity="0"
         id="stop4682-1" />
    </radialGradient>
    <radialGradient
       id="paint4_radial_2_462-9"
       cx="0"
       cy="0"
       r="1"
       gradientUnits="userSpaceOnUse"
       gradientTransform="matrix(0.03124975,1.3359346,-1.0160421,0.02376693,-12.181943,8.4162527)">
      <stop
         offset="0.461553"
         stop-color="#46377A"
         id="stop4685-2" />
      <stop
         offset="0.931223"
         stop-color="#46377A"
         stop-opacity="0"
         id="stop4687-4" />
    </radialGradient>
    <radialGradient
       id="paint5_radial_2_462-5"
       cx="0"
       cy="0"
       r="1"
       gradientUnits="userSpaceOnUse"
       gradientTransform="matrix(-1.29201,0,0,-0.625843,-12.775643,10.588733)">
      <stop
         stop-color="#8A7EC6"
         id="stop4690-8" />
      <stop
         offset="1"
         stop-color="#8A7EC6"
         stop-opacity="0"
         id="stop4692-6" />
    </radialGradient>
    <radialGradient
       id="paint6_radial_2_462-2"
       cx="0"
       cy="0"
       r="1"
       gradientUnits="userSpaceOnUse"
       gradientTransform="matrix(-0.90032562,1.9970662,-1.7649171,-0.79566718,-12.275643,16.580353)">
      <stop
         offset="0.342576"
         stop-color="#5F37BA"
         id="stop4695-5" />
      <stop
         offset="0.554784"
         stop-color="#8645E3"
         id="stop4697-1" />
      <stop
         offset="0.984092"
         stop-color="#8155D1"
         stop-opacity="0"
         id="stop4699-3" />
    </radialGradient>
    <radialGradient
       id="paint7_radial_2_462-9"
       cx="0"
       cy="0"
       r="1"
       gradientUnits="userSpaceOnUse"
       gradientTransform="matrix(-0.18750333,5.3125021,-1.7217979,-0.06077039,-11.885043,19.510053)">
      <stop
         offset="0.157005"
         stop-color="#463385"
         id="stop4702-7" />
      <stop
         offset="1"
         stop-color="#7E6CC3"
         stop-opacity="0"
         id="stop4704-3" />
    </radialGradient>
    <radialGradient
       id="paint8_radial_2_462-7"
       cx="0"
       cy="0"
       r="1"
       gradientUnits="userSpaceOnUse"
       gradientTransform="matrix(0.03125105,2.5937517,-1.8972423,0.0228591,-12.353743,17.775653)">
      <stop
         offset="0.309713"
         stop-color="#463385"
         id="stop4707-5" />
      <stop
         offset="1"
         stop-color="#7E6CC3"
         stop-opacity="0"
         id="stop4709-0" />
    </radialGradient>
    <radialGradient
       id="paint9_radial_2_462-2"
       cx="0"
       cy="0"
       r="1"
       gradientUnits="userSpaceOnUse"
       gradientTransform="matrix(0.34574962,-0.76428829,0.51719857,0.23397089,-10.919543,20.378953)">
      <stop
         stop-color="#8E4FEC"
         id="stop4712-1" />
      <stop
         offset="1"
         stop-color="#8E4FEC"
         stop-opacity="0"
         id="stop4714-8" />
    </radialGradient>
    <radialGradient
       id="paint10_radial_2_462-7"
       cx="0"
       cy="0"
       r="1"
       gradientUnits="userSpaceOnUse"
       gradientTransform="matrix(-0.99609323,0.19921987,-0.13076768,-0.65383437,-11.705343,10.396723)">
      <stop
         stop-color="#8172C3"
         id="stop4717-1" />
      <stop
         offset="1"
         stop-color="#8172C3"
         stop-opacity="0"
         id="stop4719-5" />
    </radialGradient>
    <radialGradient
       id="paint11_radial_2_462-5"
       cx="0"
       cy="0"
       r="1"
       gradientUnits="userSpaceOnUse"
       gradientTransform="matrix(-0.07812594,1.0000028,-1.0000028,-0.07812594,-12.408443,16.517853)">
      <stop
         offset="0.648916"
         stop-color="#5E36BA"
         id="stop4722-8" />
      <stop
         offset="0.953323"
         stop-color="#5E36BA"
         stop-opacity="0"
         id="stop4724-5" />
    </radialGradient>
    <radialGradient
       id="paint12_radial_2_462-6"
       cx="0"
       cy="0"
       r="1"
       gradientUnits="userSpaceOnUse"
       gradientTransform="matrix(-1.3437412,-1.4375114,22.030357,-20.593297,-5.911643,17.666053)">
      <stop
         offset="0.297321"
         stop-color="#5836AB"
         id="stop4727-7" />
      <stop
         offset="0.585989"
         stop-color="#7647CD"
         id="stop4729-9" />
      <stop
         offset="1"
         stop-color="#7647CD"
         stop-opacity="0"
         id="stop4731-4" />
    </radialGradient>
    <radialGradient
       id="paint13_radial_2_462-1"
       cx="0"
       cy="0"
       r="1"
       gradientUnits="userSpaceOnUse"
       gradientTransform="matrix(-1.1249934,1.2500019,-12.389566,-11.150526,-5.661643,8.3535127)">
      <stop
         offset="0.194752"
         stop-color="#483F6E"
         id="stop4734-6" />
      <stop
         offset="1"
         stop-color="#5F5395"
         stop-opacity="0"
         id="stop4736-1" />
    </radialGradient>
    <linearGradient
       id="paint14_linear_2_462-2"
       x1="10.2852"
       y1="7.0935102"
       x2="10.2852"
       y2="8.9060097"
       gradientUnits="userSpaceOnUse"
       gradientTransform="translate(-31.540543,2.2287527)">
      <stop
         offset="0.121622"
         stop-color="#635796"
         id="stop4739-0" />
      <stop
         offset="0.5"
         stop-color="#8172C2"
         id="stop4741-4" />
      <stop
         offset="0.689189"
         stop-color="#8273C3"
         id="stop4743-4" />
      <stop
         offset="1"
         stop-color="#8172C2"
         stop-opacity="0"
         id="stop4745-5" />
    </linearGradient>
    <radialGradient
       id="paint15_radial_2_462-9"
       cx="0"
       cy="0"
       r="1"
       gradientUnits="userSpaceOnUse"
       gradientTransform="matrix(0,-1.97363,43.6773,0,-21.224143,16.322253)">
      <stop
         offset="0.21739"
         stop-color="#5E36B9"
         id="stop4748-7" />
      <stop
         offset="0.490565"
         stop-color="#8745E5"
         id="stop4750-5" />
      <stop
         offset="1"
         stop-color="#8745E5"
         stop-opacity="0"
         id="stop4752-3" />
    </radialGradient>
    <radialGradient
       id="paint16_radial_2_462-9"
       cx="0"
       cy="0"
       r="1"
       gradientUnits="userSpaceOnUse"
       gradientTransform="matrix(0.24999992,0.45312451,-1.0873272,0.59990511,-11.868643,9.0019427)">
      <stop
         stop-color="#46377A"
         id="stop4755-0" />
      <stop
         offset="0.931223"
         stop-color="#46377A"
         stop-opacity="0"
         id="stop4757-5" />
    </radialGradient>
    <radialGradient
       id="paint17_radial_2_462-5"
       cx="0"
       cy="0"
       r="1"
       gradientUnits="userSpaceOnUse"
       gradientTransform="matrix(0.25780099,14.406294,-2.56112,0.04583131,-29.759293,11.384763)">
      <stop
         offset="0.266183"
         stop-color="#46377A"
         id="stop4760-6" />
      <stop
         offset="0.931223"
         stop-color="#6D5DAD"
         stop-opacity="0"
         id="stop4762-3" />
    </radialGradient>
  </defs>
  <g
     id="g4983"
     transform="matrix(0.41498578,-0.1111951,-0.1111951,-0.41498578,15.944004,30.716306)">
    <path
       d="m -10.213443,4.4805927 8.3154,7.5701003 c 0.4193,0.37266 0.4193,1.03656 0,1.40916 l -8.3154,7.5702 c -0.6173,0.559 -1.6072,0.1164 -1.6072,-0.7105 v -3.3192 c 0,-0.5241 -0.4309,-0.955 -0.955,-0.955 V 9.4652127 c 0.5241,0 0.955,-0.43091 0.955,-0.955 v -3.31919 c 0,-0.83854 0.9899,-1.26945 1.6072,-0.71043 z"
       fill="#7969b8"
       id="path4619" />
    <path
       d="m -10.213443,4.4805927 8.3154,7.5701003 c 0.4193,0.37266 0.4193,1.03656 0,1.40916 l -8.3154,7.5702 c -0.6173,0.559 -1.6072,0.1164 -1.6072,-0.7105 v -3.3192 c 0,-0.5241 -0.4309,-0.955 -0.955,-0.955 V 9.4652127 c 0.5241,0 0.955,-0.43091 0.955,-0.955 v -3.31919 c 0,-0.83854 0.9899,-1.26945 1.6072,-0.71043 z"
       fill="url(#paint0_radial_2_462)"
       id="path4621"
       style="fill:url(#paint0_radial_2_462-9)" />
    <path
       d="m -10.213443,4.4805927 8.3154,7.5701003 c 0.4193,0.37266 0.4193,1.03656 0,1.40916 l -8.3154,7.5702 c -0.6173,0.559 -1.6072,0.1164 -1.6072,-0.7105 v -3.3192 c 0,-0.5241 -0.4309,-0.955 -0.955,-0.955 V 9.4652127 c 0.5241,0 0.955,-0.43091 0.955,-0.955 v -3.31919 c 0,-0.83854 0.9899,-1.26945 1.6072,-0.71043 z"
       fill="url(#paint1_radial_2_462)"
       id="path4623"
       style="fill:url(#paint1_radial_2_462-5)" />
    <path
       d="m -10.213443,4.4805927 8.3154,7.5701003 c 0.4193,0.37266 0.4193,1.03656 0,1.40916 l -8.3154,7.5702 c -0.6173,0.559 -1.6072,0.1164 -1.6072,-0.7105 v -3.3192 c 0,-0.5241 -0.4309,-0.955 -0.955,-0.955 V 9.4652127 c 0.5241,0 0.955,-0.43091 0.955,-0.955 v -3.31919 c 0,-0.83854 0.9899,-1.26945 1.6072,-0.71043 z"
       fill="url(#paint2_radial_2_462)"
       id="path4625"
       style="fill:url(#paint2_radial_2_462-8)" />
    <path
       d="m -10.213443,4.4805927 8.3154,7.5701003 c 0.4193,0.37266 0.4193,1.03656 0,1.40916 l -8.3154,7.5702 c -0.6173,0.559 -1.6072,0.1164 -1.6072,-0.7105 v -3.3192 c 0,-0.5241 -0.4309,-0.955 -0.955,-0.955 V 9.4652127 c 0.5241,0 0.955,-0.43091 0.955,-0.955 v -3.31919 c 0,-0.83854 0.9899,-1.26945 1.6072,-0.71043 z"
       fill="url(#paint3_radial_2_462)"
       id="path4627"
       style="fill:url(#paint3_radial_2_462-4)" />
    <path
       d="m -10.213443,4.4805927 8.3154,7.5701003 c 0.4193,0.37266 0.4193,1.03656 0,1.40916 l -8.3154,7.5702 c -0.6173,0.559 -1.6072,0.1164 -1.6072,-0.7105 v -3.3192 c 0,-0.5241 -0.4309,-0.955 -0.955,-0.955 V 9.4652127 c 0.5241,0 0.955,-0.43091 0.955,-0.955 v -3.31919 c 0,-0.83854 0.9899,-1.26945 1.6072,-0.71043 z"
       fill="url(#paint4_radial_2_462)"
       id="path4629"
       style="fill:url(#paint4_radial_2_462-9)" />
    <path
       d="m -10.213443,4.4805927 8.3154,7.5701003 c 0.4193,0.37266 0.4193,1.03656 0,1.40916 l -8.3154,7.5702 c -0.6173,0.559 -1.6072,0.1164 -1.6072,-0.7105 v -3.3192 c 0,-0.5241 -0.4309,-0.955 -0.955,-0.955 V 9.4652127 c 0.5241,0 0.955,-0.43091 0.955,-0.955 v -3.31919 c 0,-0.83854 0.9899,-1.26945 1.6072,-0.71043 z"
       fill="url(#paint5_radial_2_462)"
       id="path4631"
       style="fill:url(#paint5_radial_2_462-5)" />
    <path
       d="m -10.213443,4.4805927 8.3154,7.5701003 c 0.4193,0.37266 0.4193,1.03656 0,1.40916 l -8.3154,7.5702 c -0.6173,0.559 -1.6072,0.1164 -1.6072,-0.7105 v -3.3192 c 0,-0.5241 -0.4309,-0.955 -0.955,-0.955 V 9.4652127 c 0.5241,0 0.955,-0.43091 0.955,-0.955 v -3.31919 c 0,-0.83854 0.9899,-1.26945 1.6072,-0.71043 z"
       fill="url(#paint6_radial_2_462)"
       id="path4633"
       style="fill:url(#paint6_radial_2_462-2)" />
    <path
       d="m -10.213443,4.4805927 8.3154,7.5701003 c 0.4193,0.37266 0.4193,1.03656 0,1.40916 l -8.3154,7.5702 c -0.6173,0.559 -1.6072,0.1164 -1.6072,-0.7105 v -3.3192 c 0,-0.5241 -0.4309,-0.955 -0.955,-0.955 V 9.4652127 c 0.5241,0 0.955,-0.43091 0.955,-0.955 v -3.31919 c 0,-0.83854 0.9899,-1.26945 1.6072,-0.71043 z"
       fill="url(#paint7_radial_2_462)"
       id="path4635"
       style="fill:url(#paint7_radial_2_462-9)" />
    <path
       d="m -10.213443,4.4805927 8.3154,7.5701003 c 0.4193,0.37266 0.4193,1.03656 0,1.40916 l -8.3154,7.5702 c -0.6173,0.559 -1.6072,0.1164 -1.6072,-0.7105 v -3.3192 c 0,-0.5241 -0.4309,-0.955 -0.955,-0.955 V 9.4652127 c 0.5241,0 0.955,-0.43091 0.955,-0.955 v -3.31919 c 0,-0.83854 0.9899,-1.26945 1.6072,-0.71043 z"
       fill="url(#paint8_radial_2_462)"
       id="path4637"
       style="fill:url(#paint8_radial_2_462-7)" />
    <path
       d="m -10.213443,4.4805927 8.3154,7.5701003 c 0.4193,0.37266 0.4193,1.03656 0,1.40916 l -8.3154,7.5702 c -0.6173,0.559 -1.6072,0.1164 -1.6072,-0.7105 v -3.3192 c 0,-0.5241 -0.4309,-0.955 -0.955,-0.955 V 9.4652127 c 0.5241,0 0.955,-0.43091 0.955,-0.955 v -3.31919 c 0,-0.83854 0.9899,-1.26945 1.6072,-0.71043 z"
       fill="url(#paint9_radial_2_462)"
       id="path4639"
       style="fill:url(#paint9_radial_2_462-2)" />
    <path
       d="m -10.213443,4.4805927 8.3154,7.5701003 c 0.4193,0.37266 0.4193,1.03656 0,1.40916 l -8.3154,7.5702 c -0.6173,0.559 -1.6072,0.1164 -1.6072,-0.7105 v -3.3192 c 0,-0.5241 -0.4309,-0.955 -0.955,-0.955 V 9.4652127 c 0.5241,0 0.955,-0.43091 0.955,-0.955 v -3.31919 c 0,-0.83854 0.9899,-1.26945 1.6072,-0.71043 z"
       fill="url(#paint10_radial_2_462)"
       id="path4641"
       style="fill:url(#paint10_radial_2_462-7)" />
    <path
       d="m -10.213443,4.4805927 8.3154,7.5701003 c 0.4193,0.37266 0.4193,1.03656 0,1.40916 l -8.3154,7.5702 c -0.6173,0.559 -1.6072,0.1164 -1.6072,-0.7105 v -3.3192 c 0,-0.5241 -0.4309,-0.955 -0.955,-0.955 V 9.4652127 c 0.5241,0 0.955,-0.43091 0.955,-0.955 v -3.31919 c 0,-0.83854 0.9899,-1.26945 1.6072,-0.71043 z"
       fill="url(#paint11_radial_2_462)"
       id="path4643"
       style="fill:url(#paint11_radial_2_462-5)" />
    <path
       d="m -11.810043,16.989753 c 0,-0.35 -0.3555,-0.9412 -0.9063,-0.9412 h -15.59373 c -0.66,0 -1.19,-0.53 -1.19,-1.19 v -4.21 c 0,-0.6600003 0.53,-1.1900003 1.19,-1.1900003 h 15.60543 c 0.4219,0 0.8946,-0.4527 0.8946,-0.95639 0,-0.381 0,8.4875903 0,8.4875903 z"
       fill="#7969b8"
       id="path4645" />
    <path
       d="m -11.810043,16.989753 c 0,-0.35 -0.3555,-0.9412 -0.9063,-0.9412 h -15.59373 c -0.66,0 -1.19,-0.53 -1.19,-1.19 v -4.21 c 0,-0.6600003 0.53,-1.1900003 1.19,-1.1900003 h 15.60543 c 0.4219,0 0.8946,-0.4527 0.8946,-0.95639 0,-0.381 0,8.4875903 0,8.4875903 z"
       fill="url(#paint12_radial_2_462)"
       id="path4647"
       style="fill:url(#paint12_radial_2_462-6)" />
    <path
       d="m -11.810043,16.989753 c 0,-0.35 -0.3555,-0.9412 -0.9063,-0.9412 h -15.59373 c -0.66,0 -1.19,-0.53 -1.19,-1.19 v -4.21 c 0,-0.6600003 0.53,-1.1900003 1.19,-1.1900003 h 15.60543 c 0.4219,0 0.8946,-0.4527 0.8946,-0.95639 0,-0.381 0,8.4875903 0,8.4875903 z"
       fill="url(#paint13_radial_2_462)"
       id="path4649"
       style="fill:url(#paint13_radial_2_462-1)" />
    <path
       d="m -11.810043,16.989753 c 0,-0.35 -0.3555,-0.9412 -0.9063,-0.9412 h -15.59373 c -0.66,0 -1.19,-0.53 -1.19,-1.19 v -4.21 c 0,-0.6600003 0.53,-1.1900003 1.19,-1.1900003 h 15.60543 c 0.4219,0 0.8946,-0.4527 0.8946,-0.95639 0,-0.381 0,8.4875903 0,8.4875903 z"
       fill="url(#paint14_linear_2_462)"
       id="path4651"
       style="fill:url(#paint14_linear_2_462-2)" />
    <path
       d="m -11.810043,16.989753 c 0,-0.35 -0.3555,-0.9412 -0.9063,-0.9412 h -15.59373 c -0.66,0 -1.19,-0.53 -1.19,-1.19 v -4.21 c 0,-0.6600003 0.53,-1.1900003 1.19,-1.1900003 h 15.60543 c 0.4219,0 0.8946,-0.4527 0.8946,-0.95639 0,-0.381 0,8.4875903 0,8.4875903 z"
       fill="url(#paint15_radial_2_462)"
       id="path4653"
       style="fill:url(#paint15_radial_2_462-9)" />
    <path
       d="m -11.810043,16.989753 c 0,-0.35 -0.3555,-0.9412 -0.9063,-0.9412 h -15.59373 c -0.66,0 -1.19,-0.53 -1.19,-1.19 v -4.21 c 0,-0.6600003 0.53,-1.1900003 1.19,-1.1900003 h 15.60543 c 0.4219,0 0.8946,-0.4527 0.8946,-0.95639 0,-0.381 0,8.4875903 0,8.4875903 z"
       fill="url(#paint16_radial_2_462)"
       id="path4655"
       style="fill:url(#paint16_radial_2_462-9)" />
    <path
       d="m -11.810043,16.989753 c 0,-0.35 -0.3555,-0.9412 -0.9063,-0.9412 h -15.59373 c -0.66,0 -1.19,-0.53 -1.19,-1.19 v -4.21 c 0,-0.6600003 0.53,-1.1900003 1.19,-1.1900003 h 15.60543 c 0.4219,0 0.8946,-0.4527 0.8946,-0.95639 0,-0.381 0,8.4875903 0,8.4875903 z"
       fill="url(#paint17_radial_2_462)"
       id="path4657"
       style="fill:url(#paint17_radial_2_462-5)" />
  </g>
</svg>
