<?xml version="1.0" encoding="UTF-8" standalone="no"?>
<svg
   width="32"
   height="32"
   viewBox="0 0 32 32"
   fill="none"
   version="1.1"
   id="svg101"
   sodipodi:docname="necktie_color.svg"
   inkscape:version="1.3.2 (091e20e, 2023-11-25, custom)"
   xmlns:inkscape="http://www.inkscape.org/namespaces/inkscape"
   xmlns:sodipodi="http://sodipodi.sourceforge.net/DTD/sodipodi-0.dtd"
   xmlns="http://www.w3.org/2000/svg"
   xmlns:svg="http://www.w3.org/2000/svg">
  <sodipodi:namedview
     id="namedview101"
     pagecolor="#ffffff"
     bordercolor="#000000"
     borderopacity="0.25"
     inkscape:showpageshadow="2"
     inkscape:pageopacity="0.0"
     inkscape:pagecheckerboard="0"
     inkscape:deskcolor="#d1d1d1"
     showguides="true"
     inkscape:zoom="16"
     inkscape:cx="13.28125"
     inkscape:cy="19.46875"
     inkscape:window-width="1920"
     inkscape:window-height="991"
     inkscape:window-x="-9"
     inkscape:window-y="-9"
     inkscape:window-maximized="1"
     inkscape:current-layer="svg101" />
  <path
     d="M15.8916 10.8644L8.11035 2.13H23.751L15.8916 10.8644Z"
     fill="url(#paint11_linear_18_16352)"
     id="path15" />
  <path
     d="M15.8916 10.8644L8.11035 2.13H23.751L15.8916 10.8644Z"
     fill="url(#paint12_linear_18_16352)"
     id="path16" />
  <path
     d="M10.5625 29.9009L14.3125 12.6525L17.3438 11.9325L21.2812 29.9009H10.5625Z"
     fill="url(#paint13_linear_18_16352)"
     id="path17" />
  <path
     d="M10.5625 29.9009L14.3125 12.6525L17.3438 11.9325L21.2812 29.9009H10.5625Z"
     fill="url(#paint14_linear_18_16352)"
     id="path18" />
  <path
     d="M10.5625 29.9009L14.3125 12.6525L17.3438 11.9325L21.2812 29.9009H10.5625Z"
     fill="url(#paint15_radial_18_16352)"
     id="path19" />
  <g
     filter="url(#filter2_i_18_16352)"
     id="g23">
    <path
       d="M13.7861 12.6076L12.7031 10.8231L14.1719 8.82312L15.9141 9.03632L16.5312 8.82312L19.2969 10.5575L18.0124 12.6178C17.8297 12.9107 17.509 13.0887 17.1638 13.0887H14.641C14.2915 13.0887 13.9674 12.9063 13.7861 12.6076Z"
       fill="url(#paint17_linear_18_16352)"
       id="path21" />
    <path
       d="M13.7861 12.6076L12.7031 10.8231L14.1719 8.82312L15.9141 9.03632L16.5312 8.82312L19.2969 10.5575L18.0124 12.6178C17.8297 12.9107 17.509 13.0887 17.1638 13.0887H14.641C14.2915 13.0887 13.9674 12.9063 13.7861 12.6076Z"
       fill="url(#paint18_radial_18_16352)"
       id="path22" />
    <path
       d="M13.7861 12.6076L12.7031 10.8231L14.1719 8.82312L15.9141 9.03632L16.5312 8.82312L19.2969 10.5575L18.0124 12.6178C17.8297 12.9107 17.509 13.0887 17.1638 13.0887H14.641C14.2915 13.0887 13.9674 12.9063 13.7861 12.6076Z"
       fill="url(#paint19_radial_18_16352)"
       id="path23" />
  </g>
  <path
     d="M10.4563 10.9837L7.29019 3.52055C7.01044 2.8611 7.49444 2.13 8.21078 2.13H8.40955C8.8036 2.13 9.18183 2.28507 9.46249 2.56167L15.8474 8.85458C15.962 8.96748 15.9416 9.1576 15.8058 9.24375L12.2037 11.5284C11.578 11.9253 10.7457 11.6658 10.4563 10.9837Z"
     fill="url(#paint20_linear_18_16352)"
     id="path24" />
  <path
     d="M10.4563 10.9837L7.29019 3.52055C7.01044 2.8611 7.49444 2.13 8.21078 2.13H8.40955C8.8036 2.13 9.18183 2.28507 9.46249 2.56167L15.8474 8.85458C15.962 8.96748 15.9416 9.1576 15.8058 9.24375L12.2037 11.5284C11.578 11.9253 10.7457 11.6658 10.4563 10.9837Z"
     fill="url(#paint21_linear_18_16352)"
     id="path25" />
  <path
     d="M10.4563 10.9837L7.29019 3.52055C7.01044 2.8611 7.49444 2.13 8.21078 2.13H8.40955C8.8036 2.13 9.18183 2.28507 9.46249 2.56167L15.8474 8.85458C15.962 8.96748 15.9416 9.1576 15.8058 9.24375L12.2037 11.5284C11.578 11.9253 10.7457 11.6658 10.4563 10.9837Z"
     fill="url(#paint22_linear_18_16352)"
     id="path26" />
  <path
     d="M10.4563 10.9837L7.29019 3.52055C7.01044 2.8611 7.49444 2.13 8.21078 2.13H8.40955C8.8036 2.13 9.18183 2.28507 9.46249 2.56167L15.8474 8.85458C15.962 8.96748 15.9416 9.1576 15.8058 9.24375L12.2037 11.5284C11.578 11.9253 10.7457 11.6658 10.4563 10.9837Z"
     fill="url(#paint23_linear_18_16352)"
     id="path27" />
  <path
     d="M10.4563 10.9837L7.29019 3.52055C7.01044 2.8611 7.49444 2.13 8.21078 2.13H8.40955C8.8036 2.13 9.18183 2.28507 9.46249 2.56167L15.8474 8.85458C15.962 8.96748 15.9416 9.1576 15.8058 9.24375L12.2037 11.5284C11.578 11.9253 10.7457 11.6658 10.4563 10.9837Z"
     fill="url(#paint24_linear_18_16352)"
     id="path28" />
  <path
     d="M10.4563 10.9837L7.29019 3.52055C7.01044 2.8611 7.49444 2.13 8.21078 2.13H8.40955C8.8036 2.13 9.18183 2.28507 9.46249 2.56167L15.8474 8.85458C15.962 8.96748 15.9416 9.1576 15.8058 9.24375L12.2037 11.5284C11.578 11.9253 10.7457 11.6658 10.4563 10.9837Z"
     fill="url(#paint25_linear_18_16352)"
     id="path29" />
  <path
     d="M21.3875 10.9837L24.5536 3.52055C24.8333 2.8611 24.3493 2.13 23.633 2.13H23.4342C23.0401 2.13 22.6619 2.28507 22.3813 2.56167L15.9963 8.85458C15.8818 8.96748 15.9021 9.1576 16.0379 9.24375L19.64 11.5284C20.2657 11.9253 21.0981 11.6658 21.3875 10.9837Z"
     fill="url(#paint26_linear_18_16352)"
     id="path30" />
  <path
     d="M21.3875 10.9837L24.5536 3.52055C24.8333 2.8611 24.3493 2.13 23.633 2.13H23.4342C23.0401 2.13 22.6619 2.28507 22.3813 2.56167L15.9963 8.85458C15.8818 8.96748 15.9021 9.1576 16.0379 9.24375L19.64 11.5284C20.2657 11.9253 21.0981 11.6658 21.3875 10.9837Z"
     fill="url(#paint27_linear_18_16352)"
     id="path31" />
  <path
     d="M21.3875 10.9837L24.5536 3.52055C24.8333 2.8611 24.3493 2.13 23.633 2.13H23.4342C23.0401 2.13 22.6619 2.28507 22.3813 2.56167L15.9963 8.85458C15.8818 8.96748 15.9021 9.1576 16.0379 9.24375L19.64 11.5284C20.2657 11.9253 21.0981 11.6658 21.3875 10.9837Z"
     fill="url(#paint28_linear_18_16352)"
     id="path32" />
  <defs
     id="defs101">
    <filter
       id="filter0_f_18_16352"
       x="6.57036"
       y="2.575"
       width="10.1515"
       height="10.7217"
       filterUnits="userSpaceOnUse"
       color-interpolation-filters="sRGB">
      <feFlood
         flood-opacity="0"
         result="BackgroundImageFix"
         id="feFlood32" />
      <feBlend
         mode="normal"
         in="SourceGraphic"
         in2="BackgroundImageFix"
         result="shape"
         id="feBlend32" />
      <feGaussianBlur
         stdDeviation="0.4"
         result="effect1_foregroundBlur_18_16352"
         id="feGaussianBlur32" />
    </filter>
    <filter
       id="filter1_f_18_16352"
       x="14.8423"
       y="2.575"
       width="10.1515"
       height="10.7217"
       filterUnits="userSpaceOnUse"
       color-interpolation-filters="sRGB">
      <feFlood
         flood-opacity="0"
         result="BackgroundImageFix"
         id="feFlood33" />
      <feBlend
         mode="normal"
         in="SourceGraphic"
         in2="BackgroundImageFix"
         result="shape"
         id="feBlend33" />
      <feGaussianBlur
         stdDeviation="0.4"
         result="effect1_foregroundBlur_18_16352"
         id="feGaussianBlur33" />
    </filter>
    <filter
       id="filter2_i_18_16352"
       x="12.7031"
       y="8.82312"
       width="6.99375"
       height="4.26562"
       filterUnits="userSpaceOnUse"
       color-interpolation-filters="sRGB">
      <feFlood
         flood-opacity="0"
         result="BackgroundImageFix"
         id="feFlood34" />
      <feBlend
         mode="normal"
         in="SourceGraphic"
         in2="BackgroundImageFix"
         result="shape"
         id="feBlend34" />
      <feColorMatrix
         in="SourceAlpha"
         type="matrix"
         values="0 0 0 0 0 0 0 0 0 0 0 0 0 0 0 0 0 0 127 0"
         result="hardAlpha"
         id="feColorMatrix34" />
      <feOffset
         dx="0.4"
         id="feOffset34" />
      <feGaussianBlur
         stdDeviation="0.4"
         id="feGaussianBlur34" />
      <feComposite
         in2="hardAlpha"
         operator="arithmetic"
         k2="-1"
         k3="1"
         id="feComposite34" />
      <feColorMatrix
         type="matrix"
         values="0 0 0 0 0.160784 0 0 0 0 0.133333 0 0 0 0 0.4 0 0 0 1 0"
         id="feColorMatrix35" />
      <feBlend
         mode="normal"
         in2="shape"
         result="effect1_innerShadow_18_16352"
         id="feBlend35" />
    </filter>
    <linearGradient
       id="paint0_linear_18_16352"
       x1="19.5266"
       y1="29.9009"
       x2="19.5266"
       y2="26.25"
       gradientUnits="userSpaceOnUse">
      <stop
         offset="0.178281"
         stop-color="#5562F6"
         id="stop35" />
      <stop
         offset="1"
         stop-color="#5562F6"
         stop-opacity="0"
         id="stop36" />
    </linearGradient>
    <linearGradient
       id="paint1_linear_18_16352"
       x1="30.2766"
       y1="21.3125"
       x2="24.9641"
       y2="21.3125"
       gradientUnits="userSpaceOnUse">
      <stop
         stop-color="#6AA9FF"
         id="stop37" />
      <stop
         offset="1"
         stop-color="#6AA9FF"
         stop-opacity="0"
         id="stop38" />
    </linearGradient>
    <linearGradient
       id="paint2_linear_18_16352"
       x1="2.00122"
       y1="18.75"
       x2="5.52658"
       y2="18.75"
       gradientUnits="userSpaceOnUse">
      <stop
         stop-color="#4C76BF"
         id="stop39" />
      <stop
         offset="1"
         stop-color="#4C76BF"
         stop-opacity="0"
         id="stop40" />
    </linearGradient>
    <radialGradient
       id="paint3_radial_18_16352"
       cx="0"
       cy="0"
       r="1"
       gradientUnits="userSpaceOnUse"
       gradientTransform="translate(15.8297 22.5625) rotate(-90) scale(19.75 51.2914)">
      <stop
         offset="0.803798"
         stop-color="#529EF8"
         stop-opacity="0"
         id="stop41" />
      <stop
         offset="1"
         stop-color="#529EF8"
         id="stop42" />
    </radialGradient>
    <linearGradient
       id="paint4_linear_18_16352"
       x1="4.83911"
       y1="3.86475"
       x2="4.83911"
       y2="29.8767"
       gradientUnits="userSpaceOnUse">
      <stop
         stop-color="#51D8F2"
         id="stop43" />
      <stop
         offset="0.195016"
         stop-color="#35BFFF"
         id="stop44" />
      <stop
         offset="0.860574"
         stop-color="#35BFFF"
         id="stop45" />
      <stop
         offset="1"
         stop-color="#4A96FF"
         id="stop46" />
    </linearGradient>
    <linearGradient
       id="paint5_linear_18_16352"
       x1="9.68286"
       y1="5.0625"
       x2="8.80786"
       y2="29.9009"
       gradientUnits="userSpaceOnUse">
      <stop
         offset="0.03152"
         stop-color="#2E8DF9"
         id="stop47" />
      <stop
         offset="0.200742"
         stop-color="#35BFFF"
         id="stop48" />
      <stop
         offset="0.82149"
         stop-color="#41CEFF"
         id="stop49" />
      <stop
         offset="1"
         stop-color="#629BFF"
         id="stop50" />
    </linearGradient>
    <linearGradient
       id="paint6_linear_18_16352"
       x1="23.7454"
       y1="5.0625"
       x2="22.8704"
       y2="29.9009"
       gradientUnits="userSpaceOnUse">
      <stop
         stop-color="#40D1FF"
         id="stop51" />
      <stop
         offset="0.200742"
         stop-color="#41D7FF"
         id="stop52" />
      <stop
         offset="0.82149"
         stop-color="#42D5FF"
         id="stop53" />
      <stop
         offset="1"
         stop-color="#429AFF"
         id="stop54" />
    </linearGradient>
    <linearGradient
       id="paint7_linear_18_16352"
       x1="27.1047"
       y1="3.96338"
       x2="27.1047"
       y2="29.8337"
       gradientUnits="userSpaceOnUse">
      <stop
         stop-color="#59FFFF"
         id="stop55" />
      <stop
         offset="0.195016"
         stop-color="#4DEDFF"
         id="stop56" />
      <stop
         offset="0.832484"
         stop-color="#4FECFF"
         id="stop57" />
      <stop
         offset="1"
         stop-color="#49ABFF"
         id="stop58" />
    </linearGradient>
    <linearGradient
       id="paint8_linear_18_16352"
       x1="13.339"
       y1="15.3125"
       x2="19.3218"
       y2="15.3125"
       gradientUnits="userSpaceOnUse">
      <stop
         stop-color="#3DBCFF"
         id="stop59" />
      <stop
         offset="1"
         stop-color="#40D1FF"
         id="stop60" />
    </linearGradient>
    <linearGradient
       id="paint9_linear_18_16352"
       x1="19.3218"
       y1="10.5313"
       x2="17.9952"
       y2="12.9063"
       gradientUnits="userSpaceOnUse">
      <stop
         offset="0.22822"
         stop-color="#2B8AFD"
         id="stop61" />
      <stop
         offset="1"
         stop-color="#2B8AFD"
         stop-opacity="0"
         id="stop62" />
    </linearGradient>
    <radialGradient
       id="paint10_radial_18_16352"
       cx="0"
       cy="0"
       r="1"
       gradientUnits="userSpaceOnUse"
       gradientTransform="translate(12.3374 14.25) scale(1.97031 9.6875)">
      <stop
         stop-color="#297FF4"
         stop-opacity="0"
         id="stop63" />
      <stop
         offset="1"
         stop-color="#297FF4"
         id="stop64" />
    </radialGradient>
    <linearGradient
       id="paint11_linear_18_16352"
       x1="15.9307"
       y1="2.13"
       x2="15.9307"
       y2="9.4236"
       gradientUnits="userSpaceOnUse">
      <stop
         stop-color="#CBCBCC"
         id="stop65" />
      <stop
         offset="0.399815"
         stop-color="#CECBD2"
         id="stop66" />
      <stop
         offset="1"
         stop-color="#9C8AAD"
         id="stop67" />
    </linearGradient>
    <linearGradient
       id="paint12_linear_18_16352"
       x1="18.2023"
       y1="7.08984"
       x2="17.6828"
       y2="6.49719"
       gradientUnits="userSpaceOnUse">
      <stop
         offset="0.196951"
         stop-color="#9B8AAC"
         id="stop68" />
      <stop
         offset="1"
         stop-color="#B1A4BD"
         stop-opacity="0"
         id="stop69" />
    </linearGradient>
    <linearGradient
       id="paint13_linear_18_16352"
       x1="15.9219"
       y1="11.9325"
       x2="15.9219"
       y2="28.7164"
       gradientUnits="userSpaceOnUse">
      <stop
         stop-color="#332C70"
         id="stop70" />
      <stop
         offset="1"
         stop-color="#501069"
         id="stop71" />
    </linearGradient>
    <linearGradient
       id="paint14_linear_18_16352"
       x1="11.9107"
       y1="21.8387"
       x2="13.4242"
       y2="22.2093"
       gradientUnits="userSpaceOnUse">
      <stop
         stop-color="#142C63"
         id="stop72" />
      <stop
         offset="1"
         stop-color="#381D62"
         stop-opacity="0"
         id="stop73" />
    </linearGradient>
    <radialGradient
       id="paint15_radial_18_16352"
       cx="0"
       cy="0"
       r="1"
       gradientUnits="userSpaceOnUse"
       gradientTransform="translate(17.992 13.888) rotate(77.5695) scale(16.049 2.61252)">
      <stop
         stop-color="#40457D"
         id="stop74" />
      <stop
         offset="1"
         stop-color="#40457D"
         stop-opacity="0"
         id="stop75" />
    </radialGradient>
    <linearGradient
       id="paint16_linear_18_16352"
       x1="18.2297"
       y1="15.6563"
       x2="17.7297"
       y2="15.7969"
       gradientUnits="userSpaceOnUse">
      <stop
         stop-color="#1B3D78"
         id="stop76" />
      <stop
         offset="1"
         stop-color="#1B3D78"
         stop-opacity="0"
         id="stop77" />
    </linearGradient>
    <linearGradient
       id="paint17_linear_18_16352"
       x1="16"
       y1="8.82312"
       x2="16"
       y2="13.0887"
       gradientUnits="userSpaceOnUse">
      <stop
         offset="0.114726"
         stop-color="#362865"
         id="stop78" />
      <stop
         offset="1"
         stop-color="#461368"
         id="stop79" />
    </linearGradient>
    <radialGradient
       id="paint18_radial_18_16352"
       cx="0"
       cy="0"
       r="1"
       gradientUnits="userSpaceOnUse"
       gradientTransform="translate(17.5266 9.875) rotate(120.964) scale(2.18661 3.38003)">
      <stop
         offset="0.117574"
         stop-color="#4B3D74"
         id="stop80" />
      <stop
         offset="1"
         stop-color="#4B3D74"
         stop-opacity="0"
         id="stop81" />
    </radialGradient>
    <radialGradient
       id="paint19_radial_18_16352"
       cx="0"
       cy="0"
       r="1"
       gradientUnits="userSpaceOnUse"
       gradientTransform="translate(17.7766 9.84375) rotate(124.186) scale(1.0011 4.11852)">
      <stop
         offset="0.255785"
         stop-color="#291A5D"
         id="stop82" />
      <stop
         offset="1"
         stop-color="#291A5D"
         stop-opacity="0"
         id="stop83" />
    </radialGradient>
    <linearGradient
       id="paint20_linear_18_16352"
       x1="12.8452"
       y1="6.11192"
       x2="10.7897"
       y2="9.19521"
       gradientUnits="userSpaceOnUse">
      <stop
         offset="0.0341881"
         stop-color="#E1DEE5"
         id="stop84" />
      <stop
         offset="1"
         stop-color="#CAAEE6"
         id="stop85" />
    </linearGradient>
    <linearGradient
       id="paint21_linear_18_16352"
       x1="9.07678"
       y1="9.19521"
       x2="10.7517"
       y2="8.16745"
       gradientUnits="userSpaceOnUse">
      <stop
         stop-color="#9F8CC4"
         id="stop86" />
      <stop
         offset="1"
         stop-color="#BFA4DB"
         stop-opacity="0"
         id="stop87" />
    </linearGradient>
    <linearGradient
       id="paint22_linear_18_16352"
       x1="13.1498"
       y1="11.2127"
       x2="12.4646"
       y2="9.99458"
       gradientUnits="userSpaceOnUse">
      <stop
         stop-color="#B688EA"
         id="stop88" />
      <stop
         offset="1"
         stop-color="#C8A6EA"
         stop-opacity="0"
         id="stop89" />
    </linearGradient>
    <linearGradient
       id="paint23_linear_18_16352"
       x1="12.8452"
       y1="6.11192"
       x2="10.7897"
       y2="9.19521"
       gradientUnits="userSpaceOnUse">
      <stop
         offset="0.0341881"
         stop-color="#E1DEE5"
         id="stop90" />
      <stop
         offset="1"
         stop-color="#CAAEE6"
         id="stop91" />
    </linearGradient>
    <linearGradient
       id="paint24_linear_18_16352"
       x1="9.07678"
       y1="9.19521"
       x2="10.7517"
       y2="8.16745"
       gradientUnits="userSpaceOnUse">
      <stop
         stop-color="#9F8CC4"
         id="stop92" />
      <stop
         offset="1"
         stop-color="#BFA4DB"
         stop-opacity="0"
         id="stop93" />
    </linearGradient>
    <linearGradient
       id="paint25_linear_18_16352"
       x1="13.1498"
       y1="11.2127"
       x2="12.4646"
       y2="9.99458"
       gradientUnits="userSpaceOnUse">
      <stop
         stop-color="#B688EA"
         id="stop94" />
      <stop
         offset="1"
         stop-color="#C8A6EA"
         stop-opacity="0"
         id="stop95" />
    </linearGradient>
    <linearGradient
       id="paint26_linear_18_16352"
       x1="23.5415"
       y1="7.40614"
       x2="17.4129"
       y2="6.92273"
       gradientUnits="userSpaceOnUse">
      <stop
         stop-color="#F6F2FC"
         id="stop96" />
      <stop
         offset="1"
         stop-color="#CAAEE6"
         id="stop97" />
    </linearGradient>
    <linearGradient
       id="paint27_linear_18_16352"
       x1="18.5168"
       y1="5.8074"
       x2="19.6588"
       y2="6.92273"
       gradientUnits="userSpaceOnUse">
      <stop
         stop-color="#C6C3C9"
         id="stop98" />
      <stop
         offset="1"
         stop-color="#D8D0E2"
         stop-opacity="0"
         id="stop99" />
    </linearGradient>
    <linearGradient
       id="paint28_linear_18_16352"
       x1="18.694"
       y1="11.2127"
       x2="19.3792"
       y2="9.99458"
       gradientUnits="userSpaceOnUse">
      <stop
         stop-color="#B688EA"
         id="stop100" />
      <stop
         offset="1"
         stop-color="#C8A6EA"
         stop-opacity="0"
         id="stop101" />
    </linearGradient>
  </defs>
</svg>
