<?xml version="1.0" encoding="UTF-8" standalone="no"?>
<svg
   width="32"
   height="32"
   viewBox="0 0 32 32"
   fill="none"
   version="1.1"
   id="svg24"
   sodipodi:docname="sandalyas.svg"
   inkscape:version="1.3.2 (091e20e, 2023-11-25, custom)"
   xmlns:inkscape="http://www.inkscape.org/namespaces/inkscape"
   xmlns:sodipodi="http://sodipodi.sourceforge.net/DTD/sodipodi-0.dtd"
   xmlns:xlink="http://www.w3.org/1999/xlink"
   xmlns="http://www.w3.org/2000/svg"
   xmlns:svg="http://www.w3.org/2000/svg">
  <sodipodi:namedview
     id="namedview24"
     pagecolor="#ffffff"
     bordercolor="#000000"
     borderopacity="0.25"
     inkscape:showpageshadow="2"
     inkscape:pageopacity="0.0"
     inkscape:pagecheckerboard="0"
     inkscape:deskcolor="#d1d1d1"
     inkscape:zoom="17.169437"
     inkscape:cx="24.491194"
     inkscape:cy="21.812015"
     inkscape:window-width="1920"
     inkscape:window-height="991"
     inkscape:window-x="-9"
     inkscape:window-y="-9"
     inkscape:window-maximized="1"
     inkscape:current-layer="svg24" />
  <g
     id="g24"
     transform="matrix(0.78820537,0,0,0.78820537,10.795267,3.4042732)">
    <g
       filter="url(#filter0_iii_18_17185)"
       id="g1">
      <path
         fill-rule="evenodd"
         clip-rule="evenodd"
         d="m 12.0755,2.68747 c 3.6407,-1.695283 7.6094,0.17188 9.6407,3.71876 0.8594,1.32813 2.7344,8.08827 2.7344,16.49997 0,3.866 -3.134,7 -7,7 -3.866,0 -7,-3.134 -7,-7 0,-3.0823 -0.0181,-3.8356 -0.3907,-5.3594 C 9.67986,15.9927 8.42707,13.5312 8.06772,12.1875 6.73181,8.15622 7.94825,4.40069 12.0755,2.68747 Z"
         fill="url(#paint0_linear_18_17185)"
         id="path1"
         style="fill:url(#linearGradient33)" />
    </g>
    <g
       filter="url(#filter1_f_18_17185)"
       id="g4">
      <path
         d="M 14.0035,7.04115 C 13.785,6.56838 13.2396,6.36957 12.7854,6.59709 12.3312,6.82461 12.1402,7.39231 12.3588,7.86508 l 0.7251,1.56844 c 0.093,0.20118 0.0453,0.4415 -0.1092,0.59628 -1.8389,1.842 -2.2444,3.9698 -2.3055,6.0952 -0.0696,2.4166 0.3808,4.8054 1.0811,6.2549 0.2264,0.4688 0.7751,0.6577 1.2254,0.4219 0.4503,-0.2357 0.6318,-0.8067 0.4053,-1.2755 -0.6056,-1.2536 -1.222,-3.2094 -1.164,-5.2264 0.0505,-1.7546 0.664,-3.5265 2.2092,-4.9968 0.2134,-0.2031 0.5119,-0.2806 0.7878,-0.1908 0.9499,0.3091 2.1255,1.007 3.1369,2.2316 1.2848,1.5557 2.2466,3.9632 1.806,7.4866 -0.0651,0.5203 0.2874,0.997 0.7872,1.0647 0.4999,0.0677 0.9578,-0.2992 1.0229,-0.8195 0.5051,-4.039 -0.5971,-6.9909 -2.232,-8.9704 C 18.4425,10.5403 16.7181,9.50787 15.4177,9.14178 15.1113,9.05555 14.8402,8.85319 14.7028,8.55547 Z"
         fill="url(#paint1_radial_18_17185)"
         id="path2"
         style="fill:url(#radialGradient34)" />
      <path
         d="M 14.0035,7.04115 C 13.785,6.56838 13.2396,6.36957 12.7854,6.59709 12.3312,6.82461 12.1402,7.39231 12.3588,7.86508 l 0.7251,1.56844 c 0.093,0.20118 0.0453,0.4415 -0.1092,0.59628 -1.8389,1.842 -2.2444,3.9698 -2.3055,6.0952 -0.0696,2.4166 0.3808,4.8054 1.0811,6.2549 0.2264,0.4688 0.7751,0.6577 1.2254,0.4219 0.4503,-0.2357 0.6318,-0.8067 0.4053,-1.2755 -0.6056,-1.2536 -1.222,-3.2094 -1.164,-5.2264 0.0505,-1.7546 0.664,-3.5265 2.2092,-4.9968 0.2134,-0.2031 0.5119,-0.2806 0.7878,-0.1908 0.9499,0.3091 2.1255,1.007 3.1369,2.2316 1.2848,1.5557 2.2466,3.9632 1.806,7.4866 -0.0651,0.5203 0.2874,0.997 0.7872,1.0647 0.4999,0.0677 0.9578,-0.2992 1.0229,-0.8195 0.5051,-4.039 -0.5971,-6.9909 -2.232,-8.9704 C 18.4425,10.5403 16.7181,9.50787 15.4177,9.14178 15.1113,9.05555 14.8402,8.85319 14.7028,8.55547 Z"
         fill="url(#paint2_radial_18_17185)"
         id="path3"
         style="fill:url(#radialGradient35)" />
      <path
         d="M 14.0035,7.04115 C 13.785,6.56838 13.2396,6.36957 12.7854,6.59709 12.3312,6.82461 12.1402,7.39231 12.3588,7.86508 l 0.7251,1.56844 c 0.093,0.20118 0.0453,0.4415 -0.1092,0.59628 -1.8389,1.842 -2.2444,3.9698 -2.3055,6.0952 -0.0696,2.4166 0.3808,4.8054 1.0811,6.2549 0.2264,0.4688 0.7751,0.6577 1.2254,0.4219 0.4503,-0.2357 0.6318,-0.8067 0.4053,-1.2755 -0.6056,-1.2536 -1.222,-3.2094 -1.164,-5.2264 0.0505,-1.7546 0.664,-3.5265 2.2092,-4.9968 0.2134,-0.2031 0.5119,-0.2806 0.7878,-0.1908 0.9499,0.3091 2.1255,1.007 3.1369,2.2316 1.2848,1.5557 2.2466,3.9632 1.806,7.4866 -0.0651,0.5203 0.2874,0.997 0.7872,1.0647 0.4999,0.0677 0.9578,-0.2992 1.0229,-0.8195 0.5051,-4.039 -0.5971,-6.9909 -2.232,-8.9704 C 18.4425,10.5403 16.7181,9.50787 15.4177,9.14178 15.1113,9.05555 14.8402,8.85319 14.7028,8.55547 Z"
         fill="url(#paint3_radial_18_17185)"
         id="path4"
         style="fill:url(#radialGradient36)" />
    </g>
    <g
       filter="url(#filter2_i_18_17185)"
       id="g5">
      <path
         d="M 14.3378,6.47865 C 14.1103,6.00588 13.5426,5.80707 13.0698,6.03459 12.597,6.26211 12.3982,6.82981 12.6257,7.30258 l 0.7548,1.56844 c 0.0968,0.20118 0.0472,0.4415 -0.1137,0.59632 -1.9141,1.84196 -2.6241,4.08776 -2.6878,6.21316 -0.0724,2.4167 0.6844,4.6874 1.4133,6.1369 0.2358,0.4688 0.8068,0.6577 1.2756,0.4219 0.4687,-0.2357 0.6576,-0.8067 0.4219,-1.2755 -0.6304,-1.2536 -1.272,-3.2094 -1.2116,-5.2264 0.0525,-1.7546 0.6911,-3.5265 2.2995,-4.9968 0.2222,-0.2031 0.5328,-0.2806 0.8201,-0.1908 0.9887,0.3091 2.2124,1.007 3.2651,2.2316 1.3374,1.5557 2.3385,3.9632 1.8799,7.4866 -0.0677,0.5203 0.2992,0.997 0.8194,1.0647 0.5203,0.0677 0.997,-0.2992 1.0647,-0.8195 0.5258,-4.039 -0.6215,-6.9909 -2.3232,-8.9704 C 18.9583,9.9778 17.1634,8.94537 15.8097,8.57928 15.4909,8.49305 15.2087,8.29069 15.0656,7.99297 Z"
         fill="#fccb47"
         id="path5" />
    </g>
    <g
       filter="url(#filter3_f_18_17185)"
       id="g6">
      <path
         d="m 13.7629,6.9375 0.9315,1.76218 c 0.1421,0.2688 0.3985,0.45422 0.6926,0.53109 3.1044,0.81123 7.3363,4.05273 6.5634,10.80043"
         stroke="url(#paint4_radial_18_17185)"
         stroke-width="0.75"
         stroke-linecap="round"
         id="path6"
         style="stroke:url(#radialGradient37)" />
    </g>
  </g>
  <defs
     id="defs24">
    <filter
       id="filter0_iii_18_17185"
       x="7.04956"
       y="1.55431"
       width="17.9009"
       height="28.8519"
       filterUnits="userSpaceOnUse"
       color-interpolation-filters="sRGB">
      <feFlood
         flood-opacity="0"
         result="BackgroundImageFix"
         id="feFlood6" />
      <feBlend
         mode="normal"
         in="SourceGraphic"
         in2="BackgroundImageFix"
         result="shape"
         id="feBlend6" />
      <feColorMatrix
         in="SourceAlpha"
         type="matrix"
         values="0 0 0 0 0 0 0 0 0 0 0 0 0 0 0 0 0 0 127 0"
         result="hardAlpha"
         id="feColorMatrix6" />
      <feOffset
         dx="0.5"
         dy="-0.5"
         id="feOffset6" />
      <feGaussianBlur
         stdDeviation="0.5"
         id="feGaussianBlur6" />
      <feComposite
         in2="hardAlpha"
         operator="arithmetic"
         k2="-1"
         k3="1"
         id="feComposite6" />
      <feColorMatrix
         type="matrix"
         values="0 0 0 0 0.352941 0 0 0 0 0.301961 0 0 0 0 1 0 0 0 1 0"
         id="feColorMatrix7" />
      <feBlend
         mode="normal"
         in2="shape"
         result="effect1_innerShadow_18_17185"
         id="feBlend7" />
      <feColorMatrix
         in="SourceAlpha"
         type="matrix"
         values="0 0 0 0 0 0 0 0 0 0 0 0 0 0 0 0 0 0 127 0"
         result="hardAlpha"
         id="feColorMatrix8" />
      <feOffset
         dx="0.5"
         dy="0.5"
         id="feOffset8" />
      <feGaussianBlur
         stdDeviation="0.5"
         id="feGaussianBlur8" />
      <feComposite
         in2="hardAlpha"
         operator="arithmetic"
         k2="-1"
         k3="1"
         id="feComposite8" />
      <feColorMatrix
         type="matrix"
         values="0 0 0 0 0.286275 0 0 0 0 0.403922 0 0 0 0 0.764706 0 0 0 1 0"
         id="feColorMatrix9" />
      <feBlend
         mode="normal"
         in2="effect1_innerShadow_18_17185"
         result="effect2_innerShadow_18_17185"
         id="feBlend9" />
      <feColorMatrix
         in="SourceAlpha"
         type="matrix"
         values="0 0 0 0 0 0 0 0 0 0 0 0 0 0 0 0 0 0 127 0"
         result="hardAlpha"
         id="feColorMatrix10" />
      <feOffset
         dx="-0.5"
         dy="0.5"
         id="feOffset10" />
      <feGaussianBlur
         stdDeviation="0.375"
         id="feGaussianBlur10" />
      <feComposite
         in2="hardAlpha"
         operator="arithmetic"
         k2="-1"
         k3="1"
         id="feComposite10" />
      <feColorMatrix
         type="matrix"
         values="0 0 0 0 0.423529 0 0 0 0 0.717647 0 0 0 0 1 0 0 0 1 0"
         id="feColorMatrix11" />
      <feBlend
         mode="normal"
         in2="effect2_innerShadow_18_17185"
         result="effect3_innerShadow_18_17185"
         id="feBlend11" />
    </filter>
    <filter
       id="filter1_f_18_17185"
       x="9.66211"
       y="5.5029"
       width="13.4285"
       height="18.4004"
       filterUnits="userSpaceOnUse"
       color-interpolation-filters="sRGB">
      <feFlood
         flood-opacity="0"
         result="BackgroundImageFix"
         id="feFlood11" />
      <feBlend
         mode="normal"
         in="SourceGraphic"
         in2="BackgroundImageFix"
         result="shape"
         id="feBlend12" />
      <feGaussianBlur
         stdDeviation="0.5"
         result="effect1_foregroundBlur_18_17185"
         id="feGaussianBlur12" />
    </filter>
    <filter
       id="filter2_i_18_17185"
       x="10.5742"
       y="5.5404"
       width="12.5814"
       height="16.8004"
       filterUnits="userSpaceOnUse"
       color-interpolation-filters="sRGB">
      <feFlood
         flood-opacity="0"
         result="BackgroundImageFix"
         id="feFlood12" />
      <feBlend
         mode="normal"
         in="SourceGraphic"
         in2="BackgroundImageFix"
         result="shape"
         id="feBlend13" />
      <feColorMatrix
         in="SourceAlpha"
         type="matrix"
         values="0 0 0 0 0 0 0 0 0 0 0 0 0 0 0 0 0 0 127 0"
         result="hardAlpha"
         id="feColorMatrix13" />
      <feOffset
         dx="0.4"
         dy="-0.4"
         id="feOffset13" />
      <feGaussianBlur
         stdDeviation="0.5"
         id="feGaussianBlur13" />
      <feComposite
         in2="hardAlpha"
         operator="arithmetic"
         k2="-1"
         k3="1"
         id="feComposite13" />
      <feColorMatrix
         type="matrix"
         values="0 0 0 0 0.941176 0 0 0 0 0.556863 0 0 0 0 0.341176 0 0 0 1 0"
         id="feColorMatrix14" />
      <feBlend
         mode="normal"
         in2="shape"
         result="effect1_innerShadow_18_17185"
         id="feBlend14" />
    </filter>
    <filter
       id="filter3_f_18_17185"
       x="12.8879"
       y="6.06242"
       width="10.03"
       height="14.8439"
       filterUnits="userSpaceOnUse"
       color-interpolation-filters="sRGB">
      <feFlood
         flood-opacity="0"
         result="BackgroundImageFix"
         id="feFlood14" />
      <feBlend
         mode="normal"
         in="SourceGraphic"
         in2="BackgroundImageFix"
         result="shape"
         id="feBlend15" />
      <feGaussianBlur
         stdDeviation="0.25"
         result="effect1_foregroundBlur_18_17185"
         id="feGaussianBlur15" />
    </filter>
    <linearGradient
       id="paint0_linear_18_17185"
       x1="19.3568"
       y1="2.8125"
       x2="16.0001"
       y2="29.9062"
       gradientUnits="userSpaceOnUse">
      <stop
         stop-color="#4393FF"
         id="stop15" />
      <stop
         offset="1"
         stop-color="#4E71FF"
         id="stop16" />
    </linearGradient>
    <radialGradient
       id="paint1_radial_18_17185"
       cx="0"
       cy="0"
       r="1"
       gradientUnits="userSpaceOnUse"
       gradientTransform="matrix(-4.5624629,-9.6249943,6.8680148,-3.2555929,21.3879,21.4688)">
      <stop
         stop-color="#3B4DD8"
         id="stop17" />
      <stop
         offset="1"
         stop-color="#3B4DD8"
         stop-opacity="0"
         id="stop18" />
    </radialGradient>
    <radialGradient
       id="paint2_radial_18_17185"
       cx="0"
       cy="0"
       r="1"
       gradientUnits="userSpaceOnUse"
       gradientTransform="matrix(-0.87499709,5.656251,-4.0360626,-0.62436108,13.7942,5.59375)">
      <stop
         offset="0.0670144"
         stop-color="#3B4DD8"
         id="stop19" />
      <stop
         offset="1"
         stop-color="#3B4DD8"
         stop-opacity="0"
         id="stop20" />
    </radialGradient>
    <radialGradient
       id="paint3_radial_18_17185"
       cx="0"
       cy="0"
       r="1"
       gradientUnits="userSpaceOnUse"
       gradientTransform="matrix(0.09376223,-14.562498,10.391185,0.06690477,11.9817,22.5937)">
      <stop
         stop-color="#3B4DD8"
         id="stop21" />
      <stop
         offset="1"
         stop-color="#3B4DD8"
         stop-opacity="0"
         id="stop22" />
    </radialGradient>
    <radialGradient
       id="paint4_radial_18_17185"
       cx="0"
       cy="0"
       r="1"
       gradientUnits="userSpaceOnUse"
       gradientTransform="matrix(-2.1562654,2.9999873,-9.2208049,-6.6275288,19.6379,9.34375)">
      <stop
         offset="0.180511"
         stop-color="#FFDF63"
         id="stop23" />
      <stop
         offset="1"
         stop-color="#FFDF63"
         stop-opacity="0"
         id="stop24" />
    </radialGradient>
    <linearGradient
       inkscape:collect="always"
       xlink:href="#paint0_linear_18_17185"
       id="linearGradient30"
       gradientUnits="userSpaceOnUse"
       x1="19.3568"
       y1="2.8125"
       x2="16.0001"
       y2="29.9062" />
    <radialGradient
       inkscape:collect="always"
       xlink:href="#paint1_radial_18_17185"
       id="radialGradient30"
       gradientUnits="userSpaceOnUse"
       gradientTransform="matrix(-4.5624629,-9.6249943,6.8680148,-3.2555929,21.3879,21.4688)"
       cx="0"
       cy="0"
       r="1" />
    <radialGradient
       inkscape:collect="always"
       xlink:href="#paint2_radial_18_17185"
       id="radialGradient31"
       gradientUnits="userSpaceOnUse"
       gradientTransform="matrix(-0.87499709,5.656251,-4.0360626,-0.62436108,13.7942,5.59375)"
       cx="0"
       cy="0"
       r="1" />
    <radialGradient
       inkscape:collect="always"
       xlink:href="#paint3_radial_18_17185"
       id="radialGradient32"
       gradientUnits="userSpaceOnUse"
       gradientTransform="matrix(0.09376223,-14.562498,10.391185,0.06690477,11.9817,22.5937)"
       cx="0"
       cy="0"
       r="1" />
    <radialGradient
       inkscape:collect="always"
       xlink:href="#paint4_radial_18_17185"
       id="radialGradient33"
       gradientUnits="userSpaceOnUse"
       gradientTransform="matrix(-2.1562654,2.9999873,-9.2208049,-6.6275288,19.6379,9.34375)"
       cx="0"
       cy="0"
       r="1" />
    <linearGradient
       inkscape:collect="always"
       xlink:href="#paint0_linear_18_17185"
       id="linearGradient33"
       gradientUnits="userSpaceOnUse"
       x1="19.3568"
       y1="2.8125"
       x2="16.0001"
       y2="29.9062" />
    <radialGradient
       inkscape:collect="always"
       xlink:href="#paint1_radial_18_17185"
       id="radialGradient34"
       gradientUnits="userSpaceOnUse"
       gradientTransform="matrix(-4.5624629,-9.6249943,6.8680148,-3.2555929,21.3879,21.4688)"
       cx="0"
       cy="0"
       r="1" />
    <radialGradient
       inkscape:collect="always"
       xlink:href="#paint2_radial_18_17185"
       id="radialGradient35"
       gradientUnits="userSpaceOnUse"
       gradientTransform="matrix(-0.87499709,5.656251,-4.0360626,-0.62436108,13.7942,5.59375)"
       cx="0"
       cy="0"
       r="1" />
    <radialGradient
       inkscape:collect="always"
       xlink:href="#paint3_radial_18_17185"
       id="radialGradient36"
       gradientUnits="userSpaceOnUse"
       gradientTransform="matrix(0.09376223,-14.562498,10.391185,0.06690477,11.9817,22.5937)"
       cx="0"
       cy="0"
       r="1" />
    <radialGradient
       inkscape:collect="always"
       xlink:href="#paint4_radial_18_17185"
       id="radialGradient37"
       gradientUnits="userSpaceOnUse"
       gradientTransform="matrix(-2.1562654,2.9999873,-9.2208049,-6.6275288,19.6379,9.34375)"
       cx="0"
       cy="0"
       r="1" />
  </defs>
  <g
     id="g30"
     transform="matrix(-0.78820537,0,0,0.78820537,21.556501,3.4042732)">
    <g
       filter="url(#filter0_iii_18_17185)"
       id="g25">
      <path
         fill-rule="evenodd"
         clip-rule="evenodd"
         d="m 12.0755,2.68747 c 3.6407,-1.695283 7.6094,0.17188 9.6407,3.71876 0.8594,1.32813 2.7344,8.08827 2.7344,16.49997 0,3.866 -3.134,7 -7,7 -3.866,0 -7,-3.134 -7,-7 0,-3.0823 -0.0181,-3.8356 -0.3907,-5.3594 C 9.67986,15.9927 8.42707,13.5312 8.06772,12.1875 6.73181,8.15622 7.94825,4.40069 12.0755,2.68747 Z"
         fill="url(#paint0_linear_18_17185)"
         id="path24"
         style="fill:url(#linearGradient30)" />
    </g>
    <g
       filter="url(#filter1_f_18_17185)"
       id="g27">
      <path
         d="M 14.0035,7.04115 C 13.785,6.56838 13.2396,6.36957 12.7854,6.59709 12.3312,6.82461 12.1402,7.39231 12.3588,7.86508 l 0.7251,1.56844 c 0.093,0.20118 0.0453,0.4415 -0.1092,0.59628 -1.8389,1.842 -2.2444,3.9698 -2.3055,6.0952 -0.0696,2.4166 0.3808,4.8054 1.0811,6.2549 0.2264,0.4688 0.7751,0.6577 1.2254,0.4219 0.4503,-0.2357 0.6318,-0.8067 0.4053,-1.2755 -0.6056,-1.2536 -1.222,-3.2094 -1.164,-5.2264 0.0505,-1.7546 0.664,-3.5265 2.2092,-4.9968 0.2134,-0.2031 0.5119,-0.2806 0.7878,-0.1908 0.9499,0.3091 2.1255,1.007 3.1369,2.2316 1.2848,1.5557 2.2466,3.9632 1.806,7.4866 -0.0651,0.5203 0.2874,0.997 0.7872,1.0647 0.4999,0.0677 0.9578,-0.2992 1.0229,-0.8195 0.5051,-4.039 -0.5971,-6.9909 -2.232,-8.9704 C 18.4425,10.5403 16.7181,9.50787 15.4177,9.14178 15.1113,9.05555 14.8402,8.85319 14.7028,8.55547 Z"
         fill="url(#paint1_radial_18_17185)"
         id="path25"
         style="fill:url(#radialGradient30)" />
      <path
         d="M 14.0035,7.04115 C 13.785,6.56838 13.2396,6.36957 12.7854,6.59709 12.3312,6.82461 12.1402,7.39231 12.3588,7.86508 l 0.7251,1.56844 c 0.093,0.20118 0.0453,0.4415 -0.1092,0.59628 -1.8389,1.842 -2.2444,3.9698 -2.3055,6.0952 -0.0696,2.4166 0.3808,4.8054 1.0811,6.2549 0.2264,0.4688 0.7751,0.6577 1.2254,0.4219 0.4503,-0.2357 0.6318,-0.8067 0.4053,-1.2755 -0.6056,-1.2536 -1.222,-3.2094 -1.164,-5.2264 0.0505,-1.7546 0.664,-3.5265 2.2092,-4.9968 0.2134,-0.2031 0.5119,-0.2806 0.7878,-0.1908 0.9499,0.3091 2.1255,1.007 3.1369,2.2316 1.2848,1.5557 2.2466,3.9632 1.806,7.4866 -0.0651,0.5203 0.2874,0.997 0.7872,1.0647 0.4999,0.0677 0.9578,-0.2992 1.0229,-0.8195 0.5051,-4.039 -0.5971,-6.9909 -2.232,-8.9704 C 18.4425,10.5403 16.7181,9.50787 15.4177,9.14178 15.1113,9.05555 14.8402,8.85319 14.7028,8.55547 Z"
         fill="url(#paint2_radial_18_17185)"
         id="path26"
         style="fill:url(#radialGradient31)" />
      <path
         d="M 14.0035,7.04115 C 13.785,6.56838 13.2396,6.36957 12.7854,6.59709 12.3312,6.82461 12.1402,7.39231 12.3588,7.86508 l 0.7251,1.56844 c 0.093,0.20118 0.0453,0.4415 -0.1092,0.59628 -1.8389,1.842 -2.2444,3.9698 -2.3055,6.0952 -0.0696,2.4166 0.3808,4.8054 1.0811,6.2549 0.2264,0.4688 0.7751,0.6577 1.2254,0.4219 0.4503,-0.2357 0.6318,-0.8067 0.4053,-1.2755 -0.6056,-1.2536 -1.222,-3.2094 -1.164,-5.2264 0.0505,-1.7546 0.664,-3.5265 2.2092,-4.9968 0.2134,-0.2031 0.5119,-0.2806 0.7878,-0.1908 0.9499,0.3091 2.1255,1.007 3.1369,2.2316 1.2848,1.5557 2.2466,3.9632 1.806,7.4866 -0.0651,0.5203 0.2874,0.997 0.7872,1.0647 0.4999,0.0677 0.9578,-0.2992 1.0229,-0.8195 0.5051,-4.039 -0.5971,-6.9909 -2.232,-8.9704 C 18.4425,10.5403 16.7181,9.50787 15.4177,9.14178 15.1113,9.05555 14.8402,8.85319 14.7028,8.55547 Z"
         fill="url(#paint3_radial_18_17185)"
         id="path27"
         style="fill:url(#radialGradient32)" />
    </g>
    <g
       filter="url(#filter2_i_18_17185)"
       id="g28">
      <path
         d="M 14.3378,6.47865 C 14.1103,6.00588 13.5426,5.80707 13.0698,6.03459 12.597,6.26211 12.3982,6.82981 12.6257,7.30258 l 0.7548,1.56844 c 0.0968,0.20118 0.0472,0.4415 -0.1137,0.59632 -1.9141,1.84196 -2.6241,4.08776 -2.6878,6.21316 -0.0724,2.4167 0.6844,4.6874 1.4133,6.1369 0.2358,0.4688 0.8068,0.6577 1.2756,0.4219 0.4687,-0.2357 0.6576,-0.8067 0.4219,-1.2755 -0.6304,-1.2536 -1.272,-3.2094 -1.2116,-5.2264 0.0525,-1.7546 0.6911,-3.5265 2.2995,-4.9968 0.2222,-0.2031 0.5328,-0.2806 0.8201,-0.1908 0.9887,0.3091 2.2124,1.007 3.2651,2.2316 1.3374,1.5557 2.3385,3.9632 1.8799,7.4866 -0.0677,0.5203 0.2992,0.997 0.8194,1.0647 0.5203,0.0677 0.997,-0.2992 1.0647,-0.8195 0.5258,-4.039 -0.6215,-6.9909 -2.3232,-8.9704 C 18.9583,9.9778 17.1634,8.94537 15.8097,8.57928 15.4909,8.49305 15.2087,8.29069 15.0656,7.99297 Z"
         fill="#fccb47"
         id="path28" />
    </g>
    <g
       filter="url(#filter3_f_18_17185)"
       id="g29">
      <path
         d="m 13.7629,6.9375 0.9315,1.76218 c 0.1421,0.2688 0.3985,0.45422 0.6926,0.53109 3.1044,0.81123 7.3363,4.05273 6.5634,10.80043"
         stroke="url(#paint4_radial_18_17185)"
         stroke-width="0.75"
         stroke-linecap="round"
         id="path29"
         style="stroke:url(#radialGradient33)" />
    </g>
  </g>
</svg>
