<?xml version="1.0" encoding="UTF-8" standalone="no"?>
<svg
   width="32"
   height="32"
   viewBox="0 0 32 32"
   fill="none"
   version="1.1"
   id="svg48"
   sodipodi:docname="grimacing_face_color.svg"
   inkscape:version="1.4.1 (1:1.4.1+202503302257+93de688d07)"
   xmlns:inkscape="http://www.inkscape.org/namespaces/inkscape"
   xmlns:sodipodi="http://sodipodi.sourceforge.net/DTD/sodipodi-0.dtd"
   xmlns="http://www.w3.org/2000/svg"
   xmlns:svg="http://www.w3.org/2000/svg">
  <sodipodi:namedview
     id="namedview48"
     pagecolor="#505050"
     bordercolor="#eeeeee"
     borderopacity="1"
     inkscape:showpageshadow="0"
     inkscape:pageopacity="0"
     inkscape:pagecheckerboard="0"
     inkscape:deskcolor="#505050"
     inkscape:zoom="17.743961"
     inkscape:cx="12.680371"
     inkscape:cy="14.681051"
     inkscape:window-width="1920"
     inkscape:window-height="1011"
     inkscape:window-x="0"
     inkscape:window-y="32"
     inkscape:window-maximized="1"
     inkscape:current-layer="svg48" />
  <path
     d="M15.9989 29.9978C25.3333 29.9978 29.9978 23.7303 29.9978 15.9989C29.9978 8.26751 25.3333 2 15.9989 2C6.66443 2 2 8.26751 2 15.9989C2 23.7303 6.66443 29.9978 15.9989 29.9978Z"
     fill="url(#paint0_radial_30_60)"
     id="path1" />
  <path
     d="M15.9989 29.9978C25.3333 29.9978 29.9978 23.7303 29.9978 15.9989C29.9978 8.26751 25.3333 2 15.9989 2C6.66443 2 2 8.26751 2 15.9989C2 23.7303 6.66443 29.9978 15.9989 29.9978Z"
     fill="url(#paint1_radial_30_60)"
     id="path2" />
  <path
     d="M15.9989 29.9978C25.3333 29.9978 29.9978 23.7303 29.9978 15.9989C29.9978 8.26751 25.3333 2 15.9989 2C6.66443 2 2 8.26751 2 15.9989C2 23.7303 6.66443 29.9978 15.9989 29.9978Z"
     fill="url(#paint2_radial_30_60)"
     id="path3" />
  <path
     d="M15.9989 29.9978C25.3333 29.9978 29.9978 23.7303 29.9978 15.9989C29.9978 8.26751 25.3333 2 15.9989 2C6.66443 2 2 8.26751 2 15.9989C2 23.7303 6.66443 29.9978 15.9989 29.9978Z"
     fill="url(#paint3_radial_30_60)"
     fill-opacity="0.6"
     id="path4" />
  <path
     d="M15.9989 29.9978C25.3333 29.9978 29.9978 23.7303 29.9978 15.9989C29.9978 8.26751 25.3333 2 15.9989 2C6.66443 2 2 8.26751 2 15.9989C2 23.7303 6.66443 29.9978 15.9989 29.9978Z"
     fill="url(#paint4_radial_30_60)"
     id="path5" />
  <path
     d="M15.9989 29.9978C25.3333 29.9978 29.9978 23.7303 29.9978 15.9989C29.9978 8.26751 25.3333 2 15.9989 2C6.66443 2 2 8.26751 2 15.9989C2 23.7303 6.66443 29.9978 15.9989 29.9978Z"
     fill="url(#paint5_radial_30_60)"
     id="path6" />
  <path
     d="M15.9989 29.9978C25.3333 29.9978 29.9978 23.7303 29.9978 15.9989C29.9978 8.26751 25.3333 2 15.9989 2C6.66443 2 2 8.26751 2 15.9989C2 23.7303 6.66443 29.9978 15.9989 29.9978Z"
     fill="url(#paint6_radial_30_60)"
     id="path7" />
  <path
     d="M15.9989 29.9978C25.3333 29.9978 29.9978 23.7303 29.9978 15.9989C29.9978 8.26751 25.3333 2 15.9989 2C6.66443 2 2 8.26751 2 15.9989C2 23.7303 6.66443 29.9978 15.9989 29.9978Z"
     fill="url(#paint7_radial_30_60)"
     id="path8" />
  <circle
     cx="9"
     cy="14.872976"
     r="5"
     fill="url(#paint8_radial_30_60)"
     id="circle8"
     style="fill:url(#paint8_radial_30_60)" />
  <circle
     cx="19.5"
     cy="15.372976"
     r="4.5"
     fill="url(#paint9_radial_30_60)"
     id="circle9"
     style="fill:url(#paint9_radial_30_60)" />
  <path
     d="m 10.5,17.872976 c 2.4853,0 4.5,-2.0147 4.5,-4.5 0,-2.48528 -2.0147,-4.4999997 -4.5,-4.4999997 -2.48528,0 -4.5,2.0147197 -4.5,4.4999997 0,2.4853 2.01472,4.5 4.5,4.5 z"
     fill="#ffffff"
     id="path9" />
  <path
     d="m 21.5,17.872976 c 2.4853,0 4.5,-2.0147 4.5,-4.5 0,-2.48528 -2.0147,-4.4999997 -4.5,-4.4999997 -2.4853,0 -4.5,2.0147197 -4.5,4.4999997 0,2.4853 2.0147,4.5 4.5,4.5 z"
     fill="#ffffff"
     id="path10" />
  <path
     d="m 12,15.872976 c 1.1046,0 2,-0.8954 2,-2 0,-1.1046 -0.8954,-2 -2,-2 -1.1046,0 -2,0.8954 -2,2 0,1.1046 0.8954,2 2,2 z"
     fill="url(#paint10_linear_30_60)"
     id="path11"
     style="fill:url(#paint10_linear_30_60)" />
  <path
     d="m 20,15.872976 c 1.1046,0 2,-0.8954 2,-2 0,-1.1046 -0.8954,-2 -2,-2 -1.1046,0 -2,0.8954 -2,2 0,1.1046 0.8954,2 2,2 z"
     fill="url(#paint11_linear_30_60)"
     id="path12"
     style="fill:url(#paint11_linear_30_60)" />
  <rect
     x="8"
     y="19"
     width="16"
     height="6"
     rx="3"
     fill="url(#paint12_radial_30_60)"
     id="rect12" />
  <path
     fill-rule="evenodd"
     clip-rule="evenodd"
     d="M23 19.7639V20.5C23 21.0523 22.5523 21.5 22 21.5H10C9.44772 21.5 9 21.0523 9 20.5V19.7639C9.53076 19.2889 10.2316 19 11 19H21C21.7684 19 22.4692 19.2889 23 19.7639Z"
     fill="url(#paint13_radial_30_60)"
     id="path13" />
  <path
     fill-rule="evenodd"
     clip-rule="evenodd"
     d="M23 19.7639V20.5C23 21.0523 22.5523 21.5 22 21.5H10C9.44772 21.5 9 21.0523 9 20.5V19.7639C9.53076 19.2889 10.2316 19 11 19H21C21.7684 19 22.4692 19.2889 23 19.7639Z"
     fill="url(#paint14_linear_30_60)"
     id="path14" />
  <path
     fill-rule="evenodd"
     clip-rule="evenodd"
     d="M23 24.2361C22.4692 24.7111 21.7684 25 21 25H11C10.2316 25 9.53076 24.7111 9 24.2361V23.5C9 22.9477 9.44772 22.5 10 22.5H22C22.5523 22.5 23 22.9477 23 23.5V24.2361Z"
     fill="url(#paint15_radial_30_60)"
     id="path15" />
  <defs
     id="defs48">
    <radialGradient
       id="paint0_radial_30_60"
       cx="0"
       cy="0"
       r="1"
       gradientUnits="userSpaceOnUse"
       gradientTransform="translate(25.5 9) rotate(132.839) scale(37.5033)">
      <stop
         stop-color="#FFF478"
         id="stop15" />
      <stop
         offset="0.474827"
         stop-color="#FFB02E"
         id="stop16" />
      <stop
         offset="1"
         stop-color="#F70A8D"
         id="stop17" />
    </radialGradient>
    <radialGradient
       id="paint1_radial_30_60"
       cx="0"
       cy="0"
       r="1"
       gradientUnits="userSpaceOnUse"
       gradientTransform="translate(25.5 9) rotate(131.878) scale(38.9487)">
      <stop
         stop-color="#FFF478"
         id="stop18" />
      <stop
         offset="0.474827"
         stop-color="#FFB02E"
         id="stop19" />
      <stop
         offset="1"
         stop-color="#F70A8D"
         id="stop20" />
    </radialGradient>
    <radialGradient
       id="paint2_radial_30_60"
       cx="0"
       cy="0"
       r="1"
       gradientUnits="userSpaceOnUse"
       gradientTransform="translate(16 12.5) rotate(101.31) scale(17.8466 22.8581)">
      <stop
         offset="0.787821"
         stop-color="#F59639"
         stop-opacity="0"
         id="stop21" />
      <stop
         offset="0.972509"
         stop-color="#FF7DCE"
         id="stop22" />
    </radialGradient>
    <radialGradient
       id="paint3_radial_30_60"
       cx="0"
       cy="0"
       r="1"
       gradientUnits="userSpaceOnUse"
       gradientTransform="translate(18 14) rotate(135) scale(41.0122)">
      <stop
         offset="0.314853"
         stop-opacity="0"
         id="stop23" />
      <stop
         offset="1"
         id="stop24" />
    </radialGradient>
    <radialGradient
       id="paint4_radial_30_60"
       cx="0"
       cy="0"
       r="1"
       gradientUnits="userSpaceOnUse"
       gradientTransform="translate(16 17) rotate(77.692) scale(28.1469)">
      <stop
         offset="0.507903"
         stop-color="#7D6133"
         stop-opacity="0"
         id="stop25" />
      <stop
         offset="1"
         stop-color="#715B32"
         id="stop26" />
    </radialGradient>
    <radialGradient
       id="paint5_radial_30_60"
       cx="0"
       cy="0"
       r="1"
       gradientUnits="userSpaceOnUse"
       gradientTransform="translate(16.5 16.5) rotate(55.7131) scale(13.3135 9.65032)">
      <stop
         stop-color="#FFB849"
         id="stop27" />
      <stop
         offset="1"
         stop-color="#FFB847"
         stop-opacity="0"
         id="stop28" />
    </radialGradient>
    <radialGradient
       id="paint6_radial_30_60"
       cx="0"
       cy="0"
       r="1"
       gradientUnits="userSpaceOnUse"
       gradientTransform="translate(20.5 18) rotate(9.86581) scale(11.6726)">
      <stop
         stop-color="#FFA64B"
         id="stop29" />
      <stop
         offset="0.900412"
         stop-color="#FFAE46"
         stop-opacity="0"
         id="stop30" />
    </radialGradient>
    <radialGradient
       id="paint7_radial_30_60"
       cx="0"
       cy="0"
       r="1"
       gradientUnits="userSpaceOnUse"
       gradientTransform="translate(17.5 15) rotate(43.9708) scale(59.0529)">
      <stop
         offset="0.185425"
         stop-opacity="0"
         id="stop31" />
      <stop
         offset="1"
         stop-opacity="0.4"
         id="stop32" />
    </radialGradient>
    <radialGradient
       id="paint8_radial_30_60"
       cx="0"
       cy="0"
       r="1"
       gradientUnits="userSpaceOnUse"
       gradientTransform="matrix(-6.8888888,6.8888888,-3.5654587,-3.5654587,12.8889,10.984086)">
      <stop
         stop-color="#392108"
         id="stop33" />
      <stop
         offset="1"
         stop-color="#C87928"
         stop-opacity="0"
         id="stop34" />
    </radialGradient>
    <radialGradient
       id="paint9_radial_30_60"
       cx="0"
       cy="0"
       r="1"
       gradientUnits="userSpaceOnUse"
       gradientTransform="matrix(-5.7500014,5.7500014,-3.2459666,-3.2459666,23,11.872976)">
      <stop
         stop-color="#392108"
         id="stop35" />
      <stop
         offset="1"
         stop-color="#C87928"
         stop-opacity="0"
         id="stop36" />
    </radialGradient>
    <linearGradient
       id="paint10_linear_30_60"
       x1="20.6154"
       y1="10"
       x2="19.9265"
       y2="14.0302"
       gradientUnits="userSpaceOnUse"
       gradientTransform="translate(0,1.8729763)">
      <stop
         stop-color="#553B3E"
         id="stop37" />
      <stop
         offset="1"
         stop-color="#3D2432"
         id="stop38" />
    </linearGradient>
    <linearGradient
       id="paint11_linear_30_60"
       x1="20.6154"
       y1="10"
       x2="19.9265"
       y2="14.0302"
       gradientUnits="userSpaceOnUse"
       gradientTransform="translate(0,1.8729763)">
      <stop
         stop-color="#553B3E"
         id="stop39" />
      <stop
         offset="1"
         stop-color="#3D2432"
         id="stop40" />
    </linearGradient>
    <radialGradient
       id="paint12_radial_30_60"
       cx="0"
       cy="0"
       r="1"
       gradientUnits="userSpaceOnUse"
       gradientTransform="translate(16 25) rotate(-90) scale(7.5 20)">
      <stop
         stop-color="#F70A8D"
         id="stop41" />
      <stop
         offset="1"
         stop-color="#89029C"
         id="stop42" />
    </radialGradient>
    <radialGradient
       id="paint13_radial_30_60"
       cx="0"
       cy="0"
       r="1"
       gradientUnits="userSpaceOnUse"
       gradientTransform="translate(20.2778 18) rotate(141.546) scale(8.44211 8.28716)">
      <stop
         stop-color="white"
         id="stop43" />
      <stop
         offset="1"
         stop-color="#ECCDFF"
         id="stop44" />
    </radialGradient>
    <linearGradient
       id="paint14_linear_30_60"
       x1="16"
       y1="21"
       x2="16"
       y2="21.75"
       gradientUnits="userSpaceOnUse">
      <stop
         stop-color="#E181F4"
         stop-opacity="0"
         id="stop45" />
      <stop
         offset="1"
         stop-color="#E181F4"
         id="stop46" />
    </linearGradient>
    <radialGradient
       id="paint15_radial_30_60"
       cx="0"
       cy="0"
       r="1"
       gradientUnits="userSpaceOnUse"
       gradientTransform="translate(20.2778 21.5) rotate(141.546) scale(8.44211 8.28716)">
      <stop
         stop-color="white"
         id="stop47" />
      <stop
         offset="1"
         stop-color="#ECCDFF"
         id="stop48" />
    </radialGradient>
    <linearGradient
       id="paint19_linear_18_28727"
       x1="18.625"
       y1="13.25"
       x2="20.8125"
       y2="27.375"
       gradientUnits="userSpaceOnUse"
       gradientTransform="translate(12.999998)">
      <stop
         offset="0.428328"
         stop-color="white"
         id="stop65" />
      <stop
         offset="0.871456"
         stop-color="white"
         stop-opacity="0"
         id="stop66" />
    </linearGradient>
    <radialGradient
       id="paint18_radial_18_28727"
       cx="0"
       cy="0"
       r="1"
       gradientUnits="userSpaceOnUse"
       gradientTransform="matrix(1.0800025,-0.54000239,0.54000239,1.0800025,29.927898,6.00004)">
      <stop
         offset="0.311386"
         stop-color="#95989C"
         id="stop63" />
      <stop
         offset="1"
         stop-color="#616A71"
         id="stop64" />
    </radialGradient>
    <radialGradient
       id="paint17_radial_18_28727"
       cx="0"
       cy="0"
       r="1"
       gradientUnits="userSpaceOnUse"
       gradientTransform="matrix(1.0800025,-0.54000239,0.54000239,1.0800025,27.037798,6.00004)">
      <stop
         offset="0.311386"
         stop-color="#95989C"
         id="stop61" />
      <stop
         offset="1"
         stop-color="#616A71"
         id="stop62" />
    </radialGradient>
    <radialGradient
       id="paint16_radial_18_28727"
       cx="0"
       cy="0"
       r="1"
       gradientUnits="userSpaceOnUse"
       gradientTransform="matrix(1.0800025,-0.54000239,0.54000239,1.0800025,31.527698,4.08)">
      <stop
         offset="0.311386"
         stop-color="#95989C"
         id="stop59" />
      <stop
         offset="1"
         stop-color="#616A71"
         id="stop60" />
    </radialGradient>
    <radialGradient
       id="paint15_radial_18_28727"
       cx="0"
       cy="0"
       r="1"
       gradientUnits="userSpaceOnUse"
       gradientTransform="matrix(1.0800025,-0.54000239,0.54000239,1.0800025,28.487798,4.08)">
      <stop
         offset="0.311386"
         stop-color="#95989C"
         id="stop57" />
      <stop
         offset="1"
         stop-color="#616A71"
         id="stop58" />
    </radialGradient>
    <radialGradient
       id="paint14_radial_18_28727"
       cx="0"
       cy="0"
       r="1"
       gradientUnits="userSpaceOnUse"
       gradientTransform="matrix(1.0800034,-0.54000051,0.54000051,1.0800034,25.447798,4.08)">
      <stop
         offset="0.311386"
         stop-color="#95989C"
         id="stop55" />
      <stop
         offset="1"
         stop-color="#616A71"
         id="stop56" />
    </radialGradient>
    <linearGradient
       id="paint13_linear_18_28727"
       x1="15.25"
       y1="28.1875"
       x2="15.25"
       y2="25.3125"
       gradientUnits="userSpaceOnUse"
       gradientTransform="translate(12.999998)">
      <stop
         offset="0.163044"
         stop-color="#C0DFF3"
         id="stop53" />
      <stop
         offset="1"
         stop-color="#BEDFF5"
         stop-opacity="0"
         id="stop54" />
    </linearGradient>
    <linearGradient
       id="paint12_linear_18_28727"
       x1="10.4054"
       y1="22.2225"
       x2="21.25"
       y2="22.2225"
       gradientUnits="userSpaceOnUse"
       gradientTransform="translate(12.999998)">
      <stop
         stop-color="#CBD0D5"
         id="stop49" />
      <stop
         offset="0.308412"
         stop-color="#C3CAD1"
         id="stop50" />
      <stop
         offset="0.729128"
         stop-color="#DEE5EB"
         id="stop51" />
      <stop
         offset="1"
         stop-color="#EAEFF5"
         id="stop52" />
    </linearGradient>
    <linearGradient
       id="paint11_linear_18_28727"
       x1="15.5625"
       y1="8.125"
       x2="15.5625"
       y2="6.9375"
       gradientUnits="userSpaceOnUse"
       gradientTransform="translate(12.999998)">
      <stop
         offset="0.342105"
         stop-color="#9CC0D6"
         id="stop47-3" />
      <stop
         offset="1"
         stop-color="#9CC0D6"
         stop-opacity="0"
         id="stop48-6" />
    </linearGradient>
    <radialGradient
       id="paint10_radial_18_28727"
       cx="0"
       cy="0"
       r="1"
       gradientUnits="userSpaceOnUse"
       gradientTransform="matrix(-2.2500341,4.4287358,-3.864812,-1.9635308,23.687498,4.79)">
      <stop
         offset="0.180585"
         stop-color="#B8C0C7"
         id="stop45-7" />
      <stop
         offset="1"
         stop-color="#ACB2B7"
         stop-opacity="0"
         id="stop46-5" />
    </radialGradient>
    <radialGradient
       id="paint9_radial_18_28727"
       cx="0"
       cy="0"
       r="1"
       gradientUnits="userSpaceOnUse"
       gradientTransform="matrix(0,2.125,-5.44775,0,32.687498,4.4375)">
      <stop
         stop-color="#D9DEE3"
         id="stop43-3" />
      <stop
         offset="1"
         stop-color="#DBE0E6"
         stop-opacity="0"
         id="stop44-5" />
    </radialGradient>
    <radialGradient
       id="paint8_radial_18_28727"
       cx="0"
       cy="0"
       r="1"
       gradientUnits="userSpaceOnUse"
       gradientTransform="matrix(0,3.0625,-9.96954,0,29.002798,8.625)">
      <stop
         stop-color="#8CAFC5"
         id="stop41-6" />
      <stop
         offset="1"
         stop-color="#9ABDD2"
         stop-opacity="0"
         id="stop42-2" />
    </radialGradient>
    <linearGradient
       id="paint7_linear_18_28727"
       x1="14.0625"
       y1="7.9375"
       x2="14.0625"
       y2="5.84375"
       gradientUnits="userSpaceOnUse"
       gradientTransform="translate(12.999998)">
      <stop
         stop-color="#8699A7"
         id="stop39-9" />
      <stop
         offset="1"
         stop-color="#839BAA"
         stop-opacity="0"
         id="stop40-1" />
    </linearGradient>
    <linearGradient
       id="paint6_linear_18_28727"
       x1="8.8502197"
       y1="7.5799999"
       x2="23.155399"
       y2="7.5799999"
       gradientUnits="userSpaceOnUse"
       gradientTransform="translate(12.999998)">
      <stop
         stop-color="#949496"
         id="stop37-2" />
      <stop
         offset="1"
         stop-color="#C0C2C5"
         id="stop38-7" />
    </linearGradient>
    <linearGradient
       id="paint5_linear_18_28727"
       x1="16.0079"
       y1="11.35"
       x2="16.0079"
       y2="9.4649601"
       gradientUnits="userSpaceOnUse"
       gradientTransform="translate(12.999998)">
      <stop
         stop-color="#879EAE"
         id="stop35-0" />
      <stop
         offset="0.127996"
         stop-color="#708C9E"
         stop-opacity="0"
         id="stop36-9" />
    </linearGradient>
    <linearGradient
       id="paint4_linear_18_28727"
       x1="16.0079"
       y1="7.5799599"
       x2="16.0079"
       y2="11.35"
       gradientUnits="userSpaceOnUse"
       gradientTransform="translate(12.999998)">
      <stop
         stop-color="#879EAE"
         id="stop33-3" />
      <stop
         offset="0.127996"
         stop-color="#708C9E"
         stop-opacity="0"
         id="stop34-6" />
    </linearGradient>
    <linearGradient
       id="paint3_linear_18_28727"
       x1="10.4879"
       y1="11.35"
       x2="21.527901"
       y2="11.35"
       gradientUnits="userSpaceOnUse"
       gradientTransform="translate(12.999998)">
      <stop
         stop-color="#949BA0"
         id="stop27-0" />
      <stop
         offset="0.0860131"
         stop-color="#A1ADB5"
         id="stop28-6" />
      <stop
         offset="0.374736"
         stop-color="#92A3AF"
         id="stop29-2" />
      <stop
         offset="0.703087"
         stop-color="#C0CDD6"
         id="stop30-6" />
      <stop
         offset="0.912553"
         stop-color="#C4D0D8"
         id="stop31-1" />
      <stop
         offset="1"
         stop-color="#B1B8BD"
         id="stop32-8" />
    </linearGradient>
    <linearGradient
       id="paint2_linear_18_28727"
       x1="8.9375"
       y1="18.1875"
       x2="11.3125"
       y2="18.625"
       gradientUnits="userSpaceOnUse"
       gradientTransform="translate(12.999998)">
      <stop
         offset="0.329358"
         stop-color="#C1D9F0"
         id="stop25-7" />
      <stop
         offset="0.703119"
         stop-color="#C6E4FA"
         stop-opacity="0"
         id="stop26-9" />
    </linearGradient>
    <linearGradient
       id="paint1_linear_18_28727"
       x1="23.4375"
       y1="18.8125"
       x2="20.9375"
       y2="19.25"
       gradientUnits="userSpaceOnUse"
       gradientTransform="translate(12.999998)">
      <stop
         offset="0.267435"
         stop-color="#BCE2FD"
         id="stop23-2" />
      <stop
         offset="0.660097"
         stop-color="#C6E4FA"
         stop-opacity="0"
         id="stop24-0" />
    </linearGradient>
    <radialGradient
       id="paint0_radial_18_28727"
       cx="0"
       cy="0"
       r="1"
       gradientUnits="userSpaceOnUse"
       gradientTransform="matrix(-1.2500127,21.249966,-6.1165466,-0.35980107,23.874998,17.875)">
      <stop
         stop-color="#B9E5FC"
         id="stop21-2" />
      <stop
         offset="1"
         stop-color="#CBEBFF"
         stop-opacity="0"
         id="stop22-3" />
    </radialGradient>
    <radialGradient
       id="paint16_radial_18_28727-9"
       cx="0"
       cy="0"
       r="1"
       gradientUnits="userSpaceOnUse"
       gradientTransform="matrix(0.26104723,0.52209336,-0.52209336,0.26104723,14.589041,7.1594023)">
      <stop
         offset="0.31138599"
         stop-color="#95989C"
         id="stop59-4"
         style="stop-color:#ffffff;stop-opacity:1;" />
      <stop
         offset="1"
         stop-color="#616A71"
         id="stop60-7"
         style="stop-color:#b2b4b5;stop-opacity:1;" />
    </radialGradient>
    <radialGradient
       id="paint16_radial_18_28727-9-4"
       cx="0"
       cy="0"
       r="1"
       gradientUnits="userSpaceOnUse"
       gradientTransform="matrix(0.26104723,0.52209336,-0.52209336,0.26104723,16.112714,8.8604684)">
      <stop
         offset="0.31138599"
         stop-color="#95989C"
         id="stop59-4-5"
         style="stop-color:#ffffff;stop-opacity:1;" />
      <stop
         offset="1"
         stop-color="#616A71"
         id="stop60-7-0"
         style="stop-color:#b2b4b5;stop-opacity:1;" />
    </radialGradient>
    <radialGradient
       id="paint16_radial_18_28727-9-1"
       cx="0"
       cy="0"
       r="1"
       gradientUnits="userSpaceOnUse"
       gradientTransform="matrix(0.26104723,0.52209336,-0.52209336,0.26104723,17,7)">
      <stop
         offset="0.31138599"
         stop-color="#95989C"
         id="stop59-4-0"
         style="stop-color:#ffffff;stop-opacity:1;" />
      <stop
         offset="1"
         stop-color="#616A71"
         id="stop60-7-6"
         style="stop-color:#b2b4b5;stop-opacity:1;" />
    </radialGradient>
    <radialGradient
       id="paint16_radial_18_28727-9-0"
       cx="0"
       cy="0"
       r="1"
       gradientUnits="userSpaceOnUse"
       gradientTransform="matrix(0.26104723,0.52209336,-0.52209336,0.26104723,14,6)">
      <stop
         offset="0.31138599"
         stop-color="#95989C"
         id="stop59-4-6"
         style="stop-color:#ffffff;stop-opacity:1;" />
      <stop
         offset="1"
         stop-color="#616A71"
         id="stop60-7-1"
         style="stop-color:#b2b4b5;stop-opacity:1;" />
    </radialGradient>
    <radialGradient
       id="paint16_radial_18_28727-9-47"
       cx="0"
       cy="0"
       r="1"
       gradientUnits="userSpaceOnUse"
       gradientTransform="matrix(0.26104723,0.52209336,-0.52209336,0.26104723,12,7)">
      <stop
         offset="0.31138599"
         stop-color="#95989C"
         id="stop59-4-65"
         style="stop-color:#ffffff;stop-opacity:1;" />
      <stop
         offset="1"
         stop-color="#616A71"
         id="stop60-7-69"
         style="stop-color:#b2b4b5;stop-opacity:1;" />
    </radialGradient>
    <radialGradient
       id="paint16_radial_18_28727-9-45"
       cx="0"
       cy="0"
       r="1"
       gradientUnits="userSpaceOnUse"
       gradientTransform="matrix(0.26104723,0.52209336,-0.52209336,0.26104723,13,7)">
      <stop
         offset="0.31138599"
         stop-color="#95989C"
         id="stop59-4-2"
         style="stop-color:#ffffff;stop-opacity:1;" />
      <stop
         offset="1"
         stop-color="#616A71"
         id="stop60-7-5"
         style="stop-color:#b2b4b5;stop-opacity:1;" />
    </radialGradient>
    <radialGradient
       id="paint16_radial_18_28727-9-43"
       cx="0"
       cy="0"
       r="1"
       gradientUnits="userSpaceOnUse"
       gradientTransform="matrix(0.26104723,0.52209336,-0.52209336,0.26104723,14.437109,8.4096108)">
      <stop
         offset="0.31138599"
         stop-color="#95989C"
         id="stop59-4-07"
         style="stop-color:#ffffff;stop-opacity:1;" />
      <stop
         offset="1"
         stop-color="#616A71"
         id="stop60-7-8"
         style="stop-color:#b2b4b5;stop-opacity:1;" />
    </radialGradient>
    <radialGradient
       id="paint16_radial_18_28727-9-8"
       cx="0"
       cy="0"
       r="1"
       gradientUnits="userSpaceOnUse"
       gradientTransform="matrix(0.26104723,0.52209336,-0.52209336,0.26104723,16,6)">
      <stop
         offset="0.31138599"
         stop-color="#95989C"
         id="stop59-4-4"
         style="stop-color:#ffffff;stop-opacity:1;" />
      <stop
         offset="1"
         stop-color="#616A71"
         id="stop60-7-3"
         style="stop-color:#b2b4b5;stop-opacity:1;" />
    </radialGradient>
    <radialGradient
       id="paint16_radial_18_28727-9-9"
       cx="0"
       cy="0"
       r="1"
       gradientUnits="userSpaceOnUse"
       gradientTransform="matrix(0.26104723,0.52209336,-0.52209336,0.26104723,16.436088,7.6192485)">
      <stop
         offset="0.31138599"
         stop-color="#95989C"
         id="stop59-4-20"
         style="stop-color:#ffffff;stop-opacity:1;" />
      <stop
         offset="1"
         stop-color="#616A71"
         id="stop60-7-68"
         style="stop-color:#b2b4b5;stop-opacity:1;" />
    </radialGradient>
  </defs>
  <g
     id="g48"
     transform="matrix(-0.09588748,0.35785695,-0.35785695,-0.09588748,16.476664,-3.796013)"
     style="stroke-width:2.6992">
    <path
       d="m 33.597998,29.98 h -9.19 c -2.10002,0 -3.71002,-1.89 -3.36002,-3.96 l 2.44002,-14.66 h 11.03 l 2.44,14.65 c 0.34,2.08 -1.26,3.97 -3.36,3.97 z"
       fill="#d6f9ff"
       id="path1-7"
       style="stroke-width:2.6992" />
    <path
       d="m 33.597998,29.98 h -9.19 c -2.10002,0 -3.71002,-1.89 -3.36002,-3.96 l 2.44002,-14.66 h 11.03 l 2.44,14.65 c 0.34,2.08 -1.26,3.97 -3.36,3.97 z"
       fill="url(#paint0_radial_18_28727)"
       id="path2-5"
       style="fill:url(#paint0_radial_18_28727);stroke-width:2.6992" />
    <path
       d="m 33.597998,29.98 h -9.19 c -2.10002,0 -3.71002,-1.89 -3.36002,-3.96 l 2.44002,-14.66 h 11.03 l 2.44,14.65 c 0.34,2.08 -1.26,3.97 -3.36,3.97 z"
       fill="url(#paint1_linear_18_28727)"
       id="path3-9"
       style="fill:url(#paint1_linear_18_28727);stroke-width:2.6992" />
    <path
       d="m 33.597998,29.98 h -9.19 c -2.10002,0 -3.71002,-1.89 -3.36002,-3.96 l 2.44002,-14.66 h 11.03 l 2.44,14.65 c 0.34,2.08 -1.26,3.97 -3.36,3.97 z"
       fill="url(#paint2_linear_18_28727)"
       id="path4-2"
       style="fill:url(#paint2_linear_18_28727);stroke-width:2.6992" />
    <path
       d="m 34.527898,7.57996 h -11.04 V 11.35 h 11.04 z"
       fill="url(#paint3_linear_18_28727)"
       id="path5-2"
       style="fill:url(#paint3_linear_18_28727);stroke-width:2.6992" />
    <path
       d="m 34.527898,7.57996 h -11.04 V 11.35 h 11.04 z"
       fill="url(#paint4_linear_18_28727)"
       id="path6-8"
       style="fill:url(#paint4_linear_18_28727);stroke-width:2.6992" />
    <path
       d="m 34.527898,7.57996 h -11.04 V 11.35 h 11.04 z"
       fill="url(#paint5_linear_18_28727)"
       id="path7-9"
       style="fill:url(#paint5_linear_18_28727);stroke-width:2.6992" />
    <path
       d="m 32.507998,2 h -7.02 c -2.31,0 -4.03003,2.12 -3.56003,4.38 0.15,0.7 0.76,1.2 1.48003,1.2 h 11.19 c 0.71,0 1.33,-0.5 1.48,-1.2 0.47,-2.26 -1.26,-4.38 -3.57,-4.38 z"
       fill="url(#paint6_linear_18_28727)"
       id="path8-7"
       style="fill:url(#paint6_linear_18_28727);stroke-width:2.6992" />
    <path
       d="m 32.507998,2 h -7.02 c -2.31,0 -4.03003,2.12 -3.56003,4.38 0.15,0.7 0.76,1.2 1.48003,1.2 h 11.19 c 0.71,0 1.33,-0.5 1.48,-1.2 0.47,-2.26 -1.26,-4.38 -3.57,-4.38 z"
       fill="url(#paint7_linear_18_28727)"
       id="path9-3"
       style="fill:url(#paint7_linear_18_28727);stroke-width:2.6992" />
    <path
       d="m 32.507998,2 h -7.02 c -2.31,0 -4.03003,2.12 -3.56003,4.38 0.15,0.7 0.76,1.2 1.48003,1.2 h 11.19 c 0.71,0 1.33,-0.5 1.48,-1.2 0.47,-2.26 -1.26,-4.38 -3.57,-4.38 z"
       fill="url(#paint8_radial_18_28727)"
       id="path10-6"
       style="fill:url(#paint8_radial_18_28727);stroke-width:2.6992" />
    <path
       d="m 32.507998,2 h -7.02 c -2.31,0 -4.03003,2.12 -3.56003,4.38 0.15,0.7 0.76,1.2 1.48003,1.2 h 11.19 c 0.71,0 1.33,-0.5 1.48,-1.2 0.47,-2.26 -1.26,-4.38 -3.57,-4.38 z"
       fill="url(#paint9_radial_18_28727)"
       id="path11-1"
       style="fill:url(#paint9_radial_18_28727);stroke-width:2.6992" />
    <path
       d="m 32.507998,2 h -7.02 c -2.31,0 -4.03003,2.12 -3.56003,4.38 0.15,0.7 0.76,1.2 1.48003,1.2 h 11.19 c 0.71,0 1.33,-0.5 1.48,-1.2 0.47,-2.26 -1.26,-4.38 -3.57,-4.38 z"
       fill="url(#paint10_radial_18_28727)"
       id="path12-2"
       style="fill:url(#paint10_radial_18_28727);stroke-width:2.6992" />
    <path
       d="m 32.507998,2 h -7.02 c -2.31,0 -4.03003,2.12 -3.56003,4.38 0.15,0.7 0.76,1.2 1.48003,1.2 h 11.19 c 0.71,0 1.33,-0.5 1.48,-1.2 0.47,-2.26 -1.26,-4.38 -3.57,-4.38 z"
       fill="url(#paint11_linear_18_28727)"
       id="path13-9"
       style="fill:url(#paint11_linear_18_28727);stroke-width:2.6992" />
    <path
       d="m 32.707898,17.86 h -7.41 c -0.38,0 -0.71,0.28 -0.77,0.65 l -1.09,6.54 c -0.24,1.45 0.88,2.77 2.35,2.77 h 6.43 c 1.47,0 2.59,-1.32 2.35,-2.77 l -1.09,-6.54 c -0.07,-0.37 -0.39,-0.65 -0.77,-0.65 z"
       fill="url(#paint12_linear_18_28727)"
       id="path14-3"
       style="fill:url(#paint12_linear_18_28727);stroke-width:2.6992" />
    <path
       d="m 32.707898,17.86 h -7.41 c -0.38,0 -0.71,0.28 -0.77,0.65 l -1.09,6.54 c -0.24,1.45 0.88,2.77 2.35,2.77 h 6.43 c 1.47,0 2.59,-1.32 2.35,-2.77 l -1.09,-6.54 c -0.07,-0.37 -0.39,-0.65 -0.77,-0.65 z"
       fill="url(#paint13_linear_18_28727)"
       id="path15-1"
       style="fill:url(#paint13_linear_18_28727);stroke-width:2.6992" />
    <path
       d="m 25.987798,4.08 c 0.2982,0 0.54,-0.24177 0.54,-0.54 0,-0.29823 -0.2418,-0.54 -0.54,-0.54 -0.2983,0 -0.54,0.24177 -0.54,0.54 0,0.29823 0.2417,0.54 0.54,0.54 z"
       fill="url(#paint14_radial_18_28727)"
       id="path16"
       style="fill:url(#paint14_radial_18_28727);stroke-width:2.6992" />
    <path
       d="m 29.567798,3.54 c 0,0.29823 -0.2418,0.54 -0.54,0.54 -0.2982,0 -0.54,-0.24177 -0.54,-0.54 0,-0.29823 0.2418,-0.54 0.54,-0.54 0.2982,0 0.54,0.24177 0.54,0.54 z"
       fill="url(#paint15_radial_18_28727)"
       id="path17"
       style="fill:url(#paint15_radial_18_28727);stroke-width:2.6992" />
    <path
       d="m 32.067698,4.08 c 0.2982,0 0.54,-0.24177 0.54,-0.54 0,-0.29823 -0.2418,-0.54 -0.54,-0.54 -0.2982,0 -0.54,0.24177 -0.54,0.54 0,0.29823 0.2418,0.54 0.54,0.54 z"
       fill="url(#paint16_radial_18_28727)"
       id="path18"
       style="fill:url(#paint16_radial_18_28727);stroke-width:2.6992" />
    <path
       d="m 28.117798,5.46004 c 0,0.29824 -0.2417,0.54 -0.54,0.54 -0.2982,0 -0.54,-0.24176 -0.54,-0.54 0,-0.29823 0.2418,-0.54 0.54,-0.54 0.2983,0 0.54,0.24177 0.54,0.54 z"
       fill="url(#paint17_radial_18_28727)"
       id="path19"
       style="fill:url(#paint17_radial_18_28727);stroke-width:2.6992" />
    <path
       d="m 31.007898,5.46004 c 0,0.29824 -0.2418,0.54 -0.54,0.54 -0.2983,0 -0.54,-0.24176 -0.54,-0.54 0,-0.29823 0.2417,-0.54 0.54,-0.54 0.2982,0 0.54,0.24177 0.54,0.54 z"
       fill="url(#paint18_radial_18_28727)"
       id="path20"
       style="fill:url(#paint18_radial_18_28727);stroke-width:2.6992" />
    <path
       d="m 30.728398,14.0642 c -0.0897,-0.5659 0.2963,-1.0973 0.8621,-1.187 0.5658,-0.0897 1.0972,0.2963 1.1869,0.8621 l 2.0843,13.1468 c 0.0897,0.5658 -0.2962,1.0972 -0.862,1.1869 -0.5659,0.0897 -1.0973,-0.2963 -1.187,-0.8621 z"
       fill="url(#paint19_linear_18_28727)"
       id="path21"
       style="fill:url(#paint19_linear_18_28727);stroke-width:2.6992" />
  </g>
</svg>
