<?xml version="1.0" encoding="UTF-8" standalone="no"?>
<svg
   width="32"
   height="32"
   viewBox="0 0 32 32"
   fill="none"
   version="1.1"
   id="svg46"
   sodipodi:docname="maasim.svg"
   inkscape:version="1.4.1 (1:1.4.1+202503302257+93de688d07)"
   xmlns:inkscape="http://www.inkscape.org/namespaces/inkscape"
   xmlns:sodipodi="http://sodipodi.sourceforge.net/DTD/sodipodi-0.dtd"
   xmlns:xlink="http://www.w3.org/1999/xlink"
   xmlns="http://www.w3.org/2000/svg"
   xmlns:svg="http://www.w3.org/2000/svg">
  <sodipodi:namedview
     id="namedview46"
     pagecolor="#505050"
     bordercolor="#eeeeee"
     borderopacity="1"
     inkscape:showpageshadow="0"
     inkscape:pageopacity="0"
     inkscape:pagecheckerboard="0"
     inkscape:deskcolor="#505050"
     showgrid="false"
     inkscape:zoom="16"
     inkscape:cx="18.25"
     inkscape:cy="8.53125"
     inkscape:window-width="1920"
     inkscape:window-height="1011"
     inkscape:window-x="0"
     inkscape:window-y="32"
     inkscape:window-maximized="1"
     inkscape:current-layer="svg46" />
  <path
     d="m 16.201889,30.143971 c 9.3344,0 13.9989,-6.2675 13.9989,-13.9989 0,-7.7313904 -4.6645,-13.9989004 -13.9989,-13.9989004 -9.3344702,0 -13.9989002,6.26751 -13.9989002,13.9989004 0,7.7314 4.66443,13.9989 13.9989002,13.9989 z"
     fill="url(#paint0_radial_31_111)"
     id="path1"
     style="fill:url(#paint0_radial_31_111)" />
  <path
     d="m 16.201889,30.143971 c 9.3344,0 13.9989,-6.2675 13.9989,-13.9989 0,-7.7313904 -4.6645,-13.9989004 -13.9989,-13.9989004 -9.3344702,0 -13.9989002,6.26751 -13.9989002,13.9989004 0,7.7314 4.66443,13.9989 13.9989002,13.9989 z"
     fill="url(#paint1_radial_31_111)"
     id="path2"
     style="fill:url(#paint1_radial_31_111)" />
  <path
     d="m 16.201889,30.143971 c 9.3344,0 13.9989,-6.2675 13.9989,-13.9989 0,-7.7313904 -4.6645,-13.9989004 -13.9989,-13.9989004 -9.3344702,0 -13.9989002,6.26751 -13.9989002,13.9989004 0,7.7314 4.66443,13.9989 13.9989002,13.9989 z"
     fill="url(#paint2_radial_31_111)"
     fill-opacity="0.6"
     id="path3"
     style="fill:url(#paint2_radial_31_111)" />
  <path
     d="m 10.702989,5.6461706 c 0,0 -0.5,3 -4.0000002,3"
     stroke="url(#paint7_linear_31_111)"
     stroke-width="1.25"
     stroke-linecap="round"
     stroke-linejoin="round"
     id="path8"
     style="stroke:url(#paint7_linear_31_111)" />
  <path
     d="m 10.702989,5.6461706 c 0,0 -0.5,3 -4.0000002,3"
     stroke="url(#paint8_radial_31_111)"
     stroke-width="1.25"
     stroke-linecap="round"
     stroke-linejoin="round"
     id="path9-6"
     style="stroke:url(#paint8_radial_31_111)" />
  <path
     d="m 21.702989,5.6461706 c 0,0 0.5,3 4,3"
     stroke="url(#paint9_radial_31_111)"
     stroke-width="1.25"
     stroke-linecap="round"
     stroke-linejoin="round"
     id="path10-4"
     style="stroke:url(#paint9_radial_31_111)" />
  <g
     filter="url(#filter1_f_31_1661)"
     id="g14"
     transform="rotate(-15,11.991619,15.228675)">
    <path
       d="m 21.959,19.3275 c 0.494,0.247 1.0947,0.0468 1.3417,-0.4472 0.247,-0.494 0.0467,-1.0947 -0.4472,-1.3416 L 20.647,16.4354 h -3.2408 c 9e-4,0.3779 0.2147,0.7231 0.5528,0.8921 z"
       fill="url(#paint12_radial_31_1661)"
       id="path13"
       style="fill:url(#radialGradient2)" />
    <path
       d="m 21.959,13.5433 c 0.494,-0.247 1.0947,-0.0468 1.3417,0.4472 0.247,0.494 0.0467,1.0947 -0.4472,1.3416 l -2.2065,1.1033 h -3.2408 c 9e-4,-0.3779 0.2147,-0.7231 0.5528,-0.8921 z"
       fill="url(#paint13_radial_31_1661)"
       id="path14"
       style="fill:url(#radialGradient3)" />
  </g>
  <path
     d="m 23.125437,16.035653 c 0.540999,0.110753 1.069415,-0.238098 1.180142,-0.779193 0.110727,-0.541096 -0.238124,-1.069512 -0.779194,-1.180143 l -2.41687,-0.494621 -3.130276,0.838755 c 0.09858,0.364816 0.394536,0.642892 0.764856,0.718627 z"
     fill="url(#paint14_linear_31_1661)"
     id="path15"
     style="fill:url(#linearGradient2)" />
  <path
     d="m 21.628427,10.448739 c 0.413143,-0.366415 1.04519,-0.328509 1.41163,0.08473 0.366441,0.413239 0.328535,1.045286 -0.08473,1.41163 l -1.84576,1.636789 -3.130276,0.838755 c -0.09703,-0.36523 0.02023,-0.754029 0.303071,-1.004777 z"
     fill="url(#paint15_linear_31_1661)"
     id="path16"
     style="fill:url(#linearGradient1)" />
  <defs
     id="defs46">
    <radialGradient
       id="paint0_radial_23_431"
       cx="0"
       cy="0"
       r="1"
       gradientUnits="userSpaceOnUse"
       gradientTransform="matrix(-25.500016,27.49994,-27.49994,-25.500016,25.5,9)">
      <stop
         stop-color="#FFF478"
         id="stop15" />
      <stop
         offset="0.474827"
         stop-color="#FFB02E"
         id="stop16" />
      <stop
         offset="1"
         stop-color="#F70A8D"
         id="stop17" />
    </radialGradient>
    <radialGradient
       id="paint1_radial_23_431"
       cx="0"
       cy="0"
       r="1"
       gradientUnits="userSpaceOnUse"
       gradientTransform="translate(25.5 9) rotate(131.878) scale(38.9487)">
      <stop
         stop-color="#FFF478"
         id="stop18" />
      <stop
         offset="0.474827"
         stop-color="#FFB02E"
         id="stop19" />
      <stop
         offset="1"
         stop-color="#F70A8D"
         id="stop20" />
    </radialGradient>
    <radialGradient
       id="paint2_radial_23_431"
       cx="0"
       cy="0"
       r="1"
       gradientUnits="userSpaceOnUse"
       gradientTransform="translate(16 12.5) rotate(101.31) scale(17.8466 22.8581)">
      <stop
         offset="0.787821"
         stop-color="#F59639"
         stop-opacity="0"
         id="stop21" />
      <stop
         offset="0.972509"
         stop-color="#FF7DCE"
         id="stop22" />
    </radialGradient>
    <radialGradient
       id="paint3_radial_23_431"
       cx="0"
       cy="0"
       r="1"
       gradientUnits="userSpaceOnUse"
       gradientTransform="translate(18 14) rotate(135) scale(41.0122)">
      <stop
         offset="0.314853"
         stop-opacity="0"
         id="stop23" />
      <stop
         offset="1"
         id="stop24" />
    </radialGradient>
    <radialGradient
       id="paint4_radial_23_431"
       cx="0"
       cy="0"
       r="1"
       gradientUnits="userSpaceOnUse"
       gradientTransform="translate(16 17) rotate(77.692) scale(28.1469)">
      <stop
         offset="0.507903"
         stop-color="#7D6133"
         stop-opacity="0"
         id="stop25" />
      <stop
         offset="1"
         stop-color="#715B32"
         id="stop26" />
    </radialGradient>
    <radialGradient
       id="paint5_radial_23_431"
       cx="0"
       cy="0"
       r="1"
       gradientUnits="userSpaceOnUse"
       gradientTransform="translate(16.5 16.5) rotate(55.7131) scale(13.3135 9.65032)">
      <stop
         stop-color="#FFB849"
         id="stop27" />
      <stop
         offset="1"
         stop-color="#FFB847"
         stop-opacity="0"
         id="stop28" />
    </radialGradient>
    <radialGradient
       id="paint6_radial_23_431"
       cx="0"
       cy="0"
       r="1"
       gradientUnits="userSpaceOnUse"
       gradientTransform="translate(20.5 18) rotate(9.86581) scale(11.6726)">
      <stop
         stop-color="#FFA64B"
         id="stop29" />
      <stop
         offset="0.900412"
         stop-color="#FFAE46"
         stop-opacity="0"
         id="stop30" />
    </radialGradient>
    <radialGradient
       id="paint7_radial_23_431"
       cx="0"
       cy="0"
       r="1"
       gradientUnits="userSpaceOnUse"
       gradientTransform="translate(17.5 15) rotate(43.9708) scale(59.0529)">
      <stop
         offset="0.185425"
         stop-opacity="0"
         id="stop31" />
      <stop
         offset="1"
         stop-opacity="0.4"
         id="stop32" />
    </radialGradient>
    <linearGradient
       id="paint8_linear_23_431"
       x1="13.3077"
       y1="12"
       x2="11.4078"
       y2="16.4092"
       gradientUnits="userSpaceOnUse">
      <stop
         stop-color="#553B3E"
         id="stop33" />
      <stop
         offset="1"
         stop-color="#3D2432"
         id="stop34" />
    </linearGradient>
    <radialGradient
       id="paint9_radial_23_431"
       cx="0"
       cy="0"
       r="1"
       gradientUnits="userSpaceOnUse"
       gradientTransform="translate(21 15) rotate(90) scale(4 5.85926)">
      <stop
         offset="0.337213"
         stop-color="#4D274B"
         id="stop35" />
      <stop
         offset="0.628228"
         stop-color="#514047"
         id="stop36" />
      <stop
         offset="1"
         stop-color="#4E2553"
         id="stop37" />
      <stop
         offset="1"
         stop-color="#4A342F"
         id="stop38" />
    </radialGradient>
    <linearGradient
       id="paint10_linear_23_431"
       x1="21.8333"
       y1="12.4"
       x2="21.8333"
       y2="10.6"
       gradientUnits="userSpaceOnUse">
      <stop
         offset="0.0299084"
         stop-color="#524049"
         id="stop39" />
      <stop
         offset="1"
         stop-color="#4A2C42"
         id="stop40" />
    </linearGradient>
    <linearGradient
       id="paint11_linear_23_431"
       x1="6.83322"
       y1="10.4"
       x2="6.83322"
       y2="8.6"
       gradientUnits="userSpaceOnUse">
      <stop
         offset="0.0299084"
         stop-color="#524049"
         id="stop41" />
      <stop
         offset="1"
         stop-color="#4A2C42"
         id="stop42" />
    </linearGradient>
    <radialGradient
       id="paint12_radial_23_431"
       cx="0"
       cy="0"
       r="1"
       gradientUnits="userSpaceOnUse"
       gradientTransform="matrix(0,-8.55556,17.1111,0,16,27.5556)">
      <stop
         stop-color="#F70A8D"
         id="stop43" />
      <stop
         offset="1"
         stop-color="#89029C"
         id="stop44" />
    </radialGradient>
    <linearGradient
       id="paint13_linear_23_431"
       x1="16"
       y1="19"
       x2="16"
       y2="20.5"
       gradientUnits="userSpaceOnUse">
      <stop
         stop-color="#ECCDFF"
         id="stop45" />
      <stop
         offset="1"
         stop-color="white"
         id="stop46" />
    </linearGradient>
    <filter
       id="filter0_f_31_1661"
       x="7.5"
       y="12.9375"
       width="7.0002398"
       height="6.9958501"
       filterUnits="userSpaceOnUse"
       color-interpolation-filters="sRGB">
      <feFlood
         flood-opacity="0"
         result="BackgroundImageFix"
         id="feFlood25" />
      <feBlend
         mode="normal"
         in="SourceGraphic"
         in2="BackgroundImageFix"
         result="shape"
         id="feBlend25" />
      <feGaussianBlur
         stdDeviation="0.25"
         result="effect1_foregroundBlur_31_1661"
         id="feGaussianBlur25" />
    </filter>
    <radialGradient
       id="paint8_radial_31_1661"
       cx="0"
       cy="0"
       r="1"
       gradientUnits="userSpaceOnUse"
       gradientTransform="matrix(-2.625017,7.1249924,-9.3123714,-3.4308996,9.8385481,14.435514)">
      <stop
         stop-color="#9F5E0F"
         id="stop46-8" />
      <stop
         offset="0.889024"
         stop-color="#9F5E0F"
         stop-opacity="0"
         id="stop47" />
    </radialGradient>
    <radialGradient
       id="paint9_radial_31_1661"
       cx="0"
       cy="0"
       r="1"
       gradientUnits="userSpaceOnUse"
       gradientTransform="matrix(-2.625017,7.1249924,-9.3123714,-3.4308996,9.8385481,14.435514)">
      <stop
         stop-color="#9F5E0F"
         id="stop48" />
      <stop
         offset="0.889024"
         stop-color="#9F5E0F"
         stop-opacity="0"
         id="stop49" />
    </radialGradient>
    <linearGradient
       id="paint10_linear_31_1661"
       x1="10.5784"
       y1="19.7321"
       x2="8.0000296"
       y2="14.3883"
       gradientUnits="userSpaceOnUse"
       gradientTransform="rotate(15,19.93182,14.569045)">
      <stop
         offset="0.24955"
         stop-color="#482641"
         id="stop50" />
      <stop
         offset="0.406361"
         stop-color="#503A4A"
         id="stop51" />
      <stop
         offset="0.511203"
         stop-color="#482641"
         id="stop52" />
    </linearGradient>
    <linearGradient
       id="paint11_linear_31_1661"
       x1="8.8596201"
       y1="16.1385"
       x2="11.2502"
       y2="11.451"
       gradientUnits="userSpaceOnUse"
       gradientTransform="rotate(15,19.93182,14.569045)">
      <stop
         offset="0.24955"
         stop-color="#482641"
         id="stop53" />
      <stop
         offset="0.406361"
         stop-color="#503A4A"
         id="stop54" />
      <stop
         offset="0.511203"
         stop-color="#482641"
         id="stop55" />
    </linearGradient>
    <filter
       id="filter1_f_31_1661"
       x="16.9062"
       y="12.9375"
       width="7.0002398"
       height="6.9958501"
       filterUnits="userSpaceOnUse"
       color-interpolation-filters="sRGB">
      <feFlood
         flood-opacity="0"
         result="BackgroundImageFix"
         id="feFlood26" />
      <feBlend
         mode="normal"
         in="SourceGraphic"
         in2="BackgroundImageFix"
         result="shape"
         id="feBlend26" />
      <feGaussianBlur
         stdDeviation="0.25"
         result="effect1_foregroundBlur_31_1661"
         id="feGaussianBlur26" />
    </filter>
    <radialGradient
       id="paint12_radial_31_1661"
       cx="0"
       cy="0"
       r="1"
       gradientUnits="userSpaceOnUse"
       gradientTransform="matrix(-9.609354,-9.281266,12.130595,-12.559406,26.378688,21.330439)">
      <stop
         stop-color="#E9830A"
         id="stop56" />
      <stop
         offset="0.801655"
         stop-color="#F08B13"
         stop-opacity="0"
         id="stop57" />
    </radialGradient>
    <radialGradient
       id="paint13_radial_31_1661"
       cx="0"
       cy="0"
       r="1"
       gradientUnits="userSpaceOnUse"
       gradientTransform="matrix(-9.609354,-9.281266,12.130595,-12.559406,26.378688,21.330439)">
      <stop
         stop-color="#E9830A"
         id="stop58" />
      <stop
         offset="0.801655"
         stop-color="#F08B13"
         stop-opacity="0"
         id="stop59" />
    </radialGradient>
    <linearGradient
       id="paint14_linear_31_1661"
       x1="21.4063"
       y1="19.7321"
       x2="23.9846"
       y2="14.3883"
       gradientUnits="userSpaceOnUse"
       gradientTransform="rotate(-15,11.334987,15.926516)">
      <stop
         offset="0.24955"
         stop-color="#482641"
         id="stop60" />
      <stop
         offset="0.406361"
         stop-color="#503A4A"
         id="stop61" />
      <stop
         offset="0.511203"
         stop-color="#482641"
         id="stop62" />
    </linearGradient>
    <linearGradient
       id="paint15_linear_31_1661"
       x1="23.125"
       y1="16.1385"
       x2="20.7344"
       y2="11.451"
       gradientUnits="userSpaceOnUse"
       gradientTransform="rotate(-15,11.334987,15.926516)">
      <stop
         offset="0.24955"
         stop-color="#482641"
         id="stop63" />
      <stop
         offset="0.406361"
         stop-color="#503A4A"
         id="stop64" />
      <stop
         offset="0.511203"
         stop-color="#482641"
         id="stop65" />
    </linearGradient>
    <radialGradient
       id="paint9_radial_31_111"
       cx="0"
       cy="0"
       r="1"
       gradientUnits="userSpaceOnUse"
       gradientTransform="matrix(-2.5000182,3.4999838,-3.4999838,-2.5000182,25,6.125)">
      <stop
         stop-color="#C2B4B5"
         id="stop32-4" />
      <stop
         offset="0.887405"
         stop-color="#462B45"
         id="stop33-3" />
      <stop
         offset="1"
         stop-color="#4A2C42"
         id="stop34-1" />
    </radialGradient>
    <radialGradient
       id="paint8_radial_31_111"
       cx="0"
       cy="0"
       r="1"
       gradientUnits="userSpaceOnUse"
       gradientTransform="matrix(2.4999998,3.4999969,-3.4999969,2.4999998,7,6.125)">
      <stop
         offset="0.541667"
         stop-color="#493032"
         id="stop29-4" />
      <stop
         offset="0.806723"
         stop-color="#5E445A"
         id="stop30-9" />
      <stop
         offset="0.955326"
         stop-color="#4A2C42"
         id="stop31-2" />
    </radialGradient>
    <linearGradient
       id="paint7_linear_31_111"
       x1="9.5"
       y1="5"
       x2="9.5"
       y2="6.5"
       gradientUnits="userSpaceOnUse"
       gradientTransform="translate(0,1.125)">
      <stop
         offset="0.0299084"
         stop-color="#524049"
         id="stop27-0" />
      <stop
         offset="1"
         stop-color="#4A2C42"
         id="stop28-6" />
    </linearGradient>
    <radialGradient
       id="paint2_radial_31_111"
       cx="0"
       cy="0"
       r="1"
       gradientUnits="userSpaceOnUse"
       gradientTransform="matrix(-29.000005,29.000005,-29.000005,-29.000005,18,15.125)">
      <stop
         offset="0.314853"
         stop-opacity="0"
         id="stop17-8" />
      <stop
         offset="1"
         id="stop18-9" />
    </radialGradient>
    <radialGradient
       id="paint1_radial_31_111"
       cx="0"
       cy="0"
       r="1"
       gradientUnits="userSpaceOnUse"
       gradientTransform="matrix(0,19.5,-19.5,0,16,13.625)">
      <stop
         offset="0.81119"
         stop-color="#A7A1F6"
         stop-opacity="0"
         id="stop15-2" />
      <stop
         offset="0.972655"
         stop-color="#A092FF"
         id="stop16-6" />
    </radialGradient>
    <radialGradient
       id="paint0_radial_31_111"
       cx="0"
       cy="0"
       r="1"
       gradientUnits="userSpaceOnUse"
       gradientTransform="matrix(-5.5000876,28.499932,-28.499932,-5.5000876,19,8.125)">
      <stop
         stop-color="#00F397"
         id="stop12" />
      <stop
         offset="0.493469"
         stop-color="#00D26A"
         id="stop13" />
      <stop
         offset="1"
         stop-color="#8D65C5"
         id="stop14" />
    </radialGradient>
    <radialGradient
       id="paint10_radial_23_486"
       cx="0"
       cy="0"
       r="1"
       gradientUnits="userSpaceOnUse"
       gradientTransform="matrix(6.33008,0,0,7.26524,16.6699,22.0849)">
      <stop
         stop-color="#3E3537"
         id="stop35-9" />
      <stop
         offset="0.313085"
         stop-color="#523A4F"
         id="stop36-5" />
      <stop
         offset="0.675586"
         stop-color="#6A5763"
         id="stop37-0" />
    </radialGradient>
    <linearGradient
       id="paint11_linear_23_486"
       x1="19"
       y1="20.999901"
       x2="20.5"
       y2="20.499901"
       gradientUnits="userSpaceOnUse"
       gradientTransform="matrix(1.3021708,0,0,1.3021708,-3.4174053,-6.0528826)">
      <stop
         stop-color="#664F62"
         stop-opacity="0"
         id="stop38-4" />
      <stop
         offset="1"
         stop-color="#765D72"
         id="stop39-8" />
    </linearGradient>
    <mask
       id="path-4-inside-1_23_486"
       fill="#ffffff">
      <path
         fill-rule="evenodd"
         clip-rule="evenodd"
         d="m 17.6699,16.9199 c -0.5523,0 -1,0.4477 -1,1 0,0.5523 0.4477,1 1,1 0.2877,0 0.52,0.2323 0.52,0.52 0,0.2877 -0.2323,0.52 -0.52,0.52 -0.5523,0 -1,0.4477 -1,1 0,0 0,0 0,10e-5 0,0.5522 0.4477,1 1,1 0.2877,0 0.52,0.2322 0.52,0.52 0,0.2877 -0.2323,0.52 -0.52,0.52 -0.5523,0 -1,0.4477 -1,1 0,0.5522 0.4477,1 1,1 1.3923,0 2.52,-1.1278 2.52,-2.52 0,-0.5711 -0.1897,-1.0976 -0.5095,-1.5201 0.3198,-0.4224 0.5095,-0.949 0.5095,-1.52 0,-1.3923 -1.1277,-2.52 -2.52,-2.52 z"
         id="path11" />
    </mask>
    <linearGradient
       inkscape:collect="always"
       xlink:href="#paint15_linear_31_1661"
       id="linearGradient49"
       gradientUnits="userSpaceOnUse"
       gradientTransform="rotate(-15,15.607599,16.489016)"
       x1="23.125"
       y1="16.1385"
       x2="20.7344"
       y2="11.451" />
    <linearGradient
       inkscape:collect="always"
       xlink:href="#paint14_linear_31_1661"
       id="linearGradient50"
       gradientUnits="userSpaceOnUse"
       gradientTransform="rotate(-15,15.607599,16.489016)"
       x1="21.4063"
       y1="19.7321"
       x2="23.9846"
       y2="14.3883" />
    <radialGradient
       inkscape:collect="always"
       xlink:href="#paint12_radial_31_1661"
       id="radialGradient50"
       gradientUnits="userSpaceOnUse"
       gradientTransform="matrix(12.962578,-3.2331351,-4.2257004,-16.942062,4.5158511,15.47231)"
       cx="0"
       cy="0"
       r="1" />
    <radialGradient
       inkscape:collect="always"
       xlink:href="#paint13_radial_31_1661"
       id="radialGradient51"
       gradientUnits="userSpaceOnUse"
       gradientTransform="matrix(12.962578,-3.2331351,-4.2257004,-16.942062,4.5158511,15.47231)"
       cx="0"
       cy="0"
       r="1" />
    <radialGradient
       id="paint15_radial_1_148"
       cx="0"
       cy="0"
       r="1"
       gradientUnits="userSpaceOnUse"
       gradientTransform="matrix(5.2920955,22.764462,-22.003942,5.1152961,4.5,20.5)">
      <stop
         offset="0.283068"
         stop-color="#B7F54D"
         stop-opacity="0"
         id="stop50-1" />
      <stop
         offset="0.404203"
         stop-color="#8DC843"
         id="stop51-7" />
    </radialGradient>
    <radialGradient
       id="paint14_radial_1_148"
       cx="0"
       cy="0"
       r="1"
       gradientUnits="userSpaceOnUse"
       gradientTransform="matrix(8.0045162,23.293017,-33.548186,11.528648,8.4954903,16.207)">
      <stop
         offset="0.299364"
         stop-color="#B7F54D"
         stop-opacity="0"
         id="stop48-2" />
      <stop
         offset="0.408315"
         stop-color="#8DC843"
         id="stop49-7" />
    </radialGradient>
    <radialGradient
       id="paint13_radial_1_148"
       cx="0"
       cy="0"
       r="1"
       gradientUnits="userSpaceOnUse"
       gradientTransform="matrix(1.7079856,20.996746,-30.241012,2.4599627,15.767,21.8136)">
      <stop
         offset="0.274574"
         stop-color="#B7F54D"
         stop-opacity="0"
         id="stop46-2" />
      <stop
         offset="0.408315"
         stop-color="#8DC843"
         id="stop47-2" />
    </radialGradient>
    <linearGradient
       id="paint12_linear_1_148"
       x1="24.5"
       y1="-12"
       x2="18"
       y2="31.5"
       gradientUnits="userSpaceOnUse">
      <stop
         offset="0.542271"
         stop-color="#B7F54D"
         stop-opacity="0"
         id="stop44-6" />
      <stop
         offset="0.608976"
         stop-color="#8DC843"
         id="stop45-1" />
    </linearGradient>
    <radialGradient
       id="paint11_radial_1_148"
       cx="0"
       cy="0"
       r="1"
       gradientUnits="userSpaceOnUse"
       gradientTransform="matrix(-4.0000626,22.000009,-24.460175,-4.4473722,22,9.4999997)">
      <stop
         offset="0.283068"
         stop-color="#B7F54D"
         stop-opacity="0"
         id="stop42-0" />
      <stop
         offset="0.404203"
         stop-color="#8DC843"
         id="stop43-6" />
    </radialGradient>
    <radialGradient
       id="paint10_radial_1_148"
       cx="0"
       cy="0"
       r="1"
       gradientUnits="userSpaceOnUse"
       gradientTransform="matrix(4.4999952,19.500005,-21.680595,5.0032076,13.5,12)">
      <stop
         offset="0.283068"
         stop-color="#B7F54D"
         stop-opacity="0"
         id="stop40-1" />
      <stop
         offset="0.404203"
         stop-color="#8DC843"
         id="stop41-5" />
    </radialGradient>
    <linearGradient
       id="paint9_linear_1_148"
       x1="11"
       y1="8.0000296"
       x2="18.5"
       y2="14"
       gradientUnits="userSpaceOnUse">
      <stop
         offset="0.436003"
         stop-color="#E4F8A3"
         id="stop38-9" />
      <stop
         offset="0.605391"
         stop-color="#E4F9A3"
         stop-opacity="0"
         id="stop39-4" />
    </linearGradient>
    <linearGradient
       id="paint8_linear_1_148"
       x1="18"
       y1="5.50003"
       x2="11"
       y2="24"
       gradientUnits="userSpaceOnUse">
      <stop
         stop-color="#FAFFAD"
         id="stop36-9" />
      <stop
         offset="1"
         stop-color="#FFFFC4"
         id="stop37-09" />
    </linearGradient>
    <radialGradient
       id="paint7_radial_1_148"
       cx="0"
       cy="0"
       r="1"
       gradientUnits="userSpaceOnUse"
       gradientTransform="matrix(-15.499982,-5.5000986,5.1373916,-14.477827,23.5,25)">
      <stop
         offset="0.578727"
         stop-color="#A1DA28"
         id="stop34-17" />
      <stop
         offset="1"
         stop-color="#A2DA28"
         stop-opacity="0"
         id="stop35-7" />
    </radialGradient>
    <linearGradient
       id="paint6_linear_1_148"
       x1="9.5"
       y1="10.5"
       x2="15"
       y2="15"
       gradientUnits="userSpaceOnUse">
      <stop
         offset="0.371807"
         stop-color="#8EC827"
         id="stop32-1" />
      <stop
         offset="0.726695"
         stop-color="#95C35D"
         stop-opacity="0"
         id="stop33-1" />
    </linearGradient>
    <radialGradient
       id="paint5_radial_1_148"
       cx="0"
       cy="0"
       r="1"
       gradientUnits="userSpaceOnUse"
       gradientTransform="matrix(14.500002,8.000007,-7.6676979,13.897692,12.5,12.5)">
      <stop
         offset="0.726843"
         stop-color="#A1DA3E"
         id="stop29-5" />
      <stop
         offset="0.815996"
         stop-color="#C6FE65"
         id="stop30-97" />
      <stop
         offset="0.846453"
         stop-color="#ADE934"
         id="stop31-7" />
    </radialGradient>
    <radialGradient
       id="paint4_radial_1_148"
       cx="0"
       cy="0"
       r="1"
       gradientUnits="userSpaceOnUse"
       gradientTransform="matrix(13.826331,9.917308,-12.042716,16.789494,12.3501,16.6009)">
      <stop
         offset="0.368824"
         stop-color="#253E1B"
         id="stop27-6" />
      <stop
         offset="0.774123"
         stop-color="#387569"
         stop-opacity="0"
         id="stop28-7" />
    </radialGradient>
    <radialGradient
       id="paint3_radial_1_148"
       cx="0"
       cy="0"
       r="1"
       gradientUnits="userSpaceOnUse"
       gradientTransform="matrix(-1.0078778,31.918591,-21.62842,-0.68295009,18.2371,2.16946)">
      <stop
         stop-color="#377569"
         id="stop25-3" />
      <stop
         offset="0.505008"
         stop-color="#387569"
         stop-opacity="0"
         id="stop26-6" />
    </radialGradient>
    <radialGradient
       id="paint2_radial_1_148"
       cx="0"
       cy="0"
       r="1"
       gradientUnits="userSpaceOnUse"
       gradientTransform="matrix(4.5581129,31.915553,-21.626357,3.0886314,12.6711,2.1725)">
      <stop
         stop-color="#7DC461"
         id="stop23-5" />
      <stop
         offset="0.775256"
         stop-color="#387569"
         stop-opacity="0"
         id="stop24-6" />
    </radialGradient>
    <radialGradient
       id="paint1_radial_1_148"
       cx="0"
       cy="0"
       r="1"
       gradientUnits="userSpaceOnUse"
       gradientTransform="matrix(-7.0833439,33.62451,-22.784428,-4.7997707,18.2371,2.16946)">
      <stop
         offset="0.775256"
         stop-color="#387569"
         stop-opacity="0"
         id="stop21-3" />
      <stop
         offset="0.803597"
         stop-color="#377569"
         id="stop22-9" />
    </radialGradient>
    <linearGradient
       id="paint0_linear_1_148"
       x1="28.0854"
       y1="8.3450098"
       x2="12.1572"
       y2="28.768"
       gradientUnits="userSpaceOnUse">
      <stop
         offset="0.00726905"
         stop-color="#99CE6F"
         id="stop19-4" />
      <stop
         offset="1"
         stop-color="#367C6B"
         id="stop20-8" />
    </linearGradient>
    <linearGradient
       inkscape:collect="always"
       xlink:href="#paint15_linear_31_1661"
       id="linearGradient1"
       gradientUnits="userSpaceOnUse"
       gradientTransform="rotate(-15,15.607599,16.489016)"
       x1="23.125"
       y1="16.1385"
       x2="20.7344"
       y2="11.451" />
    <linearGradient
       inkscape:collect="always"
       xlink:href="#paint14_linear_31_1661"
       id="linearGradient2"
       gradientUnits="userSpaceOnUse"
       gradientTransform="rotate(-15,15.607599,16.489016)"
       x1="21.4063"
       y1="19.7321"
       x2="23.9846"
       y2="14.3883" />
    <radialGradient
       inkscape:collect="always"
       xlink:href="#paint12_radial_31_1661"
       id="radialGradient2"
       gradientUnits="userSpaceOnUse"
       gradientTransform="matrix(-9.609354,-9.281266,12.130595,-12.559406,26.378688,21.330439)"
       cx="0"
       cy="0"
       r="1" />
    <radialGradient
       inkscape:collect="always"
       xlink:href="#paint13_radial_31_1661"
       id="radialGradient3"
       gradientUnits="userSpaceOnUse"
       gradientTransform="matrix(-9.609354,-9.281266,12.130595,-12.559406,26.378688,21.330439)"
       cx="0"
       cy="0"
       r="1" />
  </defs>
  <path
     fill-rule="evenodd"
     clip-rule="evenodd"
     d="m 16.193963,18.766912 c -0.424138,0 -0.767948,0.343811 -0.767948,0.767948 0,0.424138 0.34381,0.767949 0.767948,0.767949 0.220939,0 0.399334,0.178394 0.399334,0.399333 0,0.220939 -0.178395,0.399333 -0.399334,0.399333 -0.424138,0 -0.767948,0.343811 -0.767948,0.767949 0,0 0,0 0,7.6e-5 0,0.424062 0.34381,0.767949 0.767948,0.767949 0.220939,0 0.399334,0.178318 0.399334,0.399333 0,0.220939 -0.178395,0.399333 -0.399334,0.399333 -0.424138,0 -0.767948,0.343811 -0.767948,0.767949 0,0.424061 0.34381,0.767948 0.767948,0.767948 1.069215,0 1.93523,-0.866092 1.93523,-1.93523 0,-0.438575 -0.145679,-0.8429 -0.391269,-1.167358 0.24559,-0.324382 0.391269,-0.728783 0.391269,-1.167282 0,-1.069215 -0.866015,-1.93523 -1.93523,-1.93523 z"
     fill="url(#paint10_radial_23_486)"
     id="path12"
     style="fill:url(#paint10_radial_23_486);stroke-width:0.999999" />
  <path
     d="m 19.6804,20.9599 -0.3987,-0.3018 -0.2284,0.3018 0.2284,0.3018 z m -2.5105,-3.04 c 0,-0.2761 0.2239,-0.5 0.5,-0.5 v -1 c -0.8284,0 -1.5,0.6716 -1.5,1.5 z m 0.5,0.5 c -0.2761,0 -0.5,-0.2238 -0.5,-0.5 h -1 c 0,0.8284 0.6716,1.5 1.5,1.5 z m 1.02,1.02 c 0,-0.5638 -0.4561,-1.02 -1.02,-1.02 v 1 c 0.0116,0 0.02,0.0084 0.02,0.02 z m -1.02,1.02 c 0.5639,0 1.02,-0.4561 1.02,-1.02 h -1 c 0,0.0116 -0.0084,0.02 -0.02,0.02 z m -0.5,0.5 c 0,-0.2761 0.2239,-0.5 0.5,-0.5 v -1 c -0.8284,0 -1.5,0.6716 -1.5,1.5 z m 0,10e-5 c 0,0 0,0 0,0 0,0 0,0 0,0 0,0 0,0 0,0 0,0 0,0 0,0 v 0 0 0 c 0,0 0,0 0,0 0,0 0,0 0,0 0,0 0,0 0,0 0,0 0,0 0,0 0,0 0,0 0,0 0,0 0,0 0,0 0,0 0,0 0,0 v 0 0 0 0 c 0,0 0,0 0,0 0,0 0,0 0,0 0,0 0,0 0,0 0,0 0,0 0,0 0,-10e-5 0,-10e-5 0,-10e-5 0,0 0,0 0,0 v 0 0 0 0 c 0,0 0,0 0,0 0,0 0,0 0,0 0,0 0,0 0,0 0,0 0,0 0,0 0,0 0,0 0,0 0,0 0,0 0,0 0,0 0,0 0,0 v 0 0 0 c 0,0 0,0 0,0 0,0 0,0 0,0 0,0 0,0 0,0 0,0 0,0 0,0 0,0 0,0 0,0 0,0 0,0 0,0 0,0 0,0 0,0 0,0 0,0 0,0 v 0 0 0 c 0,0 0,0 0,0 0,0 0,0 0,0 0,0 0,0 0,0 0,0 0,0 0,0 0,0 0,0 0,0 0,0 0,0 0,0 0,0 0,0 0,0 v 0 0 0 0 c 0,0 0,0 0,0 0,0 0,0 0,0 0,0 0,0 0,0 0,0 0,0 0,0 0,0 0,0 0,0 0,0 0,0 0,0 v 0 0 0 0 c 0,0 0,0 0,0 0,0 0,0 0,0 0,0 0,0 0,0 0,0 0,0 0,0 0,0 0,0 0,0 0,0 0,0 0,0 0,0 0,0 0,0 v 0 0 0 c 0,0 0,0 0,0 0,0 0,0 0,0 0,0 0,0 0,0 0,0 0,0 0,0 h -1 c 0,0 0,0 0,0 0,0 0,0 0,0 0,0 0,0 0,0 0,0 0,0 0,0 v 0 0 0 c 0,0 0,0 0,0 0,0 0,0 0,0 0,0 0,0 0,0 0,0 0,0 0,0 0,0 0,0 0,0 0,0 0,0 0,0 0,0 0,0 0,0 v 0 0 0 0 c 0,0 0,0 0,0 0,0 0,0 0,0 0,0 0,0 0,0 0,0 0,0 0,0 0,0 0,0 0,0 0,0 0,0 0,0 v 0 0 0 0 c 0,0 0,0 0,0 0,0 0,0 0,0 0,0 0,0 0,0 0,0 0,0 0,0 0,0 0,0 0,0 0,0 0,0 0,0 0,0 0,0 0,0 v 0 0 0 c 0,0 0,0 0,0 0,0 0,0 0,0 0,0 0,0 0,0 0,0 0,0 0,0 0,0 0,0 0,0 0,0 0,0 0,0 0,0 0,0 0,0 0,0 0,0 0,0 v 0 0 0 c 0,0 0,0 0,0 0,0 0,0 0,0 0,0 0,0 0,0 0,0 0,0 0,0 0,0 0,0 0,0 0,0 0,0 0,0 0,0 0,0 0,0 v 0 0 0 0 c 0,0 0,0 0,0 0,0 0,0 0,10e-5 0,0 0,0 0,0 0,0 0,0 0,0 0,0 0,0 0,0 0,0 0,0 0,0 v 0 0 0 0 c 0,0 0,0 0,0 0,0 0,0 0,0 0,0 0,0 0,0 0,0 0,0 0,0 0,0 0,0 0,0 0,0 0,0 0,0 0,0 0,0 0,0 v 0 0 0 c 0,0 0,0 0,0 0,0 0,0 0,0 0,0 0,0 0,0 0,0 0,0 0,0 z m 0.5,0.5 c -0.2761,0 -0.5,-0.2239 -0.5,-0.5 h -1 c 0,0.8284 0.6716,1.5 1.5,1.5 z m 1.02,1.02 c 0,-0.5639 -0.4561,-1.02 -1.02,-1.02 v 1 c 0.0116,0 0.02,0.0084 0.02,0.02 z m -1.02,1.02 c 0.5639,0 1.02,-0.4562 1.02,-1.02 h -1 c 0,0.0115 -0.0084,0.02 -0.02,0.02 z m -0.5,0.5 c 0,-0.2762 0.2239,-0.5 0.5,-0.5 v -1 c -0.8284,0 -1.5,0.6715 -1.5,1.5 z m 0.5,0.5 c -0.2761,0 -0.5,-0.2239 -0.5,-0.5 h -1 c 0,0.8284 0.6716,1.5 1.5,1.5 z m 2.02,-2.02 c 0,1.1161 -0.9038,2.02 -2.02,2.02 v 1 c 1.6684,0 3.02,-1.3516 3.02,-3.02 z m -0.4082,-1.2183 c 0.2564,0.3386 0.4082,0.7598 0.4082,1.2183 h 1 c 0,-0.6837 -0.2275,-1.3155 -0.6109,-1.8219 z m 0.4082,-1.8218 c 0,0.4584 -0.1518,0.8797 -0.4082,1.2182 l 0.7973,0.6036 c 0.3834,-0.5063 0.6109,-1.1381 0.6109,-1.8218 z m -2.02,-2.02 c 1.1162,0 2.02,0.9039 2.02,2.02 h 1 c 0,-1.6684 -1.3516,-3.02 -3.02,-3.02 z"
     fill="url(#paint11_linear_23_486)"
     mask="url(#path-4-inside-1_23_486)"
     id="path13-7"
     style="fill:url(#paint11_linear_23_486);stroke-width:1.30217"
     transform="matrix(0.76794843,0,0,0.76794843,2.6243911,5.7733017)" />
  <g
     filter="url(#filter1_f_31_1661)"
     id="g47"
     transform="matrix(-0.96592583,-0.25881905,-0.25881905,0.96592583,35.834219,3.622564)">
    <path
       d="m 21.959,19.3275 c 0.494,0.247 1.0947,0.0468 1.3417,-0.4472 0.247,-0.494 0.0467,-1.0947 -0.4472,-1.3416 L 20.647,16.4354 h -3.2408 c 9e-4,0.3779 0.2147,0.7231 0.5528,0.8921 z"
       fill="url(#paint12_radial_31_1661)"
       id="path46"
       style="fill:url(#radialGradient50)" />
    <path
       d="m 21.959,13.5433 c 0.494,-0.247 1.0947,-0.0468 1.3417,0.4472 0.247,0.494 0.0467,1.0947 -0.4472,1.3416 l -2.2065,1.1033 h -3.2408 c 9e-4,-0.3779 0.2147,-0.7231 0.5528,-0.8921 z"
       fill="url(#paint13_radial_31_1661)"
       id="path47"
       style="fill:url(#radialGradient51)" />
  </g>
  <path
     d="M 9.175915,16.035653 C 8.634916,16.146406 8.1065,15.797555 7.995773,15.25646 7.885046,14.715364 8.233897,14.186948 8.774967,14.076317 l 2.41687,-0.494621 3.130276,0.838755 c -0.09858,0.364816 -0.394536,0.642892 -0.764856,0.718627 z"
     fill="url(#paint14_linear_31_1661)"
     id="path48"
     style="fill:url(#linearGradient50)" />
  <path
     d="m 10.672925,10.448739 c -0.413143,-0.366415 -1.04519,-0.328509 -1.41163,0.08473 -0.366441,0.413239 -0.328535,1.045286 0.08473,1.41163 l 1.84576,1.636789 3.130276,0.838755 c 0.09703,-0.36523 -0.02023,-0.754029 -0.303071,-1.004777 z"
     fill="url(#paint15_linear_31_1661)"
     id="path49"
     style="fill:url(#linearGradient49)" />
  <g
     id="g51"
     transform="matrix(0.36209804,0,0,0.36209804,17.514912,21.983908)"
     style="stroke-width:2.76168">
    <path
       d="m 25.994499,-1.1698473 c 5.8753,4.81854 6.6966,13.4338803 1.8393,19.2542803 -4.8534,5.8159 -13.7161,6.5619 -19.5846097,1.7486 l -1.75502,-1.4397 c -0.54001,-0.4425 -0.61486,-1.2341 -0.16708,-1.7685 L 22.360899,-2.5183273 c 0.4471,-0.53436 1.247,-0.60843 1.787,-0.16533 l 1.8466,1.51447 z"
       fill="url(#paint0_linear_1_148)"
       id="path1-1"
       style="fill:url(#paint0_linear_1_148);stroke-width:2.76168" />
    <path
       d="m 25.994499,-1.1698473 c 5.8753,4.81854 6.6966,13.4338803 1.8393,19.2542803 -4.8534,5.8159 -13.7161,6.5619 -19.5846097,1.7486 l -1.75502,-1.4397 c -0.54001,-0.4425 -0.61486,-1.2341 -0.16708,-1.7685 L 22.360899,-2.5183273 c 0.4471,-0.53436 1.247,-0.60843 1.787,-0.16533 l 1.8466,1.51447 z"
       fill="url(#paint1_radial_1_148)"
       id="path2-2"
       style="fill:url(#paint1_radial_1_148);stroke-width:2.76168" />
    <path
       d="m 25.994499,-1.1698473 c 5.8753,4.81854 6.6966,13.4338803 1.8393,19.2542803 -4.8534,5.8159 -13.7161,6.5619 -19.5846097,1.7486 l -1.75502,-1.4397 c -0.54001,-0.4425 -0.61486,-1.2341 -0.16708,-1.7685 L 22.360899,-2.5183273 c 0.4471,-0.53436 1.247,-0.60843 1.787,-0.16533 l 1.8466,1.51447 z"
       fill="url(#paint2_radial_1_148)"
       id="path3-9"
       style="fill:url(#paint2_radial_1_148);stroke-width:2.76168" />
    <path
       d="m 25.994499,-1.1698473 c 5.8753,4.81854 6.6966,13.4338803 1.8393,19.2542803 -4.8534,5.8159 -13.7161,6.5619 -19.5846097,1.7486 l -1.75502,-1.4397 c -0.54001,-0.4425 -0.61486,-1.2341 -0.16708,-1.7685 L 22.360899,-2.5183273 c 0.4471,-0.53436 1.247,-0.60843 1.787,-0.16533 l 1.8466,1.51447 z"
       fill="url(#paint3_radial_1_148)"
       id="path4"
       style="fill:url(#paint3_radial_1_148);stroke-width:2.76168" />
    <path
       d="m 25.994499,-1.1698473 c 5.8753,4.81854 6.6966,13.4338803 1.8393,19.2542803 -4.8534,5.8159 -13.7161,6.5619 -19.5846097,1.7486 l -1.75502,-1.4397 c -0.54001,-0.4425 -0.61486,-1.2341 -0.16708,-1.7685 L 22.360899,-2.5183273 c 0.4471,-0.53436 1.247,-0.60843 1.787,-0.16533 l 1.8466,1.51447 z"
       fill="url(#paint4_radial_1_148)"
       id="path5"
       style="fill:url(#paint4_radial_1_148);stroke-width:2.76168" />
    <path
       d="m 6.2544493,16.711633 c -0.41637,0.4973 -0.30877,1.238 0.22789,1.6057 5.8364597,3.9985 13.8964597,2.9807 18.5112597,-2.5289 4.6148,-5.5097 4.1296,-13.5357203 -0.9243,-18.4686703 -0.4645,-0.45368 -1.2204,-0.42128 -1.6367,0.07605 z"
       fill="url(#paint5_radial_1_148)"
       id="path6"
       style="fill:url(#paint5_radial_1_148);stroke-width:2.76168" />
    <path
       d="m 6.2544493,16.711633 c -0.41637,0.4973 -0.30877,1.238 0.22789,1.6057 5.8364597,3.9985 13.8964597,2.9807 18.5112597,-2.5289 4.6148,-5.5097 4.1296,-13.5357203 -0.9243,-18.4686703 -0.4645,-0.45368 -1.2204,-0.42128 -1.6367,0.07605 z"
       fill="url(#paint6_linear_1_148)"
       id="path7"
       style="fill:url(#paint6_linear_1_148);stroke-width:2.76168" />
    <path
       d="m 6.2544493,16.711633 c -0.41637,0.4973 -0.30877,1.238 0.22789,1.6057 5.8364597,3.9985 13.8964597,2.9807 18.5112597,-2.5289 4.6148,-5.5097 4.1296,-13.5357203 -0.9243,-18.4686703 -0.4645,-0.45368 -1.2204,-0.42128 -1.6367,0.07605 z"
       fill="url(#paint7_radial_1_148)"
       id="path8-3"
       style="fill:url(#paint7_radial_1_148);stroke-width:2.76168" />
    <path
       d="m 23.672799,14.705133 c 4.2632,-5.0904003 3.5468,-12.6640503 -1.5973,-16.8827503 L 6.6118193,16.285033 c 5.1440897,4.2187 12.7977797,3.5098 17.0609797,-1.5806 z"
       fill="url(#paint8_linear_1_148)"
       id="path9"
       style="fill:url(#paint8_linear_1_148);stroke-width:2.76168" />
    <path
       d="m 23.672799,14.705133 c 4.2632,-5.0904003 3.5468,-12.6640503 -1.5973,-16.8827503 L 6.6118193,16.285033 c 5.1440897,4.2187 12.7977797,3.5098 17.0609797,-1.5806 z"
       fill="url(#paint9_linear_1_148)"
       id="path10"
       style="fill:url(#paint9_linear_1_148);stroke-width:2.76168" />
    <path
       d="m 16.607299,6.1374327 5.7944,0.6607 c 1.0406,0.1184 1.8973,-0.8069 1.6781,-1.8207 -0.4524,-2.08983 -1.5899,-4.04939 -3.3777,-5.51558 l -4.5833,5.47258 c -0.3776,0.4511 -0.0996,1.1362 0.4885,1.2037 z"
       fill="#b7f54c"
       id="path11-9"
       style="stroke-width:2.76168" />
    <path
       d="m 16.607299,6.1374327 5.7944,0.6607 c 1.0406,0.1184 1.8973,-0.8069 1.6781,-1.8207 -0.4524,-2.08983 -1.5899,-4.04939 -3.3777,-5.51558 l -4.5833,5.47258 c -0.3776,0.4511 -0.0996,1.1362 0.4885,1.2037 z"
       fill="url(#paint10_radial_1_148)"
       id="path12-0"
       style="fill:url(#paint10_radial_1_148);stroke-width:2.76168" />
    <path
       d="m 16.607299,6.1374327 5.7944,0.6607 c 1.0406,0.1184 1.8973,-0.8069 1.6781,-1.8207 -0.4524,-2.08983 -1.5899,-4.04939 -3.3777,-5.51558 l -4.5833,5.47258 c -0.3776,0.4511 -0.0996,1.1362 0.4885,1.2037 z"
       fill="url(#paint11_radial_1_148)"
       id="path13-8"
       style="fill:url(#paint11_radial_1_148);stroke-width:2.76168" />
    <path
       d="m 16.607299,6.1374327 5.7944,0.6607 c 1.0406,0.1184 1.8973,-0.8069 1.6781,-1.8207 -0.4524,-2.08983 -1.5899,-4.04939 -3.3777,-5.51558 l -4.5833,5.47258 c -0.3776,0.4511 -0.0996,1.1362 0.4885,1.2037 z"
       fill="url(#paint12_linear_1_148)"
       id="path14-8"
       style="fill:url(#paint12_linear_1_148);stroke-width:2.76168" />
    <path
       d="m 15.212599,8.8357327 1.8552,5.9064003 c 0.2901,0.9233 1.3688,1.3518 2.2175,0.8737 1.0145,-0.5714 1.9428,-1.33 2.7308,-2.2704 0.788,-0.9405 1.3687,-1.9841 1.7477,-3.0766 0.3174,-0.9140003 -0.3088,-1.8835003 -1.2792,-1.9939003 l -6.2094,-0.7077 c -0.7131,-0.0813 -1.2752,0.5899 -1.062,1.2685 z"
       fill="#b7f54e"
       id="path15-5"
       style="stroke-width:2.76168" />
    <path
       d="m 15.212599,8.8357327 1.8552,5.9064003 c 0.2901,0.9233 1.3688,1.3518 2.2175,0.8737 1.0145,-0.5714 1.9428,-1.33 2.7308,-2.2704 0.788,-0.9405 1.3687,-1.9841 1.7477,-3.0766 0.3174,-0.9140003 -0.3088,-1.8835003 -1.2792,-1.9939003 l -6.2094,-0.7077 c -0.7131,-0.0813 -1.2752,0.5899 -1.062,1.2685 z"
       fill="url(#paint13_radial_1_148)"
       id="path16-0"
       style="fill:url(#paint13_radial_1_148);stroke-width:2.76168" />
    <path
       d="m 15.212599,8.8357327 1.8552,5.9064003 c 0.2901,0.9233 1.3688,1.3518 2.2175,0.8737 1.0145,-0.5714 1.9428,-1.33 2.7308,-2.2704 0.788,-0.9405 1.3687,-1.9841 1.7477,-3.0766 0.3174,-0.9140003 -0.3088,-1.8835003 -1.2792,-1.9939003 l -6.2094,-0.7077 c -0.7131,-0.0813 -1.2752,0.5899 -1.062,1.2685 z"
       fill="url(#paint14_radial_1_148)"
       id="path17"
       style="fill:url(#paint14_radial_1_148);stroke-width:2.76168" />
    <path
       d="m 15.585499,14.936533 -1.7309,-5.5117003 c -0.1758,-0.5594 -0.9083,-0.7023 -1.2859,-0.2519 L 7.9853493,14.645533 c 1.78777,1.4662 3.9451197,2.2089 6.1038497,2.2611 1.0472,0.0251 1.8071,-0.9801 1.4963,-1.9695 z"
       fill="#b4ef4d"
       id="path18"
       style="stroke-width:2.76168" />
    <path
       d="m 15.585499,14.936533 -1.7309,-5.5117003 c -0.1758,-0.5594 -0.9083,-0.7023 -1.2859,-0.2519 L 7.9853493,14.645533 c 1.78777,1.4662 3.9451197,2.2089 6.1038497,2.2611 1.0472,0.0251 1.8071,-0.9801 1.4963,-1.9695 z"
       fill="url(#paint15_radial_1_148)"
       id="path19"
       style="fill:url(#paint15_radial_1_148);stroke-width:2.76168" />
  </g>
</svg>
