<?xml version="1.0" encoding="UTF-8" standalone="no"?>
<svg
   width="32"
   height="32"
   viewBox="0 0 32 32"
   fill="none"
   version="1.1"
   id="svg51"
   sodipodi:docname="kalamansi.svg"
   xml:space="preserve"
   inkscape:version="1.4 (e7c3feb1, 2024-10-09)"
   xmlns:inkscape="http://www.inkscape.org/namespaces/inkscape"
   xmlns:sodipodi="http://sodipodi.sourceforge.net/DTD/sodipodi-0.dtd"
   xmlns="http://www.w3.org/2000/svg"
   xmlns:svg="http://www.w3.org/2000/svg"><sodipodi:namedview
     id="namedview51"
     pagecolor="#ffffff"
     bordercolor="#cccccc"
     borderopacity="1"
     inkscape:showpageshadow="0"
     inkscape:pageopacity="1"
     inkscape:pagecheckerboard="0"
     inkscape:deskcolor="#d1d1d1"
     inkscape:zoom="5.7700221"
     inkscape:cx="-14.558003"
     inkscape:cy="2.2530243"
     inkscape:window-width="1872"
     inkscape:window-height="1027"
     inkscape:window-x="1440"
     inkscape:window-y="25"
     inkscape:window-maximized="1"
     inkscape:current-layer="svg51" /><path
     d="M23.9945 4.83052C29.8698 9.64906 30.6911 18.2644 25.8338 24.0848C20.9804 29.9007 12.1177 30.6467 6.24919 25.8334L4.49417 24.3937C3.95416 23.9512 3.87931 23.1596 4.32709 22.6252L20.3609 3.48204C20.808 2.94768 21.6079 2.87361 22.1479 3.31671L23.9945 4.83118V4.83052Z"
     fill="url(#paint0_linear_1_148)"
     id="path1" /><path
     d="M23.9945 4.83052C29.8698 9.64906 30.6911 18.2644 25.8338 24.0848C20.9804 29.9007 12.1177 30.6467 6.24919 25.8334L4.49417 24.3937C3.95416 23.9512 3.87931 23.1596 4.32709 22.6252L20.3609 3.48204C20.808 2.94768 21.6079 2.87361 22.1479 3.31671L23.9945 4.83118V4.83052Z"
     fill="url(#paint1_radial_1_148)"
     id="path2" /><path
     d="M23.9945 4.83052C29.8698 9.64906 30.6911 18.2644 25.8338 24.0848C20.9804 29.9007 12.1177 30.6467 6.24919 25.8334L4.49417 24.3937C3.95416 23.9512 3.87931 23.1596 4.32709 22.6252L20.3609 3.48204C20.808 2.94768 21.6079 2.87361 22.1479 3.31671L23.9945 4.83118V4.83052Z"
     fill="url(#paint2_radial_1_148)"
     id="path3" /><path
     d="M23.9945 4.83052C29.8698 9.64906 30.6911 18.2644 25.8338 24.0848C20.9804 29.9007 12.1177 30.6467 6.24919 25.8334L4.49417 24.3937C3.95416 23.9512 3.87931 23.1596 4.32709 22.6252L20.3609 3.48204C20.808 2.94768 21.6079 2.87361 22.1479 3.31671L23.9945 4.83118V4.83052Z"
     fill="url(#paint3_radial_1_148)"
     id="path4" /><path
     d="M23.9945 4.83052C29.8698 9.64906 30.6911 18.2644 25.8338 24.0848C20.9804 29.9007 12.1177 30.6467 6.24919 25.8334L4.49417 24.3937C3.95416 23.9512 3.87931 23.1596 4.32709 22.6252L20.3609 3.48204C20.808 2.94768 21.6079 2.87361 22.1479 3.31671L23.9945 4.83118V4.83052Z"
     fill="url(#paint4_radial_1_148)"
     id="path5" /><path
     d="M4.25445 22.712C3.83808 23.2093 3.94568 23.95 4.48234 24.3177C10.3188 28.3162 18.3788 27.2984 22.9936 21.7888C27.6084 16.2791 27.1232 8.25308 22.0693 3.32013C21.6048 2.86645 20.8489 2.89885 20.4326 3.39618L4.25445 22.712Z"
     fill="url(#paint5_radial_1_148)"
     id="path6" /><path
     d="M 4.25445,22.712 C 3.83808,23.2093 3.94568,23.95 4.48234,24.3177 10.3188,28.3162 18.3788,27.2984 22.9936,21.7888 27.6084,16.2791 27.1232,8.25308 22.0693,3.32013 21.6048,2.86645 20.8489,2.89885 20.4326,3.39618 Z"
     fill="url(#paint6_linear_1_148)"
     id="path7" /><path
     d="M 4.25445,22.712 C 3.83808,23.2093 3.94568,23.95 4.48234,24.3177 10.3188,28.3162 18.3788,27.2984 22.9936,21.7888 27.6084,16.2791 27.1232,8.25308 22.0693,3.32013 21.6048,2.86645 20.8489,2.89885 20.4326,3.39618 Z"
     fill="url(#paint7_radial_1_148)"
     id="path8" /><path
     d="M21.6728 20.7055C25.936 15.6151 25.2196 8.04145 20.0755 3.82275L4.61182 22.2854C9.75591 26.5041 17.4096 25.7952 21.6728 20.7048V20.7055Z"
     fill="url(#paint8_linear_1_148)"
     id="path9" /><path
     d="M 21.6728,20.7055 C 25.936,15.6151 25.2196,8.0414499 20.0755,3.8227499 L 4.61182,22.2854 c 5.14409,4.2187 12.79778,3.5098 17.06098,-1.5806 z"
     fill="url(#paint9_linear_1_148)"
     id="path10"
     style="fill:url(#paint9_linear_1_148)" /><path
     d="M14.6073 12.1378L20.4017 12.7985C21.4423 12.9169 22.299 11.9916 22.0798 10.9778C21.6274 8.88797 20.4899 6.92841 18.7021 5.46222L14.1188 10.9348C13.7412 11.3859 14.0192 12.071 14.6073 12.1385V12.1378Z"
     fill="#B7F54C"
     id="path11"
     style="fill:#e68603;fill-opacity:1" /><path
     d="m 14.6073,12.1378 5.7944,0.6607 c 1.0406,0.1184 1.8973,-0.8069 1.6781,-1.8207 C 21.6274,8.88797 20.4899,6.92841 18.7021,5.46222 l -4.5833,5.47258 c -0.3776,0.4511 -0.0996,1.1362 0.4885,1.2037 z"
     fill="url(#paint10_radial_1_148)"
     id="path12" /><path
     d="m 14.6073,12.1378 5.7944,0.6607 c 1.0406,0.1184 1.8973,-0.8069 1.6781,-1.8207 C 21.6274,8.88797 20.4899,6.92841 18.7021,5.46222 l -4.5833,5.47258 c -0.3776,0.4511 -0.0996,1.1362 0.4885,1.2037 z"
     fill="url(#paint11_radial_1_148)"
     id="path13" /><path
     d="m 14.6073,12.1378 5.7944,0.6607 c 1.0406,0.1184 1.8973,-0.8069 1.6781,-1.8207 C 21.6274,8.88797 20.4899,6.92841 18.7021,5.46222 l -4.5833,5.47258 c -0.3776,0.4511 -0.0996,1.1362 0.4885,1.2037 z"
     fill="url(#paint12_linear_1_148)"
     id="path14" /><path
     d="M13.2126 14.8361L15.0678 20.7425C15.3579 21.6658 16.4366 22.0943 17.2853 21.6162C18.2998 21.0448 19.2281 20.2862 20.0161 19.3458C20.8041 18.4053 21.3848 17.3617 21.7638 16.2692C22.0812 15.3552 21.455 14.3857 20.4846 14.2753L14.2752 13.5676C13.5621 13.4863 13 14.1575 13.2132 14.8361H13.2126Z"
     fill="#B7F54E"
     id="path15"
     style="fill:#e68603;fill-opacity:1" /><path
     d="m 13.2126,14.8361 1.8552,5.9064 c 0.2901,0.9233 1.3688,1.3518 2.2175,0.8737 1.0145,-0.5714 1.9428,-1.33 2.7308,-2.2704 0.788,-0.9405 1.3687,-1.9841 1.7477,-3.0766 0.3174,-0.914 -0.3088,-1.8835 -1.2792,-1.9939 L 14.2752,13.5676 C 13.5621,13.4863 13,14.1575 13.2132,14.8361 Z"
     fill="url(#paint13_radial_1_148)"
     id="path16"
     style="fill:url(#paint13_radial_1_148)" /><path
     d="m 13.2126,14.8361 1.8552,5.9064 c 0.2901,0.9233 1.3688,1.3518 2.2175,0.8737 1.0145,-0.5714 1.9428,-1.33 2.7308,-2.2704 0.788,-0.9405 1.3687,-1.9841 1.7477,-3.0766 0.3174,-0.914 -0.3088,-1.8835 -1.2792,-1.9939 L 14.2752,13.5676 C 13.5621,13.4863 13,14.1575 13.2132,14.8361 Z"
     fill="url(#paint14_radial_1_148)"
     id="path17"
     style="fill:url(#paint14_radial_1_148)" /><path
     d="M13.5855 20.9369L11.8546 15.4252C11.6788 14.8658 10.9463 14.7229 10.5687 15.1733L5.98535 20.6459C7.77312 22.1121 9.93047 22.8548 12.0892 22.907C13.1364 22.9321 13.8963 21.9269 13.5855 20.9375V20.9369Z"
     fill="#B4EF4D"
     id="path18"
     style="fill:#e68603;fill-opacity:1" /><path
     d="m 13.5855,20.9369 -1.7309,-5.5117 c -0.1758,-0.5594 -0.9083,-0.7023 -1.2859,-0.2519 l -4.58335,5.4726 c 1.78777,1.4662 3.94512,2.2089 6.10385,2.2611 1.0472,0.0251 1.8071,-0.9801 1.4963,-1.9695 z"
     fill="url(#paint15_radial_1_148)"
     id="path19" /><defs
     id="defs51"><linearGradient
       id="paint0_linear_1_148"
       x1="28.0854"
       y1="8.34501"
       x2="12.1572"
       y2="28.768"
       gradientUnits="userSpaceOnUse"><stop
         offset="0.00726905"
         stop-color="#99CE6F"
         id="stop19" /><stop
         offset="1"
         stop-color="#367C6B"
         id="stop20" /></linearGradient><radialGradient
       id="paint1_radial_1_148"
       cx="0"
       cy="0"
       r="1"
       gradientUnits="userSpaceOnUse"
       gradientTransform="translate(18.2371 2.16946) rotate(101.896) scale(34.3625 23.2845)"><stop
         offset="0.775256"
         stop-color="#387569"
         stop-opacity="0"
         id="stop21" /><stop
         offset="0.803597"
         stop-color="#377569"
         id="stop22" /></radialGradient><radialGradient
       id="paint2_radial_1_148"
       cx="0"
       cy="0"
       r="1"
       gradientUnits="userSpaceOnUse"
       gradientTransform="translate(12.6711 2.1725) rotate(81.8721) scale(32.2394 21.8458)"><stop
         stop-color="#7DC461"
         id="stop23" /><stop
         offset="0.775256"
         stop-color="#387569"
         stop-opacity="0"
         id="stop24" /></radialGradient><radialGradient
       id="paint3_radial_1_148"
       cx="0"
       cy="0"
       r="1"
       gradientUnits="userSpaceOnUse"
       gradientTransform="translate(18.2371 2.16946) rotate(91.8086) scale(31.9345 21.6392)"><stop
         stop-color="#377569"
         id="stop25" /><stop
         offset="0.505008"
         stop-color="#387569"
         stop-opacity="0"
         id="stop26" /></radialGradient><radialGradient
       id="paint4_radial_1_148"
       cx="0"
       cy="0"
       r="1"
       gradientUnits="userSpaceOnUse"
       gradientTransform="translate(12.3501 16.6009) rotate(35.651) scale(17.0153 20.6619)"><stop
         offset="0.368824"
         stop-color="#253E1B"
         id="stop27" /><stop
         offset="0.774123"
         stop-color="#387569"
         stop-opacity="0"
         id="stop28" /></radialGradient><radialGradient
       id="paint5_radial_1_148"
       cx="0"
       cy="0"
       r="1"
       gradientUnits="userSpaceOnUse"
       gradientTransform="translate(12.5 12.5) rotate(28.8866) scale(16.5605 15.8726)"><stop
         offset="0.726843"
         stop-color="#A1DA3E"
         id="stop29"
         style="stop-color:#dab23e;stop-opacity:1;" /><stop
         offset="0.81599599"
         stop-color="#C6FE65"
         id="stop30"
         style="stop-color:#fed765;stop-opacity:1;" /><stop
         offset="0.84645301"
         stop-color="#ADE934"
         id="stop31"
         style="stop-color:#e9b734;stop-opacity:1;" /></radialGradient><linearGradient
       id="paint6_linear_1_148"
       x1="9.5"
       y1="10.5"
       x2="15"
       y2="15"
       gradientUnits="userSpaceOnUse"><stop
         offset="0.37180701"
         stop-color="#8EC827"
         id="stop32"
         style="stop-color:#c89a27;stop-opacity:1;" /><stop
         offset="0.726695"
         stop-color="#95C35D"
         stop-opacity="0"
         id="stop33"
         style="stop-color:#c3b15d;stop-opacity:0;" /></linearGradient><radialGradient
       id="paint7_radial_1_148"
       cx="0"
       cy="0"
       r="1"
       gradientUnits="userSpaceOnUse"
       gradientTransform="translate(23.5 25) rotate(-160.463) scale(16.4469 15.3623)"><stop
         offset="0.57872701"
         stop-color="#A1DA28"
         id="stop34"
         style="stop-color:#dac128;stop-opacity:1;" /><stop
         offset="1"
         stop-color="#A2DA28"
         stop-opacity="0"
         id="stop35"
         style="stop-color:#dab628;stop-opacity:0;" /></radialGradient><linearGradient
       id="paint8_linear_1_148"
       x1="18"
       y1="5.50003"
       x2="11"
       y2="24"
       gradientUnits="userSpaceOnUse"><stop
         stop-color="#FAFFAD"
         id="stop36"
         offset="0"
         style="stop-color:#ffb54e;stop-opacity:1;" /><stop
         offset="1"
         stop-color="#FFFFC4"
         id="stop37"
         style="stop-color:#f4ca67;stop-opacity:1;" /></linearGradient><linearGradient
       id="paint9_linear_1_148"
       x1="11"
       y1="8.00003"
       x2="18.5"
       y2="14"
       gradientUnits="userSpaceOnUse"><stop
         offset="0.436003"
         stop-color="#E4F8A3"
         id="stop38"
         style="stop-color:#f8e4a3;stop-opacity:1;" /><stop
         offset="0.60539103"
         stop-color="#E4F9A3"
         stop-opacity="0"
         id="stop39"
         style="stop-color:#f9e6a3;stop-opacity:0;" /></linearGradient><radialGradient
       id="paint10_radial_1_148"
       cx="0"
       cy="0"
       r="1"
       gradientUnits="userSpaceOnUse"
       gradientTransform="translate(13.5 12) rotate(77.0054) scale(20.0125 22.2504)"><stop
         offset="0.283068"
         stop-color="#B7F54D"
         stop-opacity="0"
         id="stop40"
         style="stop-color:#f5ad4d;stop-opacity:0;" /><stop
         offset="0.404203"
         stop-color="#8DC843"
         id="stop41"
         style="stop-color:#dc9b3f;stop-opacity:1;" /></radialGradient><radialGradient
       id="paint11_radial_1_148"
       cx="0"
       cy="0"
       r="1"
       gradientUnits="userSpaceOnUse"
       gradientTransform="translate(22 9.5) rotate(100.305) scale(22.3607 24.8612)"><stop
         offset="0.283068"
         stop-color="#B7F54D"
         stop-opacity="0"
         id="stop42"
         style="stop-color:#f5b44d;stop-opacity:0;" /><stop
         offset="0.404203"
         stop-color="#8DC843"
         id="stop43"
         style="stop-color:#c89c43;stop-opacity:1;" /></radialGradient><linearGradient
       id="paint12_linear_1_148"
       x1="24.5"
       y1="-12"
       x2="18"
       y2="31.5"
       gradientUnits="userSpaceOnUse"><stop
         offset="0.54227102"
         stop-color="#B7F54D"
         stop-opacity="0"
         id="stop44"
         style="stop-color:#f5a94d;stop-opacity:0;" /><stop
         offset="0.60897601"
         stop-color="#8DC843"
         id="stop45"
         style="stop-color:#c89043;stop-opacity:1;" /></linearGradient><radialGradient
       id="paint13_radial_1_148"
       cx="0"
       cy="0"
       r="1"
       gradientUnits="userSpaceOnUse"
       gradientTransform="matrix(1.7079856,20.996746,-30.241012,2.4599627,15.767,21.8136)"><stop
         offset="0.27457401"
         stop-color="#B7F54D"
         stop-opacity="0"
         id="stop46"
         style="stop-color:#eea43c;stop-opacity:0;" /><stop
         offset="0.408315"
         stop-color="#8DC843"
         id="stop47"
         style="stop-color:#dc9c27;stop-opacity:1;" /></radialGradient><radialGradient
       id="paint14_radial_1_148"
       cx="0"
       cy="0"
       r="1"
       gradientUnits="userSpaceOnUse"
       gradientTransform="matrix(8.0045162,23.293017,-33.548186,11.528648,8.49549,16.207)"><stop
         offset="0.299364"
         stop-color="#B7F54D"
         stop-opacity="0"
         id="stop48"
         style="stop-color:#f5b04d;stop-opacity:0;" /><stop
         offset="0.408315"
         stop-color="#8DC843"
         id="stop49"
         style="stop-color:#d9911a;stop-opacity:1;" /></radialGradient><radialGradient
       id="paint15_radial_1_148"
       cx="0"
       cy="0"
       r="1"
       gradientUnits="userSpaceOnUse"
       gradientTransform="translate(4.5 20.5) rotate(76.9128) scale(23.3715 22.5907)"><stop
         offset="0.283068"
         stop-color="#B7F54D"
         stop-opacity="0"
         id="stop50"
         style="stop-color:#f5bf4d;stop-opacity:0;" /><stop
         offset="0.404203"
         stop-color="#8DC843"
         id="stop51"
         style="stop-color:#eaa62e;stop-opacity:1;" /></radialGradient></defs></svg>
