<?xml version="1.0" encoding="UTF-8" standalone="no"?>
<!-- Created with Inkscape (http://www.inkscape.org/) -->

<svg
   width="101.207mm"
   height="61.924652mm"
   viewBox="0 0 101.207 61.924652"
   version="1.1"
   id="svg5"
   sodipodi:docname="kumusta_dialogue.svg"
   inkscape:version="1.1.1 (c3084ef, 2021-09-22)"
   xmlns:inkscape="http://www.inkscape.org/namespaces/inkscape"
   xmlns:sodipodi="http://sodipodi.sourceforge.net/DTD/sodipodi-0.dtd"
   xmlns="http://www.w3.org/2000/svg"
   xmlns:svg="http://www.w3.org/2000/svg">
  <sodipodi:namedview
     id="namedview7"
     pagecolor="#ffffff"
     bordercolor="#cccccc"
     borderopacity="1"
     inkscape:pageshadow="0"
     inkscape:pageopacity="1"
     inkscape:pagecheckerboard="0"
     inkscape:document-units="mm"
     showgrid="false"
     inkscape:snap-global="true"
     inkscape:zoom="1.6277344"
     inkscape:cx="188.60571"
     inkscape:cy="113.65491"
     inkscape:window-width="1872"
     inkscape:window-height="1027"
     inkscape:window-x="1440"
     inkscape:window-y="25"
     inkscape:window-maximized="1"
     inkscape:current-layer="layer1"
     fit-margin-top="0"
     fit-margin-left="0"
     fit-margin-right="0"
     fit-margin-bottom="0" />
  <defs
     id="defs2">
    <inkscape:perspective
       sodipodi:type="inkscape:persp3d"
       inkscape:vp_x="0 : -86.575352 : 1"
       inkscape:vp_y="0 : 999.99997 : 0"
       inkscape:vp_z="210 : -86.575352 : 1"
       inkscape:persp3d-origin="105 : -136.07535 : 1"
       id="perspective10457" />
  </defs>
  <g
     inkscape:label="Layer 1"
     inkscape:groupmode="layer"
     id="layer1"
     transform="translate(-58.738361,-122.69111)">
    <text
       xml:space="preserve"
       style="font-style:normal;font-weight:normal;font-size:4.23333px;line-height:1.25;font-family:sans-serif;fill:#000000;fill-opacity:1;stroke:none;stroke-width:0.264583"
       x="80.158287"
       y="129.1658"
       id="text2828"><tspan
         sodipodi:role="line"
         id="tspan2826"
         style="font-size:4.23333px;stroke-width:0.264583"
         x="80.158287"
         y="129.1658">kumusta po?</tspan></text>
    <g
       id="g2997"
       transform="translate(27.145348,59.97984)">
      <path
         style="fill:none;stroke:#000000;stroke-width:0.500001;stroke-linecap:round;stroke-linejoin:round;stroke-miterlimit:4;stroke-dasharray:none;stroke-opacity:1;paint-order:stroke markers fill"
         id="path6192"
         sodipodi:type="arc"
         sodipodi:cx="48.56134"
         sodipodi:cy="78.560173"
         sodipodi:rx="8.7352934"
         sodipodi:ry="8.7352934"
         sodipodi:start="3.3500061"
         sodipodi:end="5.7939352"
         sodipodi:open="true"
         sodipodi:arc-type="arc"
         d="m 40.015075,76.752771 a 8.7352934,8.7352934 0 0 1 7.323697,-6.841915 8.7352934,8.7352934 0 0 1 8.933085,4.544043" />
      <path
         style="fill:none;stroke:#000000;stroke-width:0.5;stroke-linecap:round;stroke-linejoin:round;stroke-miterlimit:4;stroke-dasharray:none;stroke-opacity:1"
         d="m 56.271857,74.454899 c 0.285579,1.357909 -0.982274,1.604885 -1.598832,0.421857"
         id="path6533"
         sodipodi:nodetypes="cc" />
      <path
         style="fill:none;stroke:#000000;stroke-width:0.5;stroke-linecap:round;stroke-linejoin:round;stroke-miterlimit:4;stroke-dasharray:none;stroke-opacity:1"
         d="m 54.673025,74.876756 c 0.285579,1.357909 -0.982274,1.604885 -1.598832,0.421857"
         id="path6533-7"
         sodipodi:nodetypes="cc" />
      <path
         style="fill:none;stroke:#000000;stroke-width:0.5;stroke-linecap:round;stroke-linejoin:round;stroke-miterlimit:4;stroke-dasharray:none;stroke-opacity:1"
         d="m 53.074193,75.298613 c 0.285579,1.357909 -0.982274,1.604885 -1.598832,0.421857"
         id="path6533-7-8"
         sodipodi:nodetypes="cc" />
      <path
         style="fill:none;stroke:#000000;stroke-width:0.5;stroke-linecap:round;stroke-linejoin:round;stroke-miterlimit:4;stroke-dasharray:none;stroke-opacity:1"
         d="m 51.475361,75.72047 c 0.285579,1.357909 -0.982274,1.604885 -1.598832,0.421857"
         id="path6533-7-8-7"
         sodipodi:nodetypes="cc" />
      <path
         style="fill:none;stroke:#000000;stroke-width:0.5;stroke-linecap:round;stroke-linejoin:round;stroke-miterlimit:4;stroke-dasharray:none;stroke-opacity:1"
         d="m 48.277697,76.564184 c 0.285579,1.357909 -0.982274,1.604885 -1.598832,0.421857"
         id="path6533-7-8-7-7"
         sodipodi:nodetypes="cc" />
      <path
         style="fill:none;stroke:#000000;stroke-width:0.5;stroke-linecap:round;stroke-linejoin:round;stroke-miterlimit:4;stroke-dasharray:none;stroke-opacity:1"
         d="m 46.678865,76.986041 c 0.285579,1.357909 -0.982274,1.604885 -1.598832,0.421857"
         id="path6533-7-8-7-7-4"
         sodipodi:nodetypes="cc" />
      <path
         style="fill:none;stroke:#000000;stroke-width:0.5;stroke-linecap:round;stroke-linejoin:round;stroke-miterlimit:4;stroke-dasharray:none;stroke-opacity:1"
         d="m 44.26425,80.913382 c -1.366884,-0.238954 -1.12552,-1.507887 0.201858,-1.641183"
         id="path6533-7-8-7-7-4-83"
         sodipodi:nodetypes="cc" />
      <path
         style="fill:none;stroke:#000000;stroke-width:0.5;stroke-linecap:round;stroke-linejoin:round;stroke-miterlimit:4;stroke-dasharray:none;stroke-opacity:1"
         d="m 39.255097,83.792973 c 0.269208,1.361249 1.532476,1.091803 1.636303,-0.238204"
         id="path6533-7-8-7-7-4-8"
         sodipodi:nodetypes="cc" />
      <path
         style="fill:none;stroke:#000000;stroke-width:0.5;stroke-linecap:round;stroke-linejoin:round;stroke-miterlimit:4;stroke-dasharray:none;stroke-opacity:1"
         d="m 40.8914,83.554769 c 0.269207,1.361249 1.532476,1.091803 1.636302,-0.238204"
         id="path6533-7-8-7-7-4-8-2"
         sodipodi:nodetypes="cc" />
      <path
         style="fill:none;stroke:#000000;stroke-width:0.5;stroke-linecap:round;stroke-linejoin:round;stroke-miterlimit:4;stroke-dasharray:none;stroke-opacity:1"
         d="m 42.527702,83.316565 c 1.675458,0.834511 1.441924,-1.191899 1.553683,-2.321909"
         id="path6533-7-8-7-7-4-8-5"
         sodipodi:nodetypes="cc" />
      <path
         style="fill:none;stroke:#000000;stroke-width:0.5;stroke-linecap:round;stroke-linejoin:round;stroke-miterlimit:4;stroke-dasharray:none;stroke-opacity:1"
         d="m 49.876529,76.142327 c 0.285579,1.357909 -0.982274,1.604885 -1.598832,0.421857"
         id="path6533-7-8-7-4"
         sodipodi:nodetypes="cc" />
      <path
         style="fill:none;stroke:#000000;stroke-width:0.5;stroke-linecap:round;stroke-linejoin:round;stroke-miterlimit:4;stroke-dasharray:none;stroke-opacity:1"
         d="m 40.015075,76.752772 c -0.680404,2.741737 -1.047247,4.952981 -0.759978,7.040201"
         id="path7855"
         sodipodi:nodetypes="cc" />
      <path
         style="fill:none;stroke:#000000;stroke-width:0.5;stroke-linecap:round;stroke-linejoin:miter;stroke-miterlimit:4;stroke-dasharray:none;stroke-opacity:1"
         d="m 45.080034,77.407896 c -0.616408,0.495492 -0.934583,1.080206 -0.999974,1.904941"
         id="path9441"
         sodipodi:nodetypes="cc" />
      <path
         style="fill:none;stroke:#000000;stroke-width:0.5;stroke-linecap:round;stroke-linejoin:round;stroke-miterlimit:4;stroke-dasharray:none;stroke-opacity:1;paint-order:stroke markers fill"
         id="path10589"
         sodipodi:type="arc"
         sodipodi:cx="48.815201"
         sodipodi:cy="79.088516"
         sodipodi:rx="7.1880002"
         sodipodi:ry="6.770237"
         sodipodi:start="5.7151638"
         sodipodi:end="2.4129452"
         sodipodi:open="true"
         sodipodi:arc-type="arc"
         d="m 54.874448,75.446364 a 7.1880002,6.770237 0 0 1 -1.718704,9.038645 7.1880002,6.770237 0 0 1 -9.703335,-0.888455" />
      <path
         style="fill:#000000;fill-opacity:1;stroke:none;stroke-width:1.88976;stroke-linecap:round;stroke-linejoin:round;stroke-miterlimit:4;stroke-dasharray:none;paint-order:stroke markers fill"
         id="path1345"
         sodipodi:type="arc"
         sodipodi:cx="48.672665"
         sodipodi:cy="78.987679"
         sodipodi:rx="0.68066555"
         sodipodi:ry="0.68066555"
         sodipodi:start="5.7151679"
         sodipodi:end="5.7128815"
         sodipodi:arc-type="slice"
         d="m 49.246445,78.621506 a 0.68066555,0.68066555 0 0 1 -0.20728,0.939743 0.68066555,0.68066555 0 0 1 -0.939861,-0.206743 0.68066555,0.68066555 0 0 1 0.206205,-0.939979 0.68066555,0.68066555 0 0 1 0.940097,0.205669 l -0.572941,0.367483 z" />
      <path
         style="fill:#000000;fill-opacity:1;stroke:none;stroke-width:1.88976;stroke-linecap:round;stroke-linejoin:round;stroke-miterlimit:4;stroke-dasharray:none;paint-order:stroke markers fill"
         id="path1427"
         sodipodi:type="arc"
         sodipodi:cx="53.528755"
         sodipodi:cy="78.215584"
         sodipodi:rx="0.68066555"
         sodipodi:ry="0.68066555"
         sodipodi:start="5.7151679"
         sodipodi:end="5.7128815"
         sodipodi:arc-type="slice"
         d="m 54.102535,77.849412 a 0.68066555,0.68066555 0 0 1 -0.20728,0.939742 0.68066555,0.68066555 0 0 1 -0.939861,-0.206742 0.68066555,0.68066555 0 0 1 0.206206,-0.93998 0.68066555,0.68066555 0 0 1 0.940097,0.205669 l -0.572942,0.367483 z" />
      <path
         style="fill:none;stroke:#000000;stroke-width:0.5;stroke-linecap:round;stroke-linejoin:round;stroke-miterlimit:4;stroke-dasharray:none;stroke-opacity:1"
         d="m 51.437277,78.94988 c 1.385156,-0.08255 1.442783,1.207847 0.181874,1.643517"
         id="path1429"
         sodipodi:nodetypes="cc" />
      <path
         style="fill:none;stroke:#000000;stroke-width:0.5;stroke-linecap:round;stroke-linejoin:round;stroke-miterlimit:4;stroke-dasharray:none;stroke-opacity:1;paint-order:markers fill stroke"
         d="m 50.145746,82.187822 2.936004,-1.036236 c 0,0 -0.683938,2.299027 -1.655523,2.360418 -0.607474,0.03838 -1.280481,-1.324182 -1.280481,-1.324182 z"
         id="path1464"
         sodipodi:nodetypes="ccsc" />
    </g>
    <g
       id="g3015"
       transform="translate(0.32509403,11.865931)">
      <path
         style="fill:none;stroke:#000000;stroke-width:0.500001;stroke-linecap:round;stroke-linejoin:round;stroke-miterlimit:4;stroke-dasharray:none;stroke-opacity:1;paint-order:stroke markers fill"
         id="path1947"
         sodipodi:type="arc"
         sodipodi:cx="-144.11143"
         sodipodi:cy="146.01718"
         sodipodi:rx="8.7352934"
         sodipodi:ry="8.7352934"
         sodipodi:start="2.8637719"
         sodipodi:end="5.7939352"
         sodipodi:open="true"
         sodipodi:arc-type="arc"
         d="m -152.51178,148.41293 a 8.7352934,8.7352934 0 0 1 5.13159,-10.4964 8.7352934,8.7352934 0 0 1 10.97927,3.99538"
         transform="scale(-1,1)" />
      <path
         style="fill:none;stroke:#000000;stroke-width:0.5;stroke-linecap:round;stroke-linejoin:round;stroke-miterlimit:4;stroke-dasharray:none;stroke-opacity:1"
         d="m 136.40092,141.9119 c -0.28558,1.35791 0.98227,1.60489 1.59883,0.42186"
         id="path1949"
         sodipodi:nodetypes="cc" />
      <path
         style="fill:none;stroke:#000000;stroke-width:0.5;stroke-linecap:round;stroke-linejoin:round;stroke-miterlimit:4;stroke-dasharray:none;stroke-opacity:1"
         d="m 137.99975,142.33376 c -0.28558,1.35791 0.98228,1.60488 1.59883,0.42186"
         id="path1951"
         sodipodi:nodetypes="cc" />
      <path
         style="fill:none;stroke:#000000;stroke-width:0.5;stroke-linecap:round;stroke-linejoin:round;stroke-miterlimit:4;stroke-dasharray:none;stroke-opacity:1"
         d="m 139.59858,142.75562 c -0.28558,1.3579 0.98228,1.60488 1.59884,0.42185"
         id="path1953"
         sodipodi:nodetypes="cc" />
      <path
         style="fill:none;stroke:#000000;stroke-width:0.5;stroke-linecap:round;stroke-linejoin:round;stroke-miterlimit:4;stroke-dasharray:none;stroke-opacity:1"
         d="m 141.19742,143.17747 c -0.28558,1.35791 0.98227,1.60489 1.59883,0.42186"
         id="path1955"
         sodipodi:nodetypes="cc" />
      <path
         style="fill:none;stroke:#000000;stroke-width:0.5;stroke-linecap:round;stroke-linejoin:round;stroke-miterlimit:4;stroke-dasharray:none;stroke-opacity:1"
         d="m 144.39508,144.02119 c -0.28558,1.35791 0.98227,1.60488 1.59883,0.42185"
         id="path1957"
         sodipodi:nodetypes="cc" />
      <path
         style="fill:none;stroke:#000000;stroke-width:0.5;stroke-linecap:round;stroke-linejoin:round;stroke-miterlimit:4;stroke-dasharray:none;stroke-opacity:1"
         d="m 145.99391,144.44304 c -0.28558,1.35791 0.98228,1.60489 1.59883,0.42186"
         id="path1959"
         sodipodi:nodetypes="cc" />
      <path
         style="fill:none;stroke:#000000;stroke-width:0.5;stroke-linecap:round;stroke-linejoin:round;stroke-miterlimit:4;stroke-dasharray:none;stroke-opacity:1"
         d="m 148.40853,148.37038 c 1.36688,-0.23895 1.12552,-1.50788 -0.20186,-1.64118"
         id="path1961"
         sodipodi:nodetypes="cc" />
      <path
         style="fill:none;stroke:#000000;stroke-width:0.5;stroke-linecap:round;stroke-linejoin:round;stroke-miterlimit:4;stroke-dasharray:none;stroke-opacity:1"
         d="m 142.79625,143.59933 c -0.28558,1.35791 0.98227,1.60488 1.59883,0.42186"
         id="path1969"
         sodipodi:nodetypes="cc" />
      <path
         style="fill:none;stroke:#000000;stroke-width:0.5;stroke-linecap:round;stroke-linejoin:miter;stroke-miterlimit:4;stroke-dasharray:none;stroke-opacity:1"
         d="m 147.59274,144.8649 c 0.61641,0.49549 0.93459,1.0802 0.99998,1.90494"
         id="path1973"
         sodipodi:nodetypes="cc" />
      <path
         style="fill:none;stroke:#000000;stroke-width:0.5;stroke-linecap:round;stroke-linejoin:round;stroke-miterlimit:4;stroke-dasharray:none;stroke-opacity:1;paint-order:stroke markers fill"
         id="path1975"
         sodipodi:type="arc"
         sodipodi:cx="-143.85757"
         sodipodi:cy="146.54552"
         sodipodi:rx="7.1880002"
         sodipodi:ry="6.770237"
         sodipodi:start="5.7151638"
         sodipodi:end="2.6785788"
         sodipodi:open="true"
         sodipodi:arc-type="arc"
         d="m -137.79833,142.90336 a 7.1880002,6.770237 0 0 1 0.19933,6.97189 7.1880002,6.770237 0 0 1 -6.44244,3.43829 7.1880002,6.770237 0 0 1 -6.24731,-3.74412"
         transform="scale(-1,1)" />
      <path
         style="fill:#000000;fill-opacity:1;stroke:none;stroke-width:1.88976;stroke-linecap:round;stroke-linejoin:round;stroke-miterlimit:4;stroke-dasharray:none;paint-order:stroke markers fill"
         id="path1977"
         sodipodi:type="arc"
         sodipodi:cx="-144.00011"
         sodipodi:cy="146.44469"
         sodipodi:rx="0.68066555"
         sodipodi:ry="0.68066555"
         sodipodi:start="5.7151679"
         sodipodi:end="5.7128815"
         sodipodi:arc-type="slice"
         d="m -143.42633,146.07851 a 0.68066555,0.68066555 0 0 1 -0.20728,0.93975 0.68066555,0.68066555 0 0 1 -0.93986,-0.20675 0.68066555,0.68066555 0 0 1 0.20621,-0.93997 0.68066555,0.68066555 0 0 1 0.94009,0.20566 l -0.57294,0.36749 z"
         transform="scale(-1,1)" />
      <path
         style="fill:#000000;fill-opacity:1;stroke:none;stroke-width:1.88976;stroke-linecap:round;stroke-linejoin:round;stroke-miterlimit:4;stroke-dasharray:none;paint-order:stroke markers fill"
         id="path1979"
         sodipodi:type="arc"
         sodipodi:cx="-139.14401"
         sodipodi:cy="145.67259"
         sodipodi:rx="0.68066555"
         sodipodi:ry="0.68066555"
         sodipodi:start="5.7151679"
         sodipodi:end="5.7128815"
         sodipodi:arc-type="slice"
         d="m -138.57023,145.30642 a 0.68066555,0.68066555 0 0 1 -0.20728,0.93974 0.68066555,0.68066555 0 0 1 -0.93986,-0.20674 0.68066555,0.68066555 0 0 1 0.2062,-0.93998 0.68066555,0.68066555 0 0 1 0.9401,0.20567 l -0.57294,0.36748 z"
         transform="scale(-1,1)" />
      <path
         style="fill:none;stroke:#000000;stroke-width:0.5;stroke-linecap:round;stroke-linejoin:round;stroke-miterlimit:4;stroke-dasharray:none;stroke-opacity:1"
         d="m 141.2355,146.40688 c -1.38516,-0.0825 -1.44278,1.20785 -0.18187,1.64352"
         id="path1981"
         sodipodi:nodetypes="cc" />
      <path
         style="fill:none;stroke:#000000;stroke-width:0.5;stroke-linecap:round;stroke-linejoin:round;stroke-miterlimit:4;stroke-dasharray:none;stroke-opacity:1;paint-order:markers fill stroke"
         d="m 142.52703,149.64482 -2.936,-1.03623 c 0,0 0.68393,2.29903 1.65552,2.36042 0.60747,0.0384 1.28048,-1.32419 1.28048,-1.32419 z"
         id="path1983"
         sodipodi:nodetypes="ccsc" />
      <path
         style="fill:none;stroke:#000000;stroke-width:0.5;stroke-linecap:round;stroke-linejoin:round;stroke-miterlimit:4;stroke-dasharray:none;stroke-opacity:1"
         d="m 152.51177,148.41292 c -0.58467,2.07416 -2.61573,1.15264 -3.65128,-0.053"
         id="path2232"
         sodipodi:nodetypes="cc" />
    </g>
    <text
       xml:space="preserve"
       style="font-style:normal;font-weight:normal;font-size:4.23333px;line-height:1.25;font-family:sans-serif;fill:#000000;fill-opacity:1;stroke:none;stroke-width:0.264583"
       x="99.338837"
       y="143.95758"
       id="text4525"><tspan
         sodipodi:role="line"
         id="tspan4523"
         style="font-size:4.23333px;stroke-width:0.264583"
         x="99.338837"
         y="143.95758">mabuti, salamat po</tspan><tspan
         sodipodi:role="line"
         style="font-size:4.23333px;stroke-width:0.264583"
         x="99.338837"
         y="149.24924"
         id="tspan4813">kumusta ka rin po?</tspan></text>
    <text
       xml:space="preserve"
       style="font-style:normal;font-weight:normal;font-size:4.23333px;line-height:1.25;font-family:sans-serif;fill:#000000;fill-opacity:1;stroke:none;stroke-width:0.264583"
       x="80.158287"
       y="163.30067"
       id="text7573"><tspan
         sodipodi:role="line"
         id="tspan7571"
         style="font-size:4.23333px;stroke-width:0.264583"
         x="80.158287"
         y="163.30067">mabuti rin po</tspan></text>
    <g
       id="g7613"
       transform="translate(27.145348,94.114708)">
      <path
         style="fill:none;stroke:#000000;stroke-width:0.500001;stroke-linecap:round;stroke-linejoin:round;stroke-miterlimit:4;stroke-dasharray:none;stroke-opacity:1;paint-order:stroke markers fill"
         id="path7575"
         sodipodi:type="arc"
         sodipodi:cx="48.56134"
         sodipodi:cy="78.560173"
         sodipodi:rx="8.7352934"
         sodipodi:ry="8.7352934"
         sodipodi:start="3.3500061"
         sodipodi:end="5.7939352"
         sodipodi:open="true"
         sodipodi:arc-type="arc"
         d="m 40.015075,76.752771 a 8.7352934,8.7352934 0 0 1 7.323697,-6.841915 8.7352934,8.7352934 0 0 1 8.933085,4.544043" />
      <path
         style="fill:none;stroke:#000000;stroke-width:0.5;stroke-linecap:round;stroke-linejoin:round;stroke-miterlimit:4;stroke-dasharray:none;stroke-opacity:1"
         d="m 56.271857,74.454899 c 0.285579,1.357909 -0.982274,1.604885 -1.598832,0.421857"
         id="path7577"
         sodipodi:nodetypes="cc" />
      <path
         style="fill:none;stroke:#000000;stroke-width:0.5;stroke-linecap:round;stroke-linejoin:round;stroke-miterlimit:4;stroke-dasharray:none;stroke-opacity:1"
         d="m 54.673025,74.876756 c 0.285579,1.357909 -0.982274,1.604885 -1.598832,0.421857"
         id="path7579"
         sodipodi:nodetypes="cc" />
      <path
         style="fill:none;stroke:#000000;stroke-width:0.5;stroke-linecap:round;stroke-linejoin:round;stroke-miterlimit:4;stroke-dasharray:none;stroke-opacity:1"
         d="m 53.074193,75.298613 c 0.285579,1.357909 -0.982274,1.604885 -1.598832,0.421857"
         id="path7581"
         sodipodi:nodetypes="cc" />
      <path
         style="fill:none;stroke:#000000;stroke-width:0.5;stroke-linecap:round;stroke-linejoin:round;stroke-miterlimit:4;stroke-dasharray:none;stroke-opacity:1"
         d="m 51.475361,75.72047 c 0.285579,1.357909 -0.982274,1.604885 -1.598832,0.421857"
         id="path7583"
         sodipodi:nodetypes="cc" />
      <path
         style="fill:none;stroke:#000000;stroke-width:0.5;stroke-linecap:round;stroke-linejoin:round;stroke-miterlimit:4;stroke-dasharray:none;stroke-opacity:1"
         d="m 48.277697,76.564184 c 0.285579,1.357909 -0.982274,1.604885 -1.598832,0.421857"
         id="path7585"
         sodipodi:nodetypes="cc" />
      <path
         style="fill:none;stroke:#000000;stroke-width:0.5;stroke-linecap:round;stroke-linejoin:round;stroke-miterlimit:4;stroke-dasharray:none;stroke-opacity:1"
         d="m 46.678865,76.986041 c 0.285579,1.357909 -0.982274,1.604885 -1.598832,0.421857"
         id="path7587"
         sodipodi:nodetypes="cc" />
      <path
         style="fill:none;stroke:#000000;stroke-width:0.5;stroke-linecap:round;stroke-linejoin:round;stroke-miterlimit:4;stroke-dasharray:none;stroke-opacity:1"
         d="m 44.26425,80.913382 c -1.366884,-0.238954 -1.12552,-1.507887 0.201858,-1.641183"
         id="path7589"
         sodipodi:nodetypes="cc" />
      <path
         style="fill:none;stroke:#000000;stroke-width:0.5;stroke-linecap:round;stroke-linejoin:round;stroke-miterlimit:4;stroke-dasharray:none;stroke-opacity:1"
         d="m 39.255097,83.792973 c 0.269208,1.361249 1.532476,1.091803 1.636303,-0.238204"
         id="path7591"
         sodipodi:nodetypes="cc" />
      <path
         style="fill:none;stroke:#000000;stroke-width:0.5;stroke-linecap:round;stroke-linejoin:round;stroke-miterlimit:4;stroke-dasharray:none;stroke-opacity:1"
         d="m 40.8914,83.554769 c 0.269207,1.361249 1.532476,1.091803 1.636302,-0.238204"
         id="path7593"
         sodipodi:nodetypes="cc" />
      <path
         style="fill:none;stroke:#000000;stroke-width:0.5;stroke-linecap:round;stroke-linejoin:round;stroke-miterlimit:4;stroke-dasharray:none;stroke-opacity:1"
         d="m 42.527702,83.316565 c 1.675458,0.834511 1.441924,-1.191899 1.553683,-2.321909"
         id="path7595"
         sodipodi:nodetypes="cc" />
      <path
         style="fill:none;stroke:#000000;stroke-width:0.5;stroke-linecap:round;stroke-linejoin:round;stroke-miterlimit:4;stroke-dasharray:none;stroke-opacity:1"
         d="m 49.876529,76.142327 c 0.285579,1.357909 -0.982274,1.604885 -1.598832,0.421857"
         id="path7597"
         sodipodi:nodetypes="cc" />
      <path
         style="fill:none;stroke:#000000;stroke-width:0.5;stroke-linecap:round;stroke-linejoin:round;stroke-miterlimit:4;stroke-dasharray:none;stroke-opacity:1"
         d="m 40.015075,76.752772 c -0.680404,2.741737 -1.047247,4.952981 -0.759978,7.040201"
         id="path7599"
         sodipodi:nodetypes="cc" />
      <path
         style="fill:none;stroke:#000000;stroke-width:0.5;stroke-linecap:round;stroke-linejoin:miter;stroke-miterlimit:4;stroke-dasharray:none;stroke-opacity:1"
         d="m 45.080034,77.407896 c -0.616408,0.495492 -0.934583,1.080206 -0.999974,1.904941"
         id="path7601"
         sodipodi:nodetypes="cc" />
      <path
         style="fill:none;stroke:#000000;stroke-width:0.5;stroke-linecap:round;stroke-linejoin:round;stroke-miterlimit:4;stroke-dasharray:none;stroke-opacity:1;paint-order:stroke markers fill"
         id="path7603"
         sodipodi:type="arc"
         sodipodi:cx="48.815201"
         sodipodi:cy="79.088516"
         sodipodi:rx="7.1880002"
         sodipodi:ry="6.770237"
         sodipodi:start="5.7151638"
         sodipodi:end="2.4129452"
         sodipodi:open="true"
         sodipodi:arc-type="arc"
         d="m 54.874448,75.446364 a 7.1880002,6.770237 0 0 1 -1.718704,9.038645 7.1880002,6.770237 0 0 1 -9.703335,-0.888455" />
      <path
         style="fill:#000000;fill-opacity:1;stroke:none;stroke-width:1.88976;stroke-linecap:round;stroke-linejoin:round;stroke-miterlimit:4;stroke-dasharray:none;paint-order:stroke markers fill"
         id="path7605"
         sodipodi:type="arc"
         sodipodi:cx="48.672665"
         sodipodi:cy="78.987679"
         sodipodi:rx="0.68066555"
         sodipodi:ry="0.68066555"
         sodipodi:start="5.7151679"
         sodipodi:end="5.7128815"
         sodipodi:arc-type="slice"
         d="m 49.246445,78.621506 a 0.68066555,0.68066555 0 0 1 -0.20728,0.939743 0.68066555,0.68066555 0 0 1 -0.939861,-0.206743 0.68066555,0.68066555 0 0 1 0.206205,-0.939979 0.68066555,0.68066555 0 0 1 0.940097,0.205669 l -0.572941,0.367483 z" />
      <path
         style="fill:#000000;fill-opacity:1;stroke:none;stroke-width:1.88976;stroke-linecap:round;stroke-linejoin:round;stroke-miterlimit:4;stroke-dasharray:none;paint-order:stroke markers fill"
         id="path7607"
         sodipodi:type="arc"
         sodipodi:cx="53.528755"
         sodipodi:cy="78.215584"
         sodipodi:rx="0.68066555"
         sodipodi:ry="0.68066555"
         sodipodi:start="5.7151679"
         sodipodi:end="5.7128815"
         sodipodi:arc-type="slice"
         d="m 54.102535,77.849412 a 0.68066555,0.68066555 0 0 1 -0.20728,0.939742 0.68066555,0.68066555 0 0 1 -0.939861,-0.206742 0.68066555,0.68066555 0 0 1 0.206206,-0.93998 0.68066555,0.68066555 0 0 1 0.940097,0.205669 l -0.572942,0.367483 z" />
      <path
         style="fill:none;stroke:#000000;stroke-width:0.5;stroke-linecap:round;stroke-linejoin:round;stroke-miterlimit:4;stroke-dasharray:none;stroke-opacity:1"
         d="m 51.437277,78.94988 c 1.385156,-0.08255 1.442783,1.207847 0.181874,1.643517"
         id="path7609"
         sodipodi:nodetypes="cc" />
      <path
         style="fill:none;stroke:#000000;stroke-width:0.5;stroke-linecap:round;stroke-linejoin:round;stroke-miterlimit:4;stroke-dasharray:none;stroke-opacity:1;paint-order:markers fill stroke"
         d="m 50.145746,82.187822 2.936004,-1.036236 c 0,0 -0.683938,2.299027 -1.655523,2.360418 -0.607474,0.03838 -1.280481,-1.324182 -1.280481,-1.324182 z"
         id="path7611"
         sodipodi:nodetypes="ccsc" />
    </g>
  </g>
</svg>
