<?xml version="1.0" encoding="UTF-8" standalone="no"?>
<!-- Created with Inkscape (http://www.inkscape.org/) -->

<svg
   width="68.188461mm"
   height="48.601551mm"
   viewBox="0 0 68.188461 48.601551"
   version="1.1"
   id="svg1033"
   inkscape:version="1.1.1 (c3084ef, 2021-09-22)"
   sodipodi:docname="tumatakboangbatanglalaki.svg"
   xmlns:inkscape="http://www.inkscape.org/namespaces/inkscape"
   xmlns:sodipodi="http://sodipodi.sourceforge.net/DTD/sodipodi-0.dtd"
   xmlns="http://www.w3.org/2000/svg"
   xmlns:svg="http://www.w3.org/2000/svg">
  <sodipodi:namedview
     id="namedview1035"
     pagecolor="#ffffff"
     bordercolor="#cccccc"
     borderopacity="1"
     inkscape:pageshadow="0"
     inkscape:pageopacity="1"
     inkscape:pagecheckerboard="0"
     inkscape:document-units="mm"
     showgrid="false"
     inkscape:zoom="1.150982"
     inkscape:cx="40.400284"
     inkscape:cy="83.407038"
     inkscape:window-width="1293"
     inkscape:window-height="847"
     inkscape:window-x="0"
     inkscape:window-y="758"
     inkscape:window-maximized="0"
     inkscape:current-layer="layer1"
     fit-margin-top="0"
     fit-margin-left="0"
     fit-margin-right="0"
     fit-margin-bottom="0"
     inkscape:snap-global="false" />
  <defs
     id="defs1030" />
  <g
     inkscape:label="Layer 1"
     inkscape:groupmode="layer"
     id="layer1"
     transform="translate(-97.772011,-118.98439)">
    <path
       style="fill:none;stroke:#000000;stroke-width:0.5;stroke-linecap:round;stroke-linejoin:round;stroke-miterlimit:4;stroke-dasharray:none;stroke-opacity:1"
       d="m 125.95687,141.02022 c 0.58099,1.24818 2.00047,1.40833 3.55571,1.32069"
       id="path16199"
       sodipodi:nodetypes="cc" />
    <path
       style="fill:none;stroke:#000000;stroke-width:0.5;stroke-linecap:butt;stroke-linejoin:miter;stroke-miterlimit:4;stroke-dasharray:none;stroke-opacity:1"
       d="m 126.61933,141.88349 c 0,0 -1.03438,1.1698 0.0636,1.35775 0.49771,0.0852 0.65833,-1.07172 0.65833,-1.07172 0,0 -0.28725,1.06817 0.0514,1.19704 0.92625,0.35245 0.92907,-1.01697 0.92907,-1.01697"
       id="path16717"
       sodipodi:nodetypes="cscsc" />
    <path
       id="path1149"
       style="fill:none;stroke:#000000;stroke-width:0.5;stroke-linecap:round;stroke-linejoin:round;paint-order:stroke markers fill"
       transform="scale(-1,1)"
       d="m -136.75259,141.2849 c -0.48396,-1.70036 -0.29699,-3.4461 0.41539,-4.939 m 9.52579,-3.19106 c 1.21592,0.63284 2.2558,1.6279 2.94271,2.92067"
       sodipodi:nodetypes="cccc" />
    <path
       style="fill:none;stroke:#000000;stroke-width:0.5;stroke-linecap:round;stroke-linejoin:round;stroke-miterlimit:4;stroke-dasharray:none;stroke-opacity:1"
       d="m 123.8687,136.07549 c -0.22838,1.08812 0.78552,1.28603 1.27859,0.33804"
       id="path1151"
       sodipodi:nodetypes="cc" />
    <path
       style="fill:none;stroke:#000000;stroke-width:0.5;stroke-linecap:round;stroke-linejoin:round;stroke-miterlimit:4;stroke-dasharray:none;stroke-opacity:1"
       d="m 125.14729,136.41353 c -0.22838,1.08812 0.78553,1.28603 1.27858,0.33805"
       id="path1153"
       sodipodi:nodetypes="cc" />
    <path
       style="fill:none;stroke:#000000;stroke-width:0.5;stroke-linecap:round;stroke-linejoin:round;stroke-miterlimit:4;stroke-dasharray:none;stroke-opacity:1"
       d="m 126.42587,136.75158 c -0.22837,1.08811 0.78554,1.28602 1.2786,0.33804"
       id="path1155"
       sodipodi:nodetypes="cc" />
    <path
       style="fill:none;stroke:#000000;stroke-width:0.5;stroke-linecap:round;stroke-linejoin:round;stroke-miterlimit:4;stroke-dasharray:none;stroke-opacity:1"
       d="m 127.70447,137.08962 c -0.22838,1.08812 0.78552,1.28603 1.27859,0.33804"
       id="path1157"
       sodipodi:nodetypes="cc" />
    <path
       style="fill:none;stroke:#000000;stroke-width:0.5;stroke-linecap:round;stroke-linejoin:round;stroke-miterlimit:4;stroke-dasharray:none;stroke-opacity:1"
       d="m 130.26165,137.7657 c -0.22838,1.08813 0.78552,1.28603 1.27859,0.33804"
       id="path1159"
       sodipodi:nodetypes="cc" />
    <path
       style="fill:none;stroke:#000000;stroke-width:0.5;stroke-linecap:round;stroke-linejoin:round;stroke-miterlimit:4;stroke-dasharray:none;stroke-opacity:1"
       d="m 131.54024,138.10374 c -0.22838,1.08812 0.78553,1.28603 1.27858,0.33805"
       id="path1161"
       sodipodi:nodetypes="cc" />
    <path
       style="fill:none;stroke:#000000;stroke-width:0.5;stroke-linecap:round;stroke-linejoin:round;stroke-miterlimit:4;stroke-dasharray:none;stroke-opacity:1"
       d="m 133.47121,141.2508 c 1.0931,-0.19148 0.90008,-1.2083 -0.16143,-1.31511"
       id="path1163"
       sodipodi:nodetypes="cc" />
    <path
       style="fill:none;stroke:#000000;stroke-width:0.5;stroke-linecap:round;stroke-linejoin:round;stroke-miterlimit:4;stroke-dasharray:none;stroke-opacity:1"
       d="m 128.98306,137.42766 c -0.22838,1.08812 0.78552,1.28602 1.27859,0.33804"
       id="path1165"
       sodipodi:nodetypes="cc" />
    <path
       style="fill:none;stroke:#000000;stroke-width:0.5;stroke-linecap:round;stroke-linejoin:miter;stroke-miterlimit:4;stroke-dasharray:none;stroke-opacity:1"
       d="m 132.81882,138.44179 c 0.49295,0.39704 0.7474,0.86558 0.79969,1.52646"
       id="path1167"
       sodipodi:nodetypes="cc" />
    <path
       style="fill:none;stroke:#000000;stroke-width:0.5;stroke-linecap:round;stroke-linejoin:round;stroke-miterlimit:4;stroke-dasharray:none;stroke-opacity:1;paint-order:stroke markers fill"
       id="path1169"
       sodipodi:type="arc"
       sodipodi:cx="-129.8318"
       sodipodi:cy="139.7885"
       sodipodi:rx="5.7482605"
       sodipodi:ry="5.4251251"
       sodipodi:start="5.7151638"
       sodipodi:end="2.6785788"
       sodipodi:open="true"
       sodipodi:arc-type="arc"
       transform="scale(-1,1)"
       d="m -124.98621,136.86997 a 5.7482605,5.4251251 0 0 1 0.1594,5.58671 5.7482605,5.4251251 0 0 1 -5.15203,2.75517 5.7482605,5.4251251 0 0 1 -4.99599,-3.00024" />
    <path
       style="fill:#000000;fill-opacity:1;stroke:none;stroke-width:2.36069;stroke-linecap:round;stroke-linejoin:round;stroke-miterlimit:4;stroke-dasharray:none;paint-order:stroke markers fill"
       id="path1171"
       sodipodi:type="arc"
       sodipodi:cx="-129.94579"
       sodipodi:cy="139.7077"
       sodipodi:rx="0.54432982"
       sodipodi:ry="0.54543078"
       sodipodi:start="5.7151679"
       sodipodi:end="5.7128815"
       sodipodi:arc-type="slice"
       transform="scale(-1,1)"
       d="m -129.48693,139.41428 a 0.54432982,0.54543078 0 0 1 -0.16576,0.75304 0.54432982,0.54543078 0 0 1 -0.75161,-0.16567 0.54432982,0.54543078 0 0 1 0.1649,-0.75322 0.54432982,0.54543078 0 0 1 0.7518,0.1648 l -0.45819,0.29447 z" />
    <path
       style="fill:#000000;fill-opacity:1;stroke:none;stroke-width:2.36069;stroke-linecap:round;stroke-linejoin:round;stroke-miterlimit:4;stroke-dasharray:none;paint-order:stroke markers fill"
       id="path1173"
       sodipodi:type="arc"
       sodipodi:cx="-126.06237"
       sodipodi:cy="139.089"
       sodipodi:rx="0.54432982"
       sodipodi:ry="0.54543078"
       sodipodi:start="5.7151679"
       sodipodi:end="5.7128815"
       sodipodi:arc-type="slice"
       transform="scale(-1,1)"
       d="m -125.60352,138.79558 a 0.54432982,0.54543078 0 0 1 -0.16576,0.75304 0.54432982,0.54543078 0 0 1 -0.75161,-0.16567 0.54432982,0.54543078 0 0 1 0.1649,-0.75322 0.54432982,0.54543078 0 0 1 0.7518,0.1648 l -0.45818,0.29447 z" />
    <path
       style="fill:none;stroke:#000000;stroke-width:0.5;stroke-linecap:round;stroke-linejoin:round;stroke-miterlimit:4;stroke-dasharray:none;stroke-opacity:1"
       d="m 127.73492,139.67741 c -1.10771,-0.0661 -1.15379,0.96787 -0.14544,1.31698"
       id="path1175"
       sodipodi:nodetypes="cc" />
    <path
       style="fill:none;stroke:#000000;stroke-width:0.5;stroke-linecap:round;stroke-linejoin:round;stroke-miterlimit:4;stroke-dasharray:none;stroke-opacity:1"
       d="m 136.75258,141.28489 c -0.46756,1.66206 -2.0918,0.92363 -2.91993,-0.0425"
       id="path1179"
       sodipodi:nodetypes="cc" />
    <g
       id="g1185"
       transform="matrix(0.69256253,-0.4006599,0.39985116,0.69396331,-14.939809,103.19197)"
       style="stroke-width:1.2492">
      <path
         style="fill:none;stroke:#000000;stroke-width:0.624601;stroke-linecap:round;stroke-linejoin:round;stroke-miterlimit:4;stroke-dasharray:none;stroke-opacity:1"
         d="m 132.9228,141.74098 h 3.9824 c 0,0 0.15322,-2.9976 -2.14105,-2.89024 -2.13627,0.1 -1.84135,2.89024 -1.84135,2.89024 z"
         id="path1181"
         sodipodi:nodetypes="ccsc" />
      <path
         style="fill:none;stroke:#000000;stroke-width:0.624601;stroke-linecap:round;stroke-linejoin:round;stroke-miterlimit:4;stroke-dasharray:none;stroke-opacity:1"
         d="m 136.33629,141.78161 c 0,0 0.47523,2.65611 -0.22351,3.63698 -1.08748,1.52658 -3.09018,1.52223 -4.85608,0.89402 -0.76957,-0.27377 -1.6421,-0.7563 -1.52388,-1.56452 0.10313,-0.70506 1.02154,-1.15979 1.72706,-1.25973 0.39245,-0.0556 0.72168,0.3858 1.11751,0.40636 0.36253,0.0188 0.76674,0.0533 0.97528,-0.24382 0.34417,-0.49039 0.0813,-1.74737 0.0813,-1.74737"
         id="path1183"
         sodipodi:nodetypes="cssssssc" />
    </g>
    <g
       id="g1191"
       transform="matrix(0.57540078,0.55649502,-0.55537173,0.57656459,128.69779,-8.7756757)"
       style="stroke-width:1.2492">
      <path
         style="fill:none;stroke:#000000;stroke-width:0.624601;stroke-linecap:round;stroke-linejoin:round;stroke-miterlimit:4;stroke-dasharray:none;stroke-opacity:1"
         d="m 134.08178,138.99927 c -1.38588,0.59499 -1.15898,2.74171 -1.15898,2.74171 h 3.49929"
         id="path1187"
         sodipodi:nodetypes="ccc" />
      <path
         style="fill:none;stroke:#000000;stroke-width:0.624601;stroke-linecap:round;stroke-linejoin:round;stroke-miterlimit:4;stroke-dasharray:none;stroke-opacity:1"
         d="m 136.33629,141.78161 c 0,0 0.47523,2.65611 -0.22351,3.63698 -1.08748,1.52658 -3.09018,1.52223 -4.85608,0.89402 -0.76957,-0.27377 -1.6421,-0.7563 -1.52388,-1.56452 0.10313,-0.70506 1.02154,-1.15979 1.72706,-1.25973 0.39245,-0.0556 0.72168,0.3858 1.11751,0.40636 0.36253,0.0188 0.76674,0.0533 0.97528,-0.24382 0.34417,-0.49039 0.0813,-1.74737 0.0813,-1.74737"
         id="path1189"
         sodipodi:nodetypes="cssssssc" />
    </g>
    <path
       style="fill:none;stroke:#000000;stroke-width:0.5;stroke-linecap:round;stroke-linejoin:round;stroke-miterlimit:4;stroke-dasharray:none;stroke-opacity:1"
       d="m 132.99585,144.57788 0.64994,0.78151"
       id="path1193"
       sodipodi:nodetypes="cc" />
    <path
       style="fill:none;stroke:#000000;stroke-width:0.5;stroke-linecap:round;stroke-linejoin:round;stroke-miterlimit:4;stroke-dasharray:none;stroke-opacity:1"
       d="m 136.37556,151.54637 0.51996,1.26996 -8.64428,0.55356 0.58495,-8.14075 v 0"
       id="path1195"
       sodipodi:nodetypes="ccccc" />
    <path
       style="fill:#000000;fill-opacity:1;stroke:#000000;stroke-width:0.264583px;stroke-linecap:round;stroke-linejoin:round;stroke-opacity:1"
       d="m 136.89552,152.81627 c 0,0 0.0387,0.80375 -0.0554,1.5154 -0.0941,0.71165 -0.53445,1.66481 -0.53445,1.66481 0,0 2.48602,3.70782 2.81307,5.04923 0.10525,0.43169 -0.65415,1.29449 -1.1034,0.87713 -1.21467,-1.12848 -3.05606,-3.29099 -4.55402,-5.14029 l -1.75836,-0.23451 c 0,0 -0.98923,0.8216 -1.40839,1.77083 0,0 1.83857,1.38373 2.27869,1.90063 0.47346,0.55605 -0.65942,0.97268 -0.93175,0.91271 -1.20118,-0.26445 -3.06208,-1.06032 -3.53663,-2.40675 -0.34828,-0.98815 0.95374,-2.88971 0.91285,-3.00787 l -0.76641,-2.21488"
       id="path1197"
       sodipodi:nodetypes="cscssccsssasc" />
    <path
       style="fill:none;stroke:#000000;stroke-width:0.480538;stroke-linecap:round;stroke-linejoin:round;stroke-miterlimit:4;stroke-dasharray:none;stroke-opacity:1;paint-order:stroke markers fill"
       id="path1223"
       sodipodi:type="arc"
       sodipodi:cx="-130.02716"
       sodipodi:cy="138.98164"
       sodipodi:rx="7.4120002"
       sodipodi:ry="7.141994"
       sodipodi:start="3.5635969"
       sodipodi:end="5.1965161"
       sodipodi:open="true"
       sodipodi:arc-type="arc"
       transform="scale(-1,1)"
       d="m -136.7889,136.05636 a 7.4120002,7.141994 0 0 1 4.34358,-3.82593 7.4120002,7.141994 0 0 1 5.86797,0.42997" />
    <path
       style="fill:none;stroke:#000000;stroke-width:0.480538;stroke-linecap:round;stroke-linejoin:round;stroke-miterlimit:4;stroke-dasharray:none;stroke-opacity:1;paint-order:stroke markers fill"
       id="path1327"
       sodipodi:type="arc"
       sodipodi:cx="133.3391"
       sodipodi:cy="-129.73511"
       sodipodi:rx="7.4120002"
       sodipodi:ry="7.141994"
       sodipodi:start="3.5635969"
       sodipodi:end="5.1965161"
       sodipodi:open="true"
       sodipodi:arc-type="arc"
       transform="scale(1,-1)"
       d="m 126.57735,-132.66039 a 7.4120002,7.141994 0 0 1 4.34359,-3.82593 7.4120002,7.141994 0 0 1 5.86797,0.42997" />
    <path
       style="fill:none;stroke:#000000;stroke-width:0.5;stroke-linecap:round;stroke-linejoin:round;stroke-miterlimit:4;stroke-dasharray:none;stroke-opacity:1"
       d="m 136.47741,135.20503 0.63216,-0.6609 c -0.34269,-1.40909 -1.60406,-2.05789 -3.04586,-2.55737 l -0.90514,0.41665"
       id="path4175"
       sodipodi:nodetypes="cccc" />
    <path
       style="fill:none;stroke:#000000;stroke-width:0.5;stroke-linecap:round;stroke-linejoin:round;stroke-miterlimit:4;stroke-dasharray:none;stroke-opacity:1;paint-order:stroke markers fill"
       id="path4452"
       sodipodi:type="arc"
       sodipodi:cx="174.27167"
       sodipodi:cy="70.027878"
       sodipodi:rx="0.50286222"
       sodipodi:ry="0.36275735"
       sodipodi:start="3.5635958"
       sodipodi:end="3.4669873"
       sodipodi:arc-type="arc"
       d="m 173.81292,69.879296 a 0.50286222,0.36275735 0 0 1 0.65358,-0.185843 0.50286222,0.36275735 0 0 1 0.27332,0.466854 0.50286222,0.36275735 0 0 1 -0.64037,0.208392 0.50286222,0.36275735 0 0 1 -0.30426,-0.456788"
       sodipodi:open="true"
       transform="rotate(23.339711)" />
    <rect
       style="fill:none;stroke:#000000;stroke-width:0.499999;stroke-linecap:round;stroke-linejoin:round;stroke-miterlimit:4;stroke-dasharray:none;stroke-opacity:1;paint-order:stroke markers fill"
       id="rect4934"
       width="1.379257"
       height="0.80456656"
       x="182.68925"
       y="38.055477"
       transform="rotate(34.406041)" />
    <path
       style="fill:none;stroke:#000000;stroke-width:0.5;stroke-linecap:round;stroke-linejoin:miter;stroke-miterlimit:4;stroke-dasharray:none;stroke-opacity:1"
       d="m 132.94059,133.50084 c 1.20845,-0.0202 1.86789,0.47044 2.65872,0.81564"
       id="path5197"
       sodipodi:nodetypes="cc" />
    <path
       style="fill:none;stroke:#000000;stroke-width:0.5;stroke-linecap:butt;stroke-linejoin:miter;stroke-opacity:1;stroke-miterlimit:4;stroke-dasharray:none"
       d="m 132.49768,133.86887 c 0.27207,0.80885 0.60513,1.40422 0.67321,2.92701"
       id="path5199"
       sodipodi:nodetypes="cc" />
    <path
       style="fill:none;stroke:#000000;stroke-width:0.5;stroke-linecap:butt;stroke-linejoin:miter;stroke-opacity:1;stroke-miterlimit:4;stroke-dasharray:none"
       d="m 131.74397,133.24887 c -1.95435,-0.23436 -3.2907,-0.13482 -4.51907,0.43323"
       id="path5201"
       sodipodi:nodetypes="cc" />
    <path
       style="fill:none;stroke:#000000;stroke-width:0.5;stroke-linecap:round;stroke-linejoin:miter;stroke-opacity:1;stroke-miterlimit:4;stroke-dasharray:none"
       d="m 131.90524,133.02276 c -0.73725,-0.54892 -1.55027,-0.71905 -2.33679,-1.02163"
       id="path5203"
       sodipodi:nodetypes="cc" />
    <path
       style="fill:none;stroke:#000000;stroke-width:0.5;stroke-linecap:butt;stroke-linejoin:miter;stroke-opacity:1;stroke-miterlimit:4;stroke-dasharray:none"
       d="m 132.63834,133.04471 0.76405,-0.35684"
       id="path6021"
       sodipodi:nodetypes="cc" />
  </g>
</svg>
