<?xml version="1.0" encoding="UTF-8" standalone="no"?>
<!-- Created with Inkscape (http://www.inkscape.org/) -->

<svg
   width="68.188461mm"
   height="48.601551mm"
   viewBox="0 0 68.188461 48.601551"
   version="1.1"
   id="svg1033"
   inkscape:version="1.1.1 (c3084ef, 2021-09-22)"
   sodipodi:docname="tumatakboanglalaki.svg"
   xmlns:inkscape="http://www.inkscape.org/namespaces/inkscape"
   xmlns:sodipodi="http://sodipodi.sourceforge.net/DTD/sodipodi-0.dtd"
   xmlns="http://www.w3.org/2000/svg"
   xmlns:svg="http://www.w3.org/2000/svg">
  <sodipodi:namedview
     id="namedview1035"
     pagecolor="#ffffff"
     bordercolor="#cccccc"
     borderopacity="1"
     inkscape:pageshadow="0"
     inkscape:pageopacity="1"
     inkscape:pagecheckerboard="0"
     inkscape:document-units="mm"
     showgrid="false"
     inkscape:zoom="1.150982"
     inkscape:cx="123.80732"
     inkscape:cy="-16.507643"
     inkscape:window-width="1293"
     inkscape:window-height="847"
     inkscape:window-x="0"
     inkscape:window-y="758"
     inkscape:window-maximized="0"
     inkscape:current-layer="layer1"
     fit-margin-top="0"
     fit-margin-left="0"
     fit-margin-right="0"
     fit-margin-bottom="0" />
  <defs
     id="defs1030" />
  <g
     inkscape:label="Layer 1"
     inkscape:groupmode="layer"
     id="layer1"
     transform="translate(-97.772011,-118.98439)">
    <path
       style="fill:none;stroke:#000000;stroke-width:0.500001;stroke-linecap:round;stroke-linejoin:round;stroke-miterlimit:4;stroke-dasharray:none;stroke-opacity:1;paint-order:stroke markers fill"
       id="path1947"
       sodipodi:type="arc"
       sodipodi:cx="-129.63806"
       sodipodi:cy="133.75652"
       sodipodi:rx="8.7352934"
       sodipodi:ry="8.7352934"
       sodipodi:start="2.8637719"
       sodipodi:end="5.7939352"
       sodipodi:open="true"
       sodipodi:arc-type="arc"
       transform="scale(-1,1)"
       d="m -138.0384,136.15226 a 8.7352934,8.7352934 0 0 1 5.13158,-10.4964 8.7352934,8.7352934 0 0 1 10.97928,3.99538" />
    <path
       style="fill:none;stroke:#000000;stroke-width:0.5;stroke-linecap:round;stroke-linejoin:round;stroke-miterlimit:4;stroke-dasharray:none;stroke-opacity:1"
       d="m 121.92754,129.65123 c -0.28558,1.35791 0.98227,1.60489 1.59883,0.42186"
       id="path1949"
       sodipodi:nodetypes="cc" />
    <path
       style="fill:none;stroke:#000000;stroke-width:0.5;stroke-linecap:round;stroke-linejoin:round;stroke-miterlimit:4;stroke-dasharray:none;stroke-opacity:1"
       d="m 123.52637,130.07309 c -0.28558,1.35791 0.98228,1.60488 1.59883,0.42186"
       id="path1951"
       sodipodi:nodetypes="cc" />
    <path
       style="fill:none;stroke:#000000;stroke-width:0.5;stroke-linecap:round;stroke-linejoin:round;stroke-miterlimit:4;stroke-dasharray:none;stroke-opacity:1"
       d="m 125.1252,130.49495 c -0.28558,1.3579 0.98228,1.60488 1.59884,0.42185"
       id="path1953"
       sodipodi:nodetypes="cc" />
    <path
       style="fill:none;stroke:#000000;stroke-width:0.5;stroke-linecap:round;stroke-linejoin:round;stroke-miterlimit:4;stroke-dasharray:none;stroke-opacity:1"
       d="m 126.72404,130.9168 c -0.28558,1.35791 0.98227,1.60489 1.59883,0.42186"
       id="path1955"
       sodipodi:nodetypes="cc" />
    <path
       style="fill:none;stroke:#000000;stroke-width:0.5;stroke-linecap:round;stroke-linejoin:round;stroke-miterlimit:4;stroke-dasharray:none;stroke-opacity:1"
       d="m 129.9217,131.76052 c -0.28558,1.35791 0.98227,1.60488 1.59883,0.42185"
       id="path1957"
       sodipodi:nodetypes="cc" />
    <path
       style="fill:none;stroke:#000000;stroke-width:0.5;stroke-linecap:round;stroke-linejoin:round;stroke-miterlimit:4;stroke-dasharray:none;stroke-opacity:1"
       d="m 131.52053,132.18237 c -0.28558,1.35791 0.98228,1.60489 1.59883,0.42186"
       id="path1959"
       sodipodi:nodetypes="cc" />
    <path
       style="fill:none;stroke:#000000;stroke-width:0.5;stroke-linecap:round;stroke-linejoin:round;stroke-miterlimit:4;stroke-dasharray:none;stroke-opacity:1"
       d="m 133.93515,136.10971 c 1.36688,-0.23895 1.12552,-1.50788 -0.20186,-1.64118"
       id="path1961"
       sodipodi:nodetypes="cc" />
    <path
       style="fill:none;stroke:#000000;stroke-width:0.5;stroke-linecap:round;stroke-linejoin:round;stroke-miterlimit:4;stroke-dasharray:none;stroke-opacity:1"
       d="m 128.32287,131.33866 c -0.28558,1.35791 0.98227,1.60488 1.59883,0.42186"
       id="path1969"
       sodipodi:nodetypes="cc" />
    <path
       style="fill:none;stroke:#000000;stroke-width:0.5;stroke-linecap:round;stroke-linejoin:miter;stroke-miterlimit:4;stroke-dasharray:none;stroke-opacity:1"
       d="m 133.11936,132.60423 c 0.61641,0.49549 0.93459,1.0802 0.99998,1.90494"
       id="path1973"
       sodipodi:nodetypes="cc" />
    <path
       style="fill:none;stroke:#000000;stroke-width:0.5;stroke-linecap:round;stroke-linejoin:round;stroke-miterlimit:4;stroke-dasharray:none;stroke-opacity:1;paint-order:stroke markers fill"
       id="path1975"
       sodipodi:type="arc"
       sodipodi:cx="-129.3842"
       sodipodi:cy="134.28485"
       sodipodi:rx="7.1880002"
       sodipodi:ry="6.770237"
       sodipodi:start="5.7151638"
       sodipodi:end="2.6785788"
       sodipodi:open="true"
       sodipodi:arc-type="arc"
       transform="scale(-1,1)"
       d="m -123.32495,130.6427 a 7.1880002,6.770237 0 0 1 0.19932,6.97189 7.1880002,6.770237 0 0 1 -6.44244,3.43828 7.1880002,6.770237 0 0 1 -6.24731,-3.74412" />
    <path
       style="fill:#000000;fill-opacity:1;stroke:none;stroke-width:1.88976;stroke-linecap:round;stroke-linejoin:round;stroke-miterlimit:4;stroke-dasharray:none;paint-order:stroke markers fill"
       id="path1977"
       sodipodi:type="arc"
       sodipodi:cx="-129.52673"
       sodipodi:cy="134.18402"
       sodipodi:rx="0.68066555"
       sodipodi:ry="0.68066555"
       sodipodi:start="5.7151679"
       sodipodi:end="5.7128815"
       sodipodi:arc-type="slice"
       transform="scale(-1,1)"
       d="m -128.95295,133.81785 a 0.68066555,0.68066555 0 0 1 -0.20728,0.93974 0.68066555,0.68066555 0 0 1 -0.93986,-0.20674 0.68066555,0.68066555 0 0 1 0.2062,-0.93998 0.68066555,0.68066555 0 0 1 0.9401,0.20567 l -0.57294,0.36748 z" />
    <path
       style="fill:#000000;fill-opacity:1;stroke:none;stroke-width:1.88976;stroke-linecap:round;stroke-linejoin:round;stroke-miterlimit:4;stroke-dasharray:none;paint-order:stroke markers fill"
       id="path1979"
       sodipodi:type="arc"
       sodipodi:cx="-124.67065"
       sodipodi:cy="133.41193"
       sodipodi:rx="0.68066555"
       sodipodi:ry="0.68066555"
       sodipodi:start="5.7151679"
       sodipodi:end="5.7128815"
       sodipodi:arc-type="slice"
       transform="scale(-1,1)"
       d="m -124.09687,133.04575 a 0.68066555,0.68066555 0 0 1 -0.20728,0.93975 0.68066555,0.68066555 0 0 1 -0.93986,-0.20675 0.68066555,0.68066555 0 0 1 0.20621,-0.93998 0.68066555,0.68066555 0 0 1 0.94009,0.20567 l -0.57294,0.36749 z" />
    <path
       style="fill:none;stroke:#000000;stroke-width:0.5;stroke-linecap:round;stroke-linejoin:round;stroke-miterlimit:4;stroke-dasharray:none;stroke-opacity:1"
       d="m 126.76212,134.14621 c -1.38516,-0.0825 -1.44278,1.20785 -0.18187,1.64352"
       id="path1981"
       sodipodi:nodetypes="cc" />
    <path
       style="fill:none;stroke:#000000;stroke-width:0.5;stroke-linecap:round;stroke-linejoin:round;stroke-miterlimit:4;stroke-dasharray:none;stroke-opacity:1;paint-order:markers fill stroke"
       d="m 128.05365,137.38415 -2.936,-1.03623 c 0,0 0.68393,2.29903 1.65552,2.36042 0.60747,0.0384 1.28048,-1.32419 1.28048,-1.32419 z"
       id="path1983"
       sodipodi:nodetypes="ccsc" />
    <path
       style="fill:none;stroke:#000000;stroke-width:0.5;stroke-linecap:round;stroke-linejoin:round;stroke-miterlimit:4;stroke-dasharray:none;stroke-opacity:1"
       d="m 138.03839,136.15225 c -0.58467,2.07416 -2.61573,1.15264 -3.65128,-0.053"
       id="path2232"
       sodipodi:nodetypes="cc" />
    <g
       id="g3620"
       transform="rotate(-30,139.53313,140.68315)">
      <path
         style="fill:none;stroke:#000000;stroke-width:0.5;stroke-linecap:round;stroke-linejoin:round;stroke-miterlimit:4;stroke-dasharray:none;stroke-opacity:1"
         d="m 132.9228,141.74098 h 3.9824 c 0,0 0.15322,-2.9976 -2.14105,-2.89024 -2.13627,0.1 -1.84135,2.89024 -1.84135,2.89024 z"
         id="path1392"
         sodipodi:nodetypes="ccsc" />
      <path
         style="fill:none;stroke:#000000;stroke-width:0.5;stroke-linecap:round;stroke-linejoin:round;stroke-miterlimit:4;stroke-dasharray:none;stroke-opacity:1"
         d="m 136.33629,141.78161 c 0,0 0.47523,2.65611 -0.22351,3.63698 -1.08748,1.52658 -3.09018,1.52223 -4.85608,0.89402 -0.76957,-0.27377 -1.6421,-0.7563 -1.52388,-1.56452 0.10313,-0.70506 1.02154,-1.15979 1.72706,-1.25973 0.39245,-0.0556 0.72168,0.3858 1.11751,0.40636 0.36253,0.0188 0.76674,0.0533 0.97528,-0.24382 0.34417,-0.49039 0.0813,-1.74737 0.0813,-1.74737"
         id="path2223"
         sodipodi:nodetypes="cssssssc" />
    </g>
    <g
       id="g3626"
       transform="rotate(43.985242,127.26296,132.86516)">
      <path
         style="fill:none;stroke:#000000;stroke-width:0.5;stroke-linecap:round;stroke-linejoin:round;stroke-miterlimit:4;stroke-dasharray:none;stroke-opacity:1"
         d="m 134.08178,138.99927 c -1.38588,0.59499 -1.15898,2.74171 -1.15898,2.74171 h 3.49929"
         id="path3622"
         sodipodi:nodetypes="ccc" />
      <path
         style="fill:none;stroke:#000000;stroke-width:0.5;stroke-linecap:round;stroke-linejoin:round;stroke-miterlimit:4;stroke-dasharray:none;stroke-opacity:1"
         d="m 136.33629,141.78161 c 0,0 0.47523,2.65611 -0.22351,3.63698 -1.08748,1.52658 -3.09018,1.52223 -4.85608,0.89402 -0.76957,-0.27377 -1.6421,-0.7563 -1.52388,-1.56452 0.10313,-0.70506 1.02154,-1.15979 1.72706,-1.25973 0.39245,-0.0556 0.72168,0.3858 1.11751,0.40636 0.36253,0.0188 0.76674,0.0533 0.97528,-0.24382 0.34417,-0.49039 0.0813,-1.74737 0.0813,-1.74737"
         id="path3624"
         sodipodi:nodetypes="cssssssc" />
    </g>
    <path
       style="fill:none;stroke:#000000;stroke-width:0.5;stroke-linecap:round;stroke-linejoin:round;stroke-miterlimit:4;stroke-dasharray:none;stroke-opacity:1"
       d="m 133.34072,140.26171 0.81273,0.97528"
       id="path3661"
       sodipodi:nodetypes="cc" />
    <path
       style="fill:none;stroke:#000000;stroke-width:0.5;stroke-linecap:round;stroke-linejoin:round;stroke-miterlimit:4;stroke-dasharray:none;stroke-opacity:1"
       d="m 137.56694,148.95798 0.65019,1.58483 -10.80937,0.69082 0.73146,-10.15918 v 0"
       id="path4347"
       sodipodi:nodetypes="ccccc" />
    <path
       style="fill:#000000;fill-opacity:1;stroke:#000000;stroke-width:0.264583px;stroke-linecap:round;stroke-linejoin:round;stroke-opacity:1"
       d="m 138.21713,150.54274 c 0,0 0.0484,1.00303 -0.0693,1.89113 -0.11772,0.8881 -0.66831,2.07758 -0.66831,2.07758 0,0 3.10868,4.62715 3.51764,6.30115 0.13161,0.53872 -0.81799,1.61545 -1.37976,1.0946 -1.51891,-1.40827 -3.8215,-4.10696 -5.69465,-6.41477 l -2.19876,-0.29266 c 0,0 -1.237,1.02531 -1.76115,2.20989 0,0 2.29907,1.72681 2.84943,2.37187 0.59204,0.69392 -0.82459,1.21385 -1.16512,1.13902 -1.50204,-0.33002 -3.82903,-1.32322 -4.42244,-3.00349 -0.43551,-1.23315 1.19262,-3.60619 1.14149,-3.75364 l -0.95837,-2.76404"
       id="path5380"
       sodipodi:nodetypes="cscssccsssasc" />
  </g>
</svg>
