<?xml version="1.0" encoding="UTF-8" standalone="no"?>
<!-- Created with Inkscape (http://www.inkscape.org/) -->

<svg
   width="68.188461mm"
   height="48.601551mm"
   viewBox="0 0 68.188461 48.601551"
   version="1.1"
   id="svg1033"
   inkscape:version="1.1.1 (c3084ef, 2021-09-22)"
   sodipodi:docname="tumatakboangbabae.svg"
   xmlns:inkscape="http://www.inkscape.org/namespaces/inkscape"
   xmlns:sodipodi="http://sodipodi.sourceforge.net/DTD/sodipodi-0.dtd"
   xmlns="http://www.w3.org/2000/svg"
   xmlns:svg="http://www.w3.org/2000/svg">
  <sodipodi:namedview
     id="namedview1035"
     pagecolor="#ffffff"
     bordercolor="#cccccc"
     borderopacity="1"
     inkscape:pageshadow="0"
     inkscape:pageopacity="1"
     inkscape:pagecheckerboard="0"
     inkscape:document-units="mm"
     showgrid="false"
     inkscape:zoom="3.2554687"
     inkscape:cx="73.875691"
     inkscape:cy="91.538278"
     inkscape:window-width="1293"
     inkscape:window-height="847"
     inkscape:window-x="0"
     inkscape:window-y="758"
     inkscape:window-maximized="0"
     inkscape:current-layer="layer1"
     fit-margin-top="0"
     fit-margin-left="0"
     fit-margin-right="0"
     fit-margin-bottom="0" />
  <defs
     id="defs1030" />
  <g
     inkscape:label="Layer 1"
     inkscape:groupmode="layer"
     id="layer1"
     transform="translate(-97.772011,-118.98439)">
    <g
       id="g3620"
       transform="rotate(-30,139.53313,140.68315)">
      <path
         style="fill:none;stroke:#000000;stroke-width:0.5;stroke-linecap:round;stroke-linejoin:round;stroke-miterlimit:4;stroke-dasharray:none;stroke-opacity:1"
         d="m 132.9228,141.74098 h 3.9824 c 0,0 0.15322,-2.9976 -2.14105,-2.89024 -2.13627,0.1 -1.84135,2.89024 -1.84135,2.89024 z"
         id="path1392"
         sodipodi:nodetypes="ccsc" />
      <path
         style="fill:none;stroke:#000000;stroke-width:0.5;stroke-linecap:round;stroke-linejoin:round;stroke-miterlimit:4;stroke-dasharray:none;stroke-opacity:1"
         d="m 136.33629,141.78161 c 0,0 0.47523,2.65611 -0.22351,3.63698 -1.08748,1.52658 -3.09018,1.52223 -4.85608,0.89402 -0.76957,-0.27377 -1.6421,-0.7563 -1.52388,-1.56452 0.10313,-0.70506 1.02154,-1.15979 1.72706,-1.25973 0.39245,-0.0556 0.72168,0.3858 1.11751,0.40636 0.36253,0.0188 0.76674,0.0533 0.97528,-0.24382 0.34417,-0.49039 0.0813,-1.74737 0.0813,-1.74737"
         id="path2223"
         sodipodi:nodetypes="cssssssc" />
    </g>
    <g
       id="g3626"
       transform="rotate(43.985242,127.26296,132.86516)">
      <path
         style="fill:none;stroke:#000000;stroke-width:0.5;stroke-linecap:round;stroke-linejoin:round;stroke-miterlimit:4;stroke-dasharray:none;stroke-opacity:1"
         d="m 134.08178,138.99927 c -1.38588,0.59499 -1.15898,2.74171 -1.15898,2.74171 h 3.49929"
         id="path3622"
         sodipodi:nodetypes="ccc" />
      <path
         style="fill:none;stroke:#000000;stroke-width:0.5;stroke-linecap:round;stroke-linejoin:round;stroke-miterlimit:4;stroke-dasharray:none;stroke-opacity:1"
         d="m 136.33629,141.78161 c 0,0 0.47523,2.65611 -0.22351,3.63698 -1.08748,1.52658 -3.09018,1.52223 -4.85608,0.89402 -0.76957,-0.27377 -1.6421,-0.7563 -1.52388,-1.56452 0.10313,-0.70506 1.02154,-1.15979 1.72706,-1.25973 0.39245,-0.0556 0.72168,0.3858 1.11751,0.40636 0.36253,0.0188 0.76674,0.0533 0.97528,-0.24382 0.34417,-0.49039 0.0813,-1.74737 0.0813,-1.74737"
         id="path3624"
         sodipodi:nodetypes="cssssssc" />
    </g>
    <path
       style="fill:none;stroke:#000000;stroke-width:0.5;stroke-linecap:round;stroke-linejoin:round;stroke-miterlimit:4;stroke-dasharray:none;stroke-opacity:1"
       d="m 133.34072,140.26171 0.81273,0.97528"
       id="path3661"
       sodipodi:nodetypes="cc" />
    <path
       style="fill:none;stroke:#000000;stroke-width:0.5;stroke-linecap:round;stroke-linejoin:round;stroke-miterlimit:4;stroke-dasharray:none;stroke-opacity:1"
       d="m 137.56694,148.95798 0.65019,1.58483 -10.80937,0.69082 0.73146,-10.15918 v 0"
       id="path4347"
       sodipodi:nodetypes="ccccc" />
    <path
       style="fill:#000000;fill-opacity:1;stroke:#000000;stroke-width:0.264583px;stroke-linecap:round;stroke-linejoin:round;stroke-opacity:1"
       d="m 138.21713,150.54274 c 0,0 0.0484,1.00303 -0.0693,1.89113 -0.11772,0.8881 -0.66831,2.07758 -0.66831,2.07758 0,0 3.10868,4.62715 3.51764,6.30115 0.13161,0.53872 -0.81799,1.61545 -1.37976,1.0946 -1.51891,-1.40827 -3.8215,-4.10696 -5.69465,-6.41477 l -2.19876,-0.29266 c 0,0 -1.237,1.02531 -1.76115,2.20989 0,0 2.29907,1.72681 2.84943,2.37187 0.59204,0.69392 -0.82459,1.21385 -1.16512,1.13902 -1.50204,-0.33002 -3.82903,-1.32322 -4.42244,-3.00349 -0.43551,-1.23315 1.19262,-3.60619 1.14149,-3.75364 l -0.95837,-2.76404"
       id="path5380"
       sodipodi:nodetypes="cscssccsssasc" />
    <g
       id="g2997"
       transform="matrix(-1,0,0,1,178.1994,55.196328)">
      <path
         style="fill:none;stroke:#000000;stroke-width:0.500001;stroke-linecap:round;stroke-linejoin:round;stroke-miterlimit:4;stroke-dasharray:none;stroke-opacity:1;paint-order:stroke markers fill"
         id="path6192"
         sodipodi:type="arc"
         sodipodi:cx="48.56134"
         sodipodi:cy="78.560173"
         sodipodi:rx="8.7352934"
         sodipodi:ry="8.7352934"
         sodipodi:start="3.3500061"
         sodipodi:end="5.7939352"
         sodipodi:open="true"
         sodipodi:arc-type="arc"
         d="m 40.015075,76.752771 a 8.7352934,8.7352934 0 0 1 7.323697,-6.841915 8.7352934,8.7352934 0 0 1 8.933085,4.544043" />
      <path
         style="fill:none;stroke:#000000;stroke-width:0.5;stroke-linecap:round;stroke-linejoin:round;stroke-miterlimit:4;stroke-dasharray:none;stroke-opacity:1"
         d="m 56.271857,74.454899 c 0.285579,1.357909 -0.982274,1.604885 -1.598832,0.421857"
         id="path6533"
         sodipodi:nodetypes="cc" />
      <path
         style="fill:none;stroke:#000000;stroke-width:0.5;stroke-linecap:round;stroke-linejoin:round;stroke-miterlimit:4;stroke-dasharray:none;stroke-opacity:1"
         d="m 54.673025,74.876756 c 0.285579,1.357909 -0.982274,1.604885 -1.598832,0.421857"
         id="path6533-7"
         sodipodi:nodetypes="cc" />
      <path
         style="fill:none;stroke:#000000;stroke-width:0.5;stroke-linecap:round;stroke-linejoin:round;stroke-miterlimit:4;stroke-dasharray:none;stroke-opacity:1"
         d="m 53.074193,75.298613 c 0.285579,1.357909 -0.982274,1.604885 -1.598832,0.421857"
         id="path6533-7-8"
         sodipodi:nodetypes="cc" />
      <path
         style="fill:none;stroke:#000000;stroke-width:0.5;stroke-linecap:round;stroke-linejoin:round;stroke-miterlimit:4;stroke-dasharray:none;stroke-opacity:1"
         d="m 51.475361,75.72047 c 0.285579,1.357909 -0.982274,1.604885 -1.598832,0.421857"
         id="path6533-7-8-7"
         sodipodi:nodetypes="cc" />
      <path
         style="fill:none;stroke:#000000;stroke-width:0.5;stroke-linecap:round;stroke-linejoin:round;stroke-miterlimit:4;stroke-dasharray:none;stroke-opacity:1"
         d="m 48.277697,76.564184 c 0.285579,1.357909 -0.982274,1.604885 -1.598832,0.421857"
         id="path6533-7-8-7-7"
         sodipodi:nodetypes="cc" />
      <path
         style="fill:none;stroke:#000000;stroke-width:0.5;stroke-linecap:round;stroke-linejoin:round;stroke-miterlimit:4;stroke-dasharray:none;stroke-opacity:1"
         d="m 46.678865,76.986041 c 0.285579,1.357909 -0.982274,1.604885 -1.598832,0.421857"
         id="path6533-7-8-7-7-4"
         sodipodi:nodetypes="cc" />
      <path
         style="fill:none;stroke:#000000;stroke-width:0.5;stroke-linecap:round;stroke-linejoin:round;stroke-miterlimit:4;stroke-dasharray:none;stroke-opacity:1"
         d="m 44.26425,80.913382 c -1.366884,-0.238954 -1.12552,-1.507887 0.201858,-1.641183"
         id="path6533-7-8-7-7-4-83"
         sodipodi:nodetypes="cc" />
      <path
         style="fill:none;stroke:#000000;stroke-width:0.5;stroke-linecap:round;stroke-linejoin:round;stroke-miterlimit:4;stroke-dasharray:none;stroke-opacity:1"
         d="m 39.255097,83.792973 c 0.269208,1.361249 1.532476,1.091803 1.636303,-0.238204"
         id="path6533-7-8-7-7-4-8"
         sodipodi:nodetypes="cc" />
      <path
         style="fill:none;stroke:#000000;stroke-width:0.5;stroke-linecap:round;stroke-linejoin:round;stroke-miterlimit:4;stroke-dasharray:none;stroke-opacity:1"
         d="m 40.8914,83.554769 c 0.269207,1.361249 1.532476,1.091803 1.636302,-0.238204"
         id="path6533-7-8-7-7-4-8-2"
         sodipodi:nodetypes="cc" />
      <path
         style="fill:none;stroke:#000000;stroke-width:0.5;stroke-linecap:round;stroke-linejoin:round;stroke-miterlimit:4;stroke-dasharray:none;stroke-opacity:1"
         d="m 42.527702,83.316565 c 1.675458,0.834511 1.441924,-1.191899 1.553683,-2.321909"
         id="path6533-7-8-7-7-4-8-5"
         sodipodi:nodetypes="cc" />
      <path
         style="fill:none;stroke:#000000;stroke-width:0.5;stroke-linecap:round;stroke-linejoin:round;stroke-miterlimit:4;stroke-dasharray:none;stroke-opacity:1"
         d="m 49.876529,76.142327 c 0.285579,1.357909 -0.982274,1.604885 -1.598832,0.421857"
         id="path6533-7-8-7-4"
         sodipodi:nodetypes="cc" />
      <path
         style="fill:none;stroke:#000000;stroke-width:0.5;stroke-linecap:round;stroke-linejoin:round;stroke-miterlimit:4;stroke-dasharray:none;stroke-opacity:1"
         d="m 40.015075,76.752772 c -0.680404,2.741737 -1.047247,4.952981 -0.759978,7.040201"
         id="path7855"
         sodipodi:nodetypes="cc" />
      <path
         style="fill:none;stroke:#000000;stroke-width:0.5;stroke-linecap:round;stroke-linejoin:miter;stroke-miterlimit:4;stroke-dasharray:none;stroke-opacity:1"
         d="m 45.080034,77.407896 c -0.616408,0.495492 -0.934583,1.080206 -0.999974,1.904941"
         id="path9441"
         sodipodi:nodetypes="cc" />
      <path
         style="fill:none;stroke:#000000;stroke-width:0.5;stroke-linecap:round;stroke-linejoin:round;stroke-miterlimit:4;stroke-dasharray:none;stroke-opacity:1;paint-order:stroke markers fill"
         id="path10589"
         sodipodi:type="arc"
         sodipodi:cx="48.815201"
         sodipodi:cy="79.088516"
         sodipodi:rx="7.1880002"
         sodipodi:ry="6.770237"
         sodipodi:start="5.7151638"
         sodipodi:end="2.4129452"
         sodipodi:open="true"
         sodipodi:arc-type="arc"
         d="m 54.874448,75.446364 a 7.1880002,6.770237 0 0 1 -1.718704,9.038645 7.1880002,6.770237 0 0 1 -9.703335,-0.888455" />
      <path
         style="fill:#000000;fill-opacity:1;stroke:none;stroke-width:1.88976;stroke-linecap:round;stroke-linejoin:round;stroke-miterlimit:4;stroke-dasharray:none;paint-order:stroke markers fill"
         id="path1345"
         sodipodi:type="arc"
         sodipodi:cx="48.672665"
         sodipodi:cy="78.987679"
         sodipodi:rx="0.68066555"
         sodipodi:ry="0.68066555"
         sodipodi:start="5.7151679"
         sodipodi:end="5.7128815"
         sodipodi:arc-type="slice"
         d="m 49.246445,78.621506 a 0.68066555,0.68066555 0 0 1 -0.20728,0.939743 0.68066555,0.68066555 0 0 1 -0.939861,-0.206743 0.68066555,0.68066555 0 0 1 0.206205,-0.939979 0.68066555,0.68066555 0 0 1 0.940097,0.205669 l -0.572941,0.367483 z" />
      <path
         style="fill:#000000;fill-opacity:1;stroke:none;stroke-width:1.88976;stroke-linecap:round;stroke-linejoin:round;stroke-miterlimit:4;stroke-dasharray:none;paint-order:stroke markers fill"
         id="path1427"
         sodipodi:type="arc"
         sodipodi:cx="53.528755"
         sodipodi:cy="78.215584"
         sodipodi:rx="0.68066555"
         sodipodi:ry="0.68066555"
         sodipodi:start="5.7151679"
         sodipodi:end="5.7128815"
         sodipodi:arc-type="slice"
         d="m 54.102535,77.849412 a 0.68066555,0.68066555 0 0 1 -0.20728,0.939742 0.68066555,0.68066555 0 0 1 -0.939861,-0.206742 0.68066555,0.68066555 0 0 1 0.206206,-0.93998 0.68066555,0.68066555 0 0 1 0.940097,0.205669 l -0.572942,0.367483 z" />
      <path
         style="fill:none;stroke:#000000;stroke-width:0.5;stroke-linecap:round;stroke-linejoin:round;stroke-miterlimit:4;stroke-dasharray:none;stroke-opacity:1"
         d="m 51.437277,78.94988 c 1.385156,-0.08255 1.442783,1.207847 0.181874,1.643517"
         id="path1429"
         sodipodi:nodetypes="cc" />
      <path
         style="fill:none;stroke:#000000;stroke-width:0.5;stroke-linecap:round;stroke-linejoin:round;stroke-miterlimit:4;stroke-dasharray:none;stroke-opacity:1;paint-order:markers fill stroke"
         d="m 50.145746,82.187822 2.936004,-1.036236 c 0,0 -0.683938,2.299027 -1.655523,2.360418 -0.607474,0.03838 -1.280481,-1.324182 -1.280481,-1.324182 z"
         id="path1464"
         sodipodi:nodetypes="ccsc" />
    </g>
  </g>
</svg>
